<?xml version="1.0" encoding="UTF-8"?> <svg xmlns="http://www.w3.org/2000/svg" xmlns:cc="http://creativecommons.org/ns#" xmlns:dc="http://purl.org/dc/elements/1.1/" xmlns:inkscape="http://www.inkscape.org/namespaces/inkscape" xmlns:rdf="http://www.w3.org/1999/02/22-rdf-syntax-ns#" xmlns:sodipodi="http://sodipodi.sourceforge.net/DTD/sodipodi-0.dtd" xmlns:svg="http://www.w3.org/2000/svg" xmlns:xlink="http://www.w3.org/1999/xlink" id="svg14183" width="1000" height="1000" version="1.1" viewBox="0 0 1000 1000"><defs><style> .st0 { fill: none; } .st1 { fill: #1b1340; } .st2 { fill: url(#Naamloos_verloop); fill-rule: evenodd; } .st3 { fill: url(#Naamloos_verloop_2); } .st4 { fill: #6d4aff; } .st5 { clip-path: url(#clippath); } </style><clipPath id="clippath"><rect class="st0" x="170" y="92.2" width="635.1" height="575.2"></rect></clipPath><linearGradient id="Naamloos_verloop" data-name="Naamloos verloop" x1="311.1" y1="595.6" x2="87" y2="982.1" gradientTransform="translate(174.9 1720.6) scale(1.8 -1.8)" gradientUnits="userSpaceOnUse"><stop offset="0" stop-color="#8effee"></stop><stop offset=".4" stop-color="#c9c7ff"></stop><stop offset="1" stop-color="#7341ff"></stop></linearGradient><linearGradient id="Naamloos_verloop_2" data-name="Naamloos verloop 2" x1="329.3" y1="1239.8" x2="15.4" y2="568.5" gradientTransform="translate(174.9 1720.6) scale(1.8 -1.8)" gradientUnits="userSpaceOnUse"><stop offset=".5" stop-color="#6d4aff"></stop><stop offset="1" stop-color="#00f0c3"></stop></linearGradient></defs><path id="path14142" class="st4" d="M794.3,757.7h-60.6v131.3h24v-32.7c0-3.2,1.3-6.2,3.5-8.5,2.2-2.2,5.3-3.5,8.5-3.5h24.6c11.5,0,22.4-4.6,30.5-12.6,8.1-8.1,12.6-19.1,12.6-30.6,0-5.7-1.1-11.3-3.2-16.6-2.2-5.3-5.3-10.1-9.4-14.1-4-4-8.8-7.2-14-9.4-5.2-2.2-10.8-3.3-16.6-3.3h0ZM813.2,800.8c0,2.7-.5,5.4-1.6,7.8-1,2.5-2.5,4.7-4.4,6.6-1.9,1.9-4.2,3.4-6.6,4.4-2.5,1-5.1,1.5-7.8,1.5h-35.1v-40.9h35.1c2.7,0,5.4.5,7.9,1.6,2.5,1,4.7,2.6,6.6,4.5,1.9,1.9,3.4,4.2,4.4,6.7,1,2.5,1.5,5.2,1.5,7.9h0Z"></path><path id="path14144" class="st4" d="M649.5,888.6l-48.3-131.2h27.3l31.8,93.9c1.3,3.4,2.2,6.8,2.7,10.4h.3c.4-3.6,1.3-7.1,2.7-10.4l31.9-93.9h27.5l-48.6,131.2h-27.2Z"></path><path id="path14146" class="st4" d="M846.5,888.6v-131.2h21l61.9,81.4c2.2,2.8,4.2,5.8,5.8,9h.4c-.4-3.9-.6-7.9-.6-11.9v-78.5h24.8v131.2h-21l-62.1-81.4c-2.2-2.8-4.1-5.8-5.8-9h-.2c.3,3.9.5,7.9.4,11.9v78.5h-24.6Z"></path><path id="path14148" class="st1" d="M40.3,853.2v33.8h23.6v-32.3c0-3.1,1.2-6.2,3.5-8.4,2.2-2.2,5.2-3.5,8.3-3.5h24.2c11.3,0,22.1-4.5,30.1-12.5,8-8,12.4-18.9,12.4-30.2s-4.5-22.2-12.4-30.2c-8-8-18.8-12.5-30.1-12.5h-59.5v42.2h23.6v-19.9h34.4c5.3,0,10.5,2.1,14.2,5.9,3.8,3.8,5.9,8.9,5.9,14.3s-2.1,10.5-5.9,14.3c-3.8,3.8-8.9,5.9-14.2,5.9h-25c-4.3,0-8.6.8-12.6,2.5-4,1.7-7.6,4.1-10.7,7.2-3.1,3.1-5.5,6.7-7.2,10.7-1.7,4-2.5,8.3-2.5,12.6h0Z"></path><path id="path14150" class="st1" d="M145.9,887v-51.4c0-21,12.2-37.7,36.6-37.7,3.9,0,7.8.4,11.6,1.3v21.2c-2.8-.2-5.2-.2-6.3-.2-12.9,0-18.5,6-18.5,18v48.9h-23.4Z"></path><path id="path14152" class="st1" d="M201.2,843.4c0-25.8,19.4-45.5,46.4-45.5s46.4,19.7,46.4,45.5-19.4,45.7-46.4,45.7-46.4-19.9-46.4-45.7ZM270.8,843.4c0-14.7-9.8-25.1-23.3-25.1s-23.3,10.4-23.3,25.1,9.8,25.1,23.3,25.1,23.3-10.2,23.3-25.1Z"></path><path id="path14154" class="st1" d="M368.9,843.4c0-25.8,19.4-45.5,46.4-45.5s46.3,19.7,46.3,45.5-19.4,45.7-46.3,45.7-46.4-19.9-46.4-45.7ZM438.5,843.4c0-14.7-9.8-25.1-23.3-25.1s-23.3,10.4-23.3,25.1,9.8,25.1,23.3,25.1,23.3-10.2,23.3-25.1Z"></path><path id="path14156" class="st1" d="M473.8,887v-49.6c0-23,14.6-39.6,40.6-39.6s40.4,16.5,40.4,39.6v49.6h-23.3v-47.7c0-12.8-5.7-20.8-17.2-20.8s-17.2,8-17.2,20.8v47.7h-23.4Z"></path><path id="path14158" class="st1" d="M361.9,818.5h-25.3v32.5c0,11.3,4.1,16.5,15.7,16.5s3.9,0,7.4-.2v19.1c-4.8,1.3-9,2.1-13.7,2.1-19.6,0-32.9-11.9-32.9-34.3v-35.7h-15.7v-18.8h3.9c1.5,0,3.1-.3,4.5-.9,1.4-.6,2.7-1.5,3.8-2.6,1.1-1.1,2-2.4,2.6-3.8s.9-3,.9-4.5v-17.7h23.4v29.5h25.3v18.8h0Z"></path><g class="st5"><g id="g14164"><path id="path14160" class="st2" d="M425.2,633.4c24.1,43.4,86.1,45.7,113.5,4.3l255.5-386.4c27.1-41,1.2-95.9-47.9-101.5l-502.3-57.1c-53.5-6.1-91.7,50.4-65.6,97.2l246.7,443.6Z"></path><path id="path14162" class="st3" d="M439.6,592.9l22.7-33.8,172.3-260.2c15.1-22.8.7-53.3-26.6-56.4l-427.5-49.1,221.5,398.1c8.1,14.2,28.5,15,37.7,1.4Z"></path></g></g></svg> 