<svg xmlns="http://www.w3.org/2000/svg" viewBox="0 0 200 200">
  <rect width="200" height="200" fill="#E8E8E8"/>
  <!-- Teal teardrop S-mark -->
  <path d="M108 22 C80 18 52 36 44 62 C38 80 42 100 54 116 C64 128 78 136 92 142 C98 145 104 150 108 158 C112 150 118 145 124 142 C138 136 152 128 162 116 C174 100 178 80 172 62 C164 36 136 26 108 22 Z" fill="#1CBFC4"/>
  <!-- White S curve -->
  <path d="M138 72 C128 58 108 54 94 62 C80 70 80 86 94 94 C104 100 120 104 126 114 C132 124 128 138 114 144 C100 150 82 144 74 130"
        stroke="white" stroke-width="14" stroke-linecap="round" stroke-linejoin="round" fill="none"/>
</svg>
