<svg xmlns="http://www.w3.org/2000/svg" viewBox="0 0 1200 630" width="1200" height="630">
  <defs>
    <linearGradient id="bg" x1="0%" y1="0%" x2="100%" y2="100%">
      <stop offset="0%" style="stop-color:hsl(227,70%,8%)"/>
      <stop offset="50%" style="stop-color:hsl(257,65%,12%)"/>
      <stop offset="100%" style="stop-color:hsl(252,60%,9%)"/>
    </linearGradient>
    <radialGradient id="glow" cx="50%" cy="45%" r="40%">
      <stop offset="0%" style="stop-color:hsl(257,80%,30%);stop-opacity:0.18"/>
      <stop offset="100%" style="stop-color:transparent;stop-opacity:0"/>
    </radialGradient>
    <radialGradient id="glow2" cx="20%" cy="20%" r="30%">
      <stop offset="0%" style="stop-color:hsl(227,70%,40%);stop-opacity:0.08"/>
      <stop offset="100%" style="stop-color:transparent;stop-opacity:0"/>
    </radialGradient>
    <filter id="blur"><feGaussianBlur stdDeviation="40"/></filter>
  </defs>

  <!-- Achtergrond -->
  <rect width="1200" height="630" fill="url(#bg)"/>
  <rect width="1200" height="630" fill="url(#glow)"/>
  <rect width="1200" height="630" fill="url(#glow2)"/>

  <!-- Stippenraster -->
  <circle cx="22" cy="33" r="2" fill="rgba(148,163,184,0.09)"/>
  <circle cx="57" cy="93" r="2" fill="rgba(148,163,184,0.13)"/>
  <circle cx="22" cy="153" r="2" fill="rgba(148,163,184,0.17)"/>
  <circle cx="57" cy="213" r="2" fill="rgba(148,163,184,0.13)"/>
  <circle cx="22" cy="273" r="2" fill="rgba(148,163,184,0.12)"/>
  <circle cx="57" cy="333" r="2" fill="rgba(148,163,184,0.08)"/>
  <circle cx="22" cy="393" r="2" fill="rgba(148,163,184,0.15)"/>
  <circle cx="57" cy="453" r="2" fill="rgba(148,163,184,0.21)"/>
  <circle cx="22" cy="513" r="2" fill="rgba(148,163,184,0.11)"/>
  <circle cx="57" cy="573" r="2" fill="rgba(148,163,184,0.12)"/>
  <circle cx="92" cy="33" r="2" fill="rgba(148,163,184,0.16)"/>
  <circle cx="127" cy="93" r="2" fill="rgba(148,163,184,0.12)"/>
  <circle cx="92" cy="153" r="2" fill="rgba(148,163,184,0.19)"/>
  <circle cx="127" cy="213" r="2" fill="rgba(148,163,184,0.14)"/>
  <circle cx="92" cy="273" r="2" fill="rgba(148,163,184,0.09)"/>
  <circle cx="127" cy="333" r="2" fill="rgba(148,163,184,0.19)"/>
  <circle cx="92" cy="393" r="2" fill="rgba(148,163,184,0.12)"/>
  <circle cx="127" cy="453" r="2" fill="rgba(148,163,184,0.09)"/>
  <circle cx="92" cy="513" r="2" fill="rgba(148,163,184,0.13)"/>
  <circle cx="127" cy="573" r="2" fill="rgba(148,163,184,0.18)"/>
  <circle cx="162" cy="33" r="2" fill="rgba(148,163,184,0.12)"/>
  <circle cx="197" cy="93" r="2" fill="rgba(148,163,184,0.08)"/>
  <circle cx="162" cy="153" r="2" fill="rgba(148,163,184,0.08)"/>
  <circle cx="197" cy="213" r="2" fill="rgba(148,163,184,0.14)"/>
  <circle cx="162" cy="273" r="2" fill="rgba(148,163,184,0.19)"/>
  <circle cx="197" cy="333" r="2" fill="rgba(148,163,184,0.08)"/>
  <circle cx="162" cy="393" r="2" fill="rgba(148,163,184,0.15)"/>
  <circle cx="197" cy="453" r="2" fill="rgba(148,163,184,0.19)"/>
  <circle cx="162" cy="513" r="2" fill="rgba(148,163,184,0.14)"/>
  <circle cx="197" cy="573" r="2" fill="rgba(148,163,184,0.09)"/>
  <circle cx="232" cy="33" r="2" fill="rgba(148,163,184,0.10)"/>
  <circle cx="267" cy="93" r="2" fill="rgba(148,163,184,0.17)"/>
  <circle cx="232" cy="153" r="2" fill="rgba(148,163,184,0.17)"/>
  <circle cx="267" cy="213" r="2" fill="rgba(148,163,184,0.21)"/>
  <circle cx="232" cy="273" r="2" fill="rgba(148,163,184,0.16)"/>
  <circle cx="267" cy="333" r="2" fill="rgba(148,163,184,0.17)"/>
  <circle cx="232" cy="393" r="2" fill="rgba(148,163,184,0.13)"/>
  <circle cx="267" cy="453" r="2" fill="rgba(148,163,184,0.16)"/>
  <circle cx="232" cy="513" r="2" fill="rgba(148,163,184,0.11)"/>
  <circle cx="267" cy="573" r="2" fill="rgba(148,163,184,0.16)"/>
  <circle cx="302" cy="33" r="2" fill="rgba(148,163,184,0.21)"/>
  <circle cx="337" cy="93" r="2" fill="rgba(148,163,184,0.17)"/>
  <circle cx="302" cy="153" r="2" fill="rgba(148,163,184,0.14)"/>
  <circle cx="337" cy="213" r="2" fill="rgba(148,163,184,0.11)"/>
  <circle cx="302" cy="273" r="2" fill="rgba(148,163,184,0.10)"/>
  <circle cx="337" cy="333" r="2" fill="rgba(148,163,184,0.20)"/>
  <circle cx="302" cy="393" r="2" fill="rgba(148,163,184,0.12)"/>
  <circle cx="337" cy="453" r="2" fill="rgba(148,163,184,0.19)"/>
  <circle cx="302" cy="513" r="2" fill="rgba(148,163,184,0.08)"/>
  <circle cx="337" cy="573" r="2" fill="rgba(148,163,184,0.09)"/>
  <circle cx="372" cy="33" r="2" fill="rgba(148,163,184,0.14)"/>
  <circle cx="407" cy="93" r="2" fill="rgba(148,163,184,0.21)"/>
  <circle cx="372" cy="153" r="2" fill="rgba(148,163,184,0.11)"/>
  <circle cx="407" cy="213" r="2" fill="rgba(148,163,184,0.14)"/>
  <circle cx="372" cy="273" r="2" fill="rgba(148,163,184,0.15)"/>
  <circle cx="407" cy="333" r="2" fill="rgba(148,163,184,0.20)"/>
  <circle cx="372" cy="393" r="2" fill="rgba(148,163,184,0.16)"/>
  <circle cx="407" cy="453" r="2" fill="rgba(148,163,184,0.21)"/>
  <circle cx="372" cy="513" r="2" fill="rgba(148,163,184,0.17)"/>
  <circle cx="407" cy="573" r="2" fill="rgba(148,163,184,0.16)"/>
  <circle cx="442" cy="33" r="2" fill="rgba(148,163,184,0.09)"/>
  <circle cx="477" cy="93" r="2" fill="rgba(148,163,184,0.16)"/>
  <circle cx="442" cy="153" r="2" fill="rgba(148,163,184,0.16)"/>
  <circle cx="477" cy="213" r="2" fill="rgba(148,163,184,0.16)"/>
  <circle cx="442" cy="273" r="2" fill="rgba(148,163,184,0.11)"/>
  <circle cx="477" cy="333" r="2" fill="rgba(148,163,184,0.16)"/>
  <circle cx="442" cy="393" r="2" fill="rgba(148,163,184,0.12)"/>
  <circle cx="477" cy="453" r="2" fill="rgba(148,163,184,0.11)"/>
  <circle cx="442" cy="513" r="2" fill="rgba(148,163,184,0.10)"/>
  <circle cx="477" cy="573" r="2" fill="rgba(148,163,184,0.15)"/>
  <circle cx="512" cy="33" r="2" fill="rgba(148,163,184,0.08)"/>
  <circle cx="547" cy="93" r="2" fill="rgba(148,163,184,0.15)"/>
  <circle cx="512" cy="153" r="2" fill="rgba(148,163,184,0.08)"/>
  <circle cx="547" cy="213" r="2" fill="rgba(148,163,184,0.11)"/>
  <circle cx="512" cy="273" r="2" fill="rgba(148,163,184,0.12)"/>
  <circle cx="547" cy="333" r="2" fill="rgba(148,163,184,0.17)"/>
  <circle cx="512" cy="393" r="2" fill="rgba(148,163,184,0.13)"/>
  <circle cx="547" cy="453" r="2" fill="rgba(148,163,184,0.18)"/>
  <circle cx="512" cy="513" r="2" fill="rgba(148,163,184,0.14)"/>
  <circle cx="547" cy="573" r="2" fill="rgba(148,163,184,0.13)"/>
  <circle cx="582" cy="33" r="2" fill="rgba(148,163,184,0.20)"/>
  <circle cx="617" cy="93" r="2" fill="rgba(148,163,184,0.09)"/>
  <circle cx="582" cy="153" r="2" fill="rgba(148,163,184,0.12)"/>
  <circle cx="617" cy="213" r="2" fill="rgba(148,163,184,0.16)"/>
  <circle cx="582" cy="273" r="2" fill="rgba(148,163,184,0.17)"/>
  <circle cx="617" cy="333" r="2" fill="rgba(148,163,184,0.21)"/>
  <circle cx="582" cy="393" r="2" fill="rgba(148,163,184,0.14)"/>
  <circle cx="617" cy="453" r="2" fill="rgba(148,163,184,0.08)"/>
  <circle cx="582" cy="513" r="2" fill="rgba(148,163,184,0.18)"/>
  <circle cx="617" cy="573" r="2" fill="rgba(148,163,184,0.17)"/>
  <circle cx="652" cy="33" r="2" fill="rgba(148,163,184,0.20)"/>
  <circle cx="687" cy="93" r="2" fill="rgba(148,163,184,0.16)"/>
  <circle cx="652" cy="153" r="2" fill="rgba(148,163,184,0.22)"/>
  <circle cx="687" cy="213" r="2" fill="rgba(148,163,184,0.13)"/>
  <circle cx="652" cy="273" r="2" fill="rgba(148,163,184,0.12)"/>
  <circle cx="687" cy="333" r="2" fill="rgba(148,163,184,0.13)"/>
  <circle cx="652" cy="393" r="2" fill="rgba(148,163,184,0.20)"/>
  <circle cx="687" cy="453" r="2" fill="rgba(148,163,184,0.21)"/>
  <circle cx="652" cy="513" r="2" fill="rgba(148,163,184,0.16)"/>
  <circle cx="687" cy="573" r="2" fill="rgba(148,163,184,0.17)"/>
  <circle cx="722" cy="33" r="2" fill="rgba(148,163,184,0.11)"/>
  <circle cx="757" cy="93" r="2" fill="rgba(148,163,184,0.18)"/>
  <circle cx="722" cy="153" r="2" fill="rgba(148,163,184,0.15)"/>
  <circle cx="757" cy="213" r="2" fill="rgba(148,163,184,0.19)"/>
  <circle cx="722" cy="273" r="2" fill="rgba(148,163,184,0.20)"/>
  <circle cx="757" cy="333" r="2" fill="rgba(148,163,184,0.09)"/>
  <circle cx="722" cy="393" r="2" fill="rgba(148,163,184,0.20)"/>
  <circle cx="757" cy="453" r="2" fill="rgba(148,163,184,0.11)"/>
  <circle cx="722" cy="513" r="2" fill="rgba(148,163,184,0.21)"/>
  <circle cx="757" cy="573" r="2" fill="rgba(148,163,184,0.20)"/>
  <circle cx="792" cy="33" r="2" fill="rgba(148,163,184,0.15)"/>
  <circle cx="827" cy="93" r="2" fill="rgba(148,163,184,0.08)"/>
  <circle cx="792" cy="153" r="2" fill="rgba(148,163,184,0.19)"/>
  <circle cx="827" cy="213" r="2" fill="rgba(148,163,184,0.09)"/>
  <circle cx="792" cy="273" r="2" fill="rgba(148,163,184,0.14)"/>
  <circle cx="827" cy="333" r="2" fill="rgba(148,163,184,0.19)"/>
  <circle cx="792" cy="393" r="2" fill="rgba(148,163,184,0.08)"/>
  <circle cx="827" cy="453" r="2" fill="rgba(148,163,184,0.14)"/>
  <circle cx="792" cy="513" r="2" fill="rgba(148,163,184,0.10)"/>
  <circle cx="827" cy="573" r="2" fill="rgba(148,163,184,0.20)"/>
  <circle cx="862" cy="33" r="2" fill="rgba(148,163,184,0.13)"/>
  <circle cx="897" cy="93" r="2" fill="rgba(148,163,184,0.21)"/>
  <circle cx="862" cy="153" r="2" fill="rgba(148,163,184,0.08)"/>
  <circle cx="897" cy="213" r="2" fill="rgba(148,163,184,0.12)"/>
  <circle cx="862" cy="273" r="2" fill="rgba(148,163,184,0.22)"/>
  <circle cx="897" cy="333" r="2" fill="rgba(148,163,184,0.08)"/>
  <circle cx="862" cy="393" r="2" fill="rgba(148,163,184,0.19)"/>
  <circle cx="897" cy="453" r="2" fill="rgba(148,163,184,0.22)"/>
  <circle cx="862" cy="513" r="2" fill="rgba(148,163,184,0.17)"/>
  <circle cx="897" cy="573" r="2" fill="rgba(148,163,184,0.22)"/>
  <circle cx="932" cy="33" r="2" fill="rgba(148,163,184,0.21)"/>
  <circle cx="967" cy="93" r="2" fill="rgba(148,163,184,0.14)"/>
  <circle cx="932" cy="153" r="2" fill="rgba(148,163,184,0.16)"/>
  <circle cx="967" cy="213" r="2" fill="rgba(148,163,184,0.20)"/>
  <circle cx="932" cy="273" r="2" fill="rgba(148,163,184,0.21)"/>
  <circle cx="967" cy="333" r="2" fill="rgba(148,163,184,0.10)"/>
  <circle cx="932" cy="393" r="2" fill="rgba(148,163,184,0.21)"/>
  <circle cx="967" cy="453" r="2" fill="rgba(148,163,184,0.12)"/>
  <circle cx="932" cy="513" r="2" fill="rgba(148,163,184,0.22)"/>
  <circle cx="967" cy="573" r="2" fill="rgba(148,163,184,0.21)"/>
  <circle cx="1002" cy="33" r="2" fill="rgba(148,163,184,0.10)"/>
  <circle cx="1037" cy="93" r="2" fill="rgba(148,163,184,0.17)"/>
  <circle cx="1002" cy="153" r="2" fill="rgba(148,163,184,0.13)"/>
  <circle cx="1037" cy="213" r="2" fill="rgba(148,163,184,0.18)"/>
  <circle cx="1002" cy="273" r="2" fill="rgba(148,163,184,0.08)"/>
  <circle cx="1037" cy="333" r="2" fill="rgba(148,163,184,0.13)"/>
  <circle cx="1002" cy="393" r="2" fill="rgba(148,163,184,0.17)"/>
  <circle cx="1037" cy="453" r="2" fill="rgba(148,163,184,0.08)"/>
  <circle cx="1002" cy="513" r="2" fill="rgba(148,163,184,0.19)"/>
  <circle cx="1037" cy="573" r="2" fill="rgba(148,163,184,0.14)"/>
  <circle cx="1072" cy="33" r="2" fill="rgba(148,163,184,0.11)"/>
  <circle cx="1107" cy="93" r="2" fill="rgba(148,163,184,0.22)"/>
  <circle cx="1072" cy="153" r="2" fill="rgba(148,163,184,0.12)"/>
  <circle cx="1107" cy="213" r="2" fill="rgba(148,163,184,0.22)"/>
  <circle cx="1072" cy="273" r="2" fill="rgba(148,163,184,0.17)"/>
  <circle cx="1107" cy="333" r="2" fill="rgba(148,163,184,0.12)"/>
  <circle cx="1072" cy="393" r="2" fill="rgba(148,163,184,0.20)"/>
  <circle cx="1107" cy="453" r="2" fill="rgba(148,163,184,0.17)"/>
  <circle cx="1072" cy="513" r="2" fill="rgba(148,163,184,0.21)"/>
  <circle cx="1107" cy="573" r="2" fill="rgba(148,163,184,0.11)"/>
  <circle cx="1142" cy="33" r="2" fill="rgba(148,163,184,0.11)"/>
  <circle cx="1177" cy="93" r="2" fill="rgba(148,163,184,0.18)"/>
  <circle cx="1142" cy="153" r="2" fill="rgba(148,163,184,0.21)"/>
  <circle cx="1177" cy="213" r="2" fill="rgba(148,163,184,0.12)"/>
  <circle cx="1142" cy="273" r="2" fill="rgba(148,163,184,0.11)"/>
  <circle cx="1177" cy="333" r="2" fill="rgba(148,163,184,0.12)"/>
  <circle cx="1142" cy="393" r="2" fill="rgba(148,163,184,0.16)"/>
  <circle cx="1177" cy="453" r="2" fill="rgba(148,163,184,0.20)"/>
  <circle cx="1142" cy="513" r="2" fill="rgba(148,163,184,0.15)"/>
  <circle cx="1177" cy="573" r="2" fill="rgba(148,163,184,0.16)"/>

  <!-- Netwerklijnen -->
  <line x1="162" y1="122" x2="207" y2="255" stroke="rgba(96,165,250,0.06)" stroke-width="1"/>
  <line x1="207" y1="255" x2="922" y2="116" stroke="rgba(96,165,250,0.08)" stroke-width="1"/>
  <line x1="922" y1="116" x2="1105" y2="262" stroke="rgba(96,165,250,0.10)" stroke-width="1"/>
  <line x1="1105" y1="262" x2="228" y2="512" stroke="rgba(96,165,250,0.12)" stroke-width="1"/>
  <line x1="228" y1="512" x2="1062" y2="547" stroke="rgba(96,165,250,0.14)" stroke-width="1"/>
  <circle cx="162" cy="122" r="3" fill="rgba(96,165,250,0.25)"/>
  <circle cx="162" cy="122" r="8" fill="rgba(96,165,250,0.06)"/>
  <circle cx="207" cy="255" r="3" fill="rgba(96,165,250,0.25)"/>
  <circle cx="207" cy="255" r="8" fill="rgba(96,165,250,0.06)"/>
  <circle cx="922" cy="116" r="3" fill="rgba(96,165,250,0.25)"/>
  <circle cx="922" cy="116" r="8" fill="rgba(96,165,250,0.06)"/>
  <circle cx="1105" cy="262" r="3" fill="rgba(96,165,250,0.25)"/>
  <circle cx="1105" cy="262" r="8" fill="rgba(96,165,250,0.06)"/>
  <circle cx="228" cy="512" r="3" fill="rgba(96,165,250,0.25)"/>
  <circle cx="228" cy="512" r="8" fill="rgba(96,165,250,0.06)"/>
  <circle cx="1062" cy="547" r="3" fill="rgba(96,165,250,0.25)"/>
  <circle cx="1062" cy="547" r="8" fill="rgba(96,165,250,0.06)"/>

  <!-- Horizontale accentlijn -->
  <line x1="0" y1="1" x2="1200" y2="1" stroke="rgba(96,165,250,0.12)" stroke-width="1"/>
  <line x1="0" y1="629" x2="1200" y2="629" stroke="rgba(96,165,250,0.08)" stroke-width="1"/>

  <!-- Topic-illustratie (gecentreerd) -->
  <g transform="translate(0,0)">
        <circle cx="600" cy="270" r="80" fill="none" stroke="rgba(96,165,250,0.35)" stroke-width="2"/>
        <line x1="545" y1="215" x2="655" y2="325" stroke="rgba(96,165,250,0.4)" stroke-width="1.5"/>
        <circle cx="555" cy="250" r="18" fill="rgba(96,165,250,0.2)" stroke="rgba(96,165,250,0.4)" stroke-width="1.5"/>
        <circle cx="645" cy="290" r="18" fill="rgba(96,165,250,0.2)" stroke="rgba(96,165,250,0.4)" stroke-width="1.5"/>
        <text x="600" y="380" text-anchor="middle" font-family="sans-serif" font-size="20" fill="rgba(96,165,250,0.5)" font-weight="bold">€€€</text>
  </g>

  <!-- Categorie badge -->
  <rect x="32" y="570" width="64" height="26" rx="13" fill="rgba(96,165,250,0.2)"/>
       <text x="44" y="588" font-family="system-ui, sans-serif" font-size="12" font-weight="600" fill="rgba(148,163,184,0.9)" letter-spacing="0.05em">DEALS</text>

  <!-- Subtiele vpnr.nl branding (rechtsonder) -->
  <text x="1168" y="614" font-family="system-ui, sans-serif" font-size="11" fill="rgba(100,116,139,0.5)" text-anchor="end" letter-spacing="0.04em">vpnr.nl</text>
</svg>