<svg xmlns="http://www.w3.org/2000/svg" viewBox="0 0 1200 630" width="1200" height="630">
  <defs>
    <linearGradient id="bg" x1="0%" y1="0%" x2="100%" y2="100%">
      <stop offset="0%" style="stop-color:hsl(220,70%,8%)"/>
      <stop offset="50%" style="stop-color:hsl(250,65%,12%)"/>
      <stop offset="100%" style="stop-color:hsl(265,60%,9%)"/>
    </linearGradient>
    <radialGradient id="glow" cx="50%" cy="45%" r="40%">
      <stop offset="0%" style="stop-color:hsl(250,80%,30%);stop-opacity:0.18"/>
      <stop offset="100%" style="stop-color:transparent;stop-opacity:0"/>
    </radialGradient>
    <radialGradient id="glow2" cx="20%" cy="20%" r="30%">
      <stop offset="0%" style="stop-color:hsl(220,70%,40%);stop-opacity:0.08"/>
      <stop offset="100%" style="stop-color:transparent;stop-opacity:0"/>
    </radialGradient>
    <filter id="blur"><feGaussianBlur stdDeviation="40"/></filter>
  </defs>

  <!-- Achtergrond -->
  <rect width="1200" height="630" fill="url(#bg)"/>
  <rect width="1200" height="630" fill="url(#glow)"/>
  <rect width="1200" height="630" fill="url(#glow2)"/>

  <!-- Stippenraster -->
  <circle cx="15" cy="29" r="2" fill="rgba(148,163,184,0.13)"/>
  <circle cx="50" cy="89" r="2" fill="rgba(148,163,184,0.15)"/>
  <circle cx="15" cy="149" r="2" fill="rgba(148,163,184,0.14)"/>
  <circle cx="50" cy="209" r="2" fill="rgba(148,163,184,0.12)"/>
  <circle cx="15" cy="269" r="2" fill="rgba(148,163,184,0.21)"/>
  <circle cx="50" cy="329" r="2" fill="rgba(148,163,184,0.14)"/>
  <circle cx="15" cy="389" r="2" fill="rgba(148,163,184,0.15)"/>
  <circle cx="50" cy="449" r="2" fill="rgba(148,163,184,0.21)"/>
  <circle cx="15" cy="509" r="2" fill="rgba(148,163,184,0.20)"/>
  <circle cx="50" cy="569" r="2" fill="rgba(148,163,184,0.11)"/>
  <circle cx="15" cy="629" r="2" fill="rgba(148,163,184,0.12)"/>
  <circle cx="85" cy="29" r="2" fill="rgba(148,163,184,0.17)"/>
  <circle cx="120" cy="89" r="2" fill="rgba(148,163,184,0.18)"/>
  <circle cx="85" cy="149" r="2" fill="rgba(148,163,184,0.19)"/>
  <circle cx="120" cy="209" r="2" fill="rgba(148,163,184,0.09)"/>
  <circle cx="85" cy="269" r="2" fill="rgba(148,163,184,0.18)"/>
  <circle cx="120" cy="329" r="2" fill="rgba(148,163,184,0.19)"/>
  <circle cx="85" cy="389" r="2" fill="rgba(148,163,184,0.21)"/>
  <circle cx="120" cy="449" r="2" fill="rgba(148,163,184,0.18)"/>
  <circle cx="85" cy="509" r="2" fill="rgba(148,163,184,0.10)"/>
  <circle cx="120" cy="569" r="2" fill="rgba(148,163,184,0.16)"/>
  <circle cx="85" cy="629" r="2" fill="rgba(148,163,184,0.09)"/>
  <circle cx="155" cy="29" r="2" fill="rgba(148,163,184,0.14)"/>
  <circle cx="190" cy="89" r="2" fill="rgba(148,163,184,0.12)"/>
  <circle cx="155" cy="149" r="2" fill="rgba(148,163,184,0.11)"/>
  <circle cx="190" cy="209" r="2" fill="rgba(148,163,184,0.16)"/>
  <circle cx="155" cy="269" r="2" fill="rgba(148,163,184,0.19)"/>
  <circle cx="190" cy="329" r="2" fill="rgba(148,163,184,0.17)"/>
  <circle cx="155" cy="389" r="2" fill="rgba(148,163,184,0.18)"/>
  <circle cx="190" cy="449" r="2" fill="rgba(148,163,184,0.13)"/>
  <circle cx="155" cy="509" r="2" fill="rgba(148,163,184,0.20)"/>
  <circle cx="190" cy="569" r="2" fill="rgba(148,163,184,0.17)"/>
  <circle cx="155" cy="629" r="2" fill="rgba(148,163,184,0.13)"/>
  <circle cx="225" cy="29" r="2" fill="rgba(148,163,184,0.13)"/>
  <circle cx="260" cy="89" r="2" fill="rgba(148,163,184,0.11)"/>
  <circle cx="225" cy="149" r="2" fill="rgba(148,163,184,0.12)"/>
  <circle cx="260" cy="209" r="2" fill="rgba(148,163,184,0.17)"/>
  <circle cx="225" cy="269" r="2" fill="rgba(148,163,184,0.11)"/>
  <circle cx="260" cy="329" r="2" fill="rgba(148,163,184,0.12)"/>
  <circle cx="225" cy="389" r="2" fill="rgba(148,163,184,0.13)"/>
  <circle cx="260" cy="449" r="2" fill="rgba(148,163,184,0.11)"/>
  <circle cx="225" cy="509" r="2" fill="rgba(148,163,184,0.18)"/>
  <circle cx="260" cy="569" r="2" fill="rgba(148,163,184,0.09)"/>
  <circle cx="225" cy="629" r="2" fill="rgba(148,163,184,0.17)"/>
  <circle cx="295" cy="29" r="2" fill="rgba(148,163,184,0.10)"/>
  <circle cx="330" cy="89" r="2" fill="rgba(148,163,184,0.12)"/>
  <circle cx="295" cy="149" r="2" fill="rgba(148,163,184,0.21)"/>
  <circle cx="330" cy="209" r="2" fill="rgba(148,163,184,0.10)"/>
  <circle cx="295" cy="269" r="2" fill="rgba(148,163,184,0.22)"/>
  <circle cx="330" cy="329" r="2" fill="rgba(148,163,184,0.15)"/>
  <circle cx="295" cy="389" r="2" fill="rgba(148,163,184,0.14)"/>
  <circle cx="330" cy="449" r="2" fill="rgba(148,163,184,0.13)"/>
  <circle cx="295" cy="509" r="2" fill="rgba(148,163,184,0.12)"/>
  <circle cx="330" cy="569" r="2" fill="rgba(148,163,184,0.15)"/>
  <circle cx="295" cy="629" r="2" fill="rgba(148,163,184,0.13)"/>
  <circle cx="365" cy="29" r="2" fill="rgba(148,163,184,0.20)"/>
  <circle cx="400" cy="89" r="2" fill="rgba(148,163,184,0.18)"/>
  <circle cx="365" cy="149" r="2" fill="rgba(148,163,184,0.13)"/>
  <circle cx="400" cy="209" r="2" fill="rgba(148,163,184,0.08)"/>
  <circle cx="365" cy="269" r="2" fill="rgba(148,163,184,0.11)"/>
  <circle cx="400" cy="329" r="2" fill="rgba(148,163,184,0.19)"/>
  <circle cx="365" cy="389" r="2" fill="rgba(148,163,184,0.20)"/>
  <circle cx="400" cy="449" r="2" fill="rgba(148,163,184,0.20)"/>
  <circle cx="365" cy="509" r="2" fill="rgba(148,163,184,0.22)"/>
  <circle cx="400" cy="569" r="2" fill="rgba(148,163,184,0.19)"/>
  <circle cx="365" cy="629" r="2" fill="rgba(148,163,184,0.20)"/>
  <circle cx="435" cy="29" r="2" fill="rgba(148,163,184,0.15)"/>
  <circle cx="470" cy="89" r="2" fill="rgba(148,163,184,0.16)"/>
  <circle cx="435" cy="149" r="2" fill="rgba(148,163,184,0.17)"/>
  <circle cx="470" cy="209" r="2" fill="rgba(148,163,184,0.12)"/>
  <circle cx="435" cy="269" r="2" fill="rgba(148,163,184,0.18)"/>
  <circle cx="470" cy="329" r="2" fill="rgba(148,163,184,0.17)"/>
  <circle cx="435" cy="389" r="2" fill="rgba(148,163,184,0.15)"/>
  <circle cx="470" cy="449" r="2" fill="rgba(148,163,184,0.18)"/>
  <circle cx="435" cy="509" r="2" fill="rgba(148,163,184,0.11)"/>
  <circle cx="470" cy="569" r="2" fill="rgba(148,163,184,0.20)"/>
  <circle cx="435" cy="629" r="2" fill="rgba(148,163,184,0.12)"/>
  <circle cx="505" cy="29" r="2" fill="rgba(148,163,184,0.14)"/>
  <circle cx="540" cy="89" r="2" fill="rgba(148,163,184,0.12)"/>
  <circle cx="505" cy="149" r="2" fill="rgba(148,163,184,0.10)"/>
  <circle cx="540" cy="209" r="2" fill="rgba(148,163,184,0.20)"/>
  <circle cx="505" cy="269" r="2" fill="rgba(148,163,184,0.08)"/>
  <circle cx="540" cy="329" r="2" fill="rgba(148,163,184,0.16)"/>
  <circle cx="505" cy="389" r="2" fill="rgba(148,163,184,0.17)"/>
  <circle cx="540" cy="449" r="2" fill="rgba(148,163,184,0.17)"/>
  <circle cx="505" cy="509" r="2" fill="rgba(148,163,184,0.19)"/>
  <circle cx="540" cy="569" r="2" fill="rgba(148,163,184,0.16)"/>
  <circle cx="505" cy="629" r="2" fill="rgba(148,163,184,0.17)"/>
  <circle cx="575" cy="29" r="2" fill="rgba(148,163,184,0.17)"/>
  <circle cx="610" cy="89" r="2" fill="rgba(148,163,184,0.18)"/>
  <circle cx="575" cy="149" r="2" fill="rgba(148,163,184,0.20)"/>
  <circle cx="610" cy="209" r="2" fill="rgba(148,163,184,0.10)"/>
  <circle cx="575" cy="269" r="2" fill="rgba(148,163,184,0.22)"/>
  <circle cx="610" cy="329" r="2" fill="rgba(148,163,184,0.14)"/>
  <circle cx="575" cy="389" r="2" fill="rgba(148,163,184,0.12)"/>
  <circle cx="610" cy="449" r="2" fill="rgba(148,163,184,0.13)"/>
  <circle cx="575" cy="509" r="2" fill="rgba(148,163,184,0.11)"/>
  <circle cx="610" cy="569" r="2" fill="rgba(148,163,184,0.14)"/>
  <circle cx="575" cy="629" r="2" fill="rgba(148,163,184,0.13)"/>
  <circle cx="645" cy="29" r="2" fill="rgba(148,163,184,0.22)"/>
  <circle cx="680" cy="89" r="2" fill="rgba(148,163,184,0.08)"/>
  <circle cx="645" cy="149" r="2" fill="rgba(148,163,184,0.18)"/>
  <circle cx="680" cy="209" r="2" fill="rgba(148,163,184,0.14)"/>
  <circle cx="645" cy="269" r="2" fill="rgba(148,163,184,0.11)"/>
  <circle cx="680" cy="329" r="2" fill="rgba(148,163,184,0.12)"/>
  <circle cx="645" cy="389" r="2" fill="rgba(148,163,184,0.10)"/>
  <circle cx="680" cy="449" r="2" fill="rgba(148,163,184,0.17)"/>
  <circle cx="645" cy="509" r="2" fill="rgba(148,163,184,0.09)"/>
  <circle cx="680" cy="569" r="2" fill="rgba(148,163,184,0.12)"/>
  <circle cx="645" cy="629" r="2" fill="rgba(148,163,184,0.17)"/>
  <circle cx="715" cy="29" r="2" fill="rgba(148,163,184,0.20)"/>
  <circle cx="750" cy="89" r="2" fill="rgba(148,163,184,0.21)"/>
  <circle cx="715" cy="149" r="2" fill="rgba(148,163,184,0.08)"/>
  <circle cx="750" cy="209" r="2" fill="rgba(148,163,184,0.19)"/>
  <circle cx="715" cy="269" r="2" fill="rgba(148,163,184,0.10)"/>
  <circle cx="750" cy="329" r="2" fill="rgba(148,163,184,0.08)"/>
  <circle cx="715" cy="389" r="2" fill="rgba(148,163,184,0.21)"/>
  <circle cx="750" cy="449" r="2" fill="rgba(148,163,184,0.10)"/>
  <circle cx="715" cy="509" r="2" fill="rgba(148,163,184,0.17)"/>
  <circle cx="750" cy="569" r="2" fill="rgba(148,163,184,0.11)"/>
  <circle cx="715" cy="629" r="2" fill="rgba(148,163,184,0.19)"/>
  <circle cx="785" cy="29" r="2" fill="rgba(148,163,184,0.09)"/>
  <circle cx="820" cy="89" r="2" fill="rgba(148,163,184,0.11)"/>
  <circle cx="785" cy="149" r="2" fill="rgba(148,163,184,0.17)"/>
  <circle cx="820" cy="209" r="2" fill="rgba(148,163,184,0.18)"/>
  <circle cx="785" cy="269" r="2" fill="rgba(148,163,184,0.09)"/>
  <circle cx="820" cy="329" r="2" fill="rgba(148,163,184,0.17)"/>
  <circle cx="785" cy="389" r="2" fill="rgba(148,163,184,0.16)"/>
  <circle cx="820" cy="449" r="2" fill="rgba(148,163,184,0.09)"/>
  <circle cx="785" cy="509" r="2" fill="rgba(148,163,184,0.11)"/>
  <circle cx="820" cy="569" r="2" fill="rgba(148,163,184,0.20)"/>
  <circle cx="785" cy="629" r="2" fill="rgba(148,163,184,0.18)"/>
  <circle cx="855" cy="29" r="2" fill="rgba(148,163,184,0.19)"/>
  <circle cx="890" cy="89" r="2" fill="rgba(148,163,184,0.18)"/>
  <circle cx="855" cy="149" r="2" fill="rgba(148,163,184,0.18)"/>
  <circle cx="890" cy="209" r="2" fill="rgba(148,163,184,0.22)"/>
  <circle cx="855" cy="269" r="2" fill="rgba(148,163,184,0.10)"/>
  <circle cx="890" cy="329" r="2" fill="rgba(148,163,184,0.09)"/>
  <circle cx="855" cy="389" r="2" fill="rgba(148,163,184,0.11)"/>
  <circle cx="890" cy="449" r="2" fill="rgba(148,163,184,0.19)"/>
  <circle cx="855" cy="509" r="2" fill="rgba(148,163,184,0.12)"/>
  <circle cx="890" cy="569" r="2" fill="rgba(148,163,184,0.09)"/>
  <circle cx="855" cy="629" r="2" fill="rgba(148,163,184,0.19)"/>
  <circle cx="925" cy="29" r="2" fill="rgba(148,163,184,0.18)"/>
  <circle cx="960" cy="89" r="2" fill="rgba(148,163,184,0.20)"/>
  <circle cx="925" cy="149" r="2" fill="rgba(148,163,184,0.20)"/>
  <circle cx="960" cy="209" r="2" fill="rgba(148,163,184,0.15)"/>
  <circle cx="925" cy="269" r="2" fill="rgba(148,163,184,0.12)"/>
  <circle cx="960" cy="329" r="2" fill="rgba(148,163,184,0.14)"/>
  <circle cx="925" cy="389" r="2" fill="rgba(148,163,184,0.13)"/>
  <circle cx="960" cy="449" r="2" fill="rgba(148,163,184,0.18)"/>
  <circle cx="925" cy="509" r="2" fill="rgba(148,163,184,0.11)"/>
  <circle cx="960" cy="569" r="2" fill="rgba(148,163,184,0.14)"/>
  <circle cx="925" cy="629" r="2" fill="rgba(148,163,184,0.18)"/>
  <circle cx="995" cy="29" r="2" fill="rgba(148,163,184,0.11)"/>
  <circle cx="1030" cy="89" r="2" fill="rgba(148,163,184,0.09)"/>
  <circle cx="995" cy="149" r="2" fill="rgba(148,163,184,0.08)"/>
  <circle cx="1030" cy="209" r="2" fill="rgba(148,163,184,0.22)"/>
  <circle cx="995" cy="269" r="2" fill="rgba(148,163,184,0.16)"/>
  <circle cx="1030" cy="329" r="2" fill="rgba(148,163,184,0.08)"/>
  <circle cx="995" cy="389" r="2" fill="rgba(148,163,184,0.09)"/>
  <circle cx="1030" cy="449" r="2" fill="rgba(148,163,184,0.16)"/>
  <circle cx="995" cy="509" r="2" fill="rgba(148,163,184,0.14)"/>
  <circle cx="1030" cy="569" r="2" fill="rgba(148,163,184,0.20)"/>
  <circle cx="995" cy="629" r="2" fill="rgba(148,163,184,0.22)"/>
  <circle cx="1065" cy="29" r="2" fill="rgba(148,163,184,0.12)"/>
  <circle cx="1100" cy="89" r="2" fill="rgba(148,163,184,0.13)"/>
  <circle cx="1065" cy="149" r="2" fill="rgba(148,163,184,0.12)"/>
  <circle cx="1100" cy="209" r="2" fill="rgba(148,163,184,0.17)"/>
  <circle cx="1065" cy="269" r="2" fill="rgba(148,163,184,0.11)"/>
  <circle cx="1100" cy="329" r="2" fill="rgba(148,163,184,0.12)"/>
  <circle cx="1065" cy="389" r="2" fill="rgba(148,163,184,0.14)"/>
  <circle cx="1100" cy="449" r="2" fill="rgba(148,163,184,0.11)"/>
  <circle cx="1065" cy="509" r="2" fill="rgba(148,163,184,0.18)"/>
  <circle cx="1100" cy="569" r="2" fill="rgba(148,163,184,0.09)"/>
  <circle cx="1065" cy="629" r="2" fill="rgba(148,163,184,0.17)"/>
  <circle cx="1135" cy="29" r="2" fill="rgba(148,163,184,0.11)"/>
  <circle cx="1170" cy="89" r="2" fill="rgba(148,163,184,0.12)"/>
  <circle cx="1135" cy="149" r="2" fill="rgba(148,163,184,0.19)"/>
  <circle cx="1170" cy="209" r="2" fill="rgba(148,163,184,0.09)"/>
  <circle cx="1135" cy="269" r="2" fill="rgba(148,163,184,0.12)"/>
  <circle cx="1170" cy="329" r="2" fill="rgba(148,163,184,0.10)"/>
  <circle cx="1135" cy="389" r="2" fill="rgba(148,163,184,0.12)"/>
  <circle cx="1170" cy="449" r="2" fill="rgba(148,163,184,0.21)"/>
  <circle cx="1135" cy="509" r="2" fill="rgba(148,163,184,0.13)"/>
  <circle cx="1170" cy="569" r="2" fill="rgba(148,163,184,0.10)"/>
  <circle cx="1135" cy="629" r="2" fill="rgba(148,163,184,0.21)"/>

  <!-- Netwerklijnen -->
  <line x1="175" y1="115" x2="219" y2="238" stroke="rgba(96,165,250,0.06)" stroke-width="1"/>
  <line x1="219" y1="238" x2="915" y2="144" stroke="rgba(96,165,250,0.08)" stroke-width="1"/>
  <line x1="915" y1="144" x2="1088" y2="255" stroke="rgba(96,165,250,0.10)" stroke-width="1"/>
  <line x1="1088" y1="255" x2="207" y2="525" stroke="rgba(96,165,250,0.12)" stroke-width="1"/>
  <line x1="207" y1="525" x2="1055" y2="539" stroke="rgba(96,165,250,0.14)" stroke-width="1"/>
  <circle cx="175" cy="115" r="3" fill="rgba(96,165,250,0.25)"/>
  <circle cx="175" cy="115" r="8" fill="rgba(96,165,250,0.06)"/>
  <circle cx="219" cy="238" r="3" fill="rgba(96,165,250,0.25)"/>
  <circle cx="219" cy="238" r="8" fill="rgba(96,165,250,0.06)"/>
  <circle cx="915" cy="144" r="3" fill="rgba(96,165,250,0.25)"/>
  <circle cx="915" cy="144" r="8" fill="rgba(96,165,250,0.06)"/>
  <circle cx="1088" cy="255" r="3" fill="rgba(96,165,250,0.25)"/>
  <circle cx="1088" cy="255" r="8" fill="rgba(96,165,250,0.06)"/>
  <circle cx="207" cy="525" r="3" fill="rgba(96,165,250,0.25)"/>
  <circle cx="207" cy="525" r="8" fill="rgba(96,165,250,0.06)"/>
  <circle cx="1055" cy="539" r="3" fill="rgba(96,165,250,0.25)"/>
  <circle cx="1055" cy="539" r="8" fill="rgba(96,165,250,0.06)"/>

  <!-- Horizontale accentlijn -->
  <line x1="0" y1="1" x2="1200" y2="1" stroke="rgba(96,165,250,0.12)" stroke-width="1"/>
  <line x1="0" y1="629" x2="1200" y2="629" stroke="rgba(96,165,250,0.08)" stroke-width="1"/>

  <!-- Topic-illustratie (gecentreerd) -->
  <g transform="translate(0,0)">
        <circle cx="600" cy="270" r="80" fill="none" stroke="rgba(96,165,250,0.35)" stroke-width="2"/>
        <line x1="545" y1="215" x2="655" y2="325" stroke="rgba(96,165,250,0.4)" stroke-width="1.5"/>
        <circle cx="555" cy="250" r="18" fill="rgba(96,165,250,0.2)" stroke="rgba(96,165,250,0.4)" stroke-width="1.5"/>
        <circle cx="645" cy="290" r="18" fill="rgba(96,165,250,0.2)" stroke="rgba(96,165,250,0.4)" stroke-width="1.5"/>
        <text x="600" y="380" text-anchor="middle" font-family="sans-serif" font-size="20" fill="rgba(96,165,250,0.5)" font-weight="bold">€€€</text>
  </g>

  <!-- Categorie badge -->
  <rect x="32" y="570" width="72" height="26" rx="13" fill="rgba(96,165,250,0.2)"/>
       <text x="44" y="588" font-family="system-ui, sans-serif" font-size="12" font-weight="600" fill="rgba(148,163,184,0.9)" letter-spacing="0.05em">UITLEG</text>

  <!-- Subtiele vpnr.nl branding (rechtsonder) -->
  <text x="1168" y="614" font-family="system-ui, sans-serif" font-size="11" fill="rgba(100,116,139,0.5)" text-anchor="end" letter-spacing="0.04em">vpnr.nl</text>
</svg>