<svg xmlns="http://www.w3.org/2000/svg" viewBox="0 0 1200 630" width="1200" height="630">
  <defs>
    <linearGradient id="bg" x1="0%" y1="0%" x2="100%" y2="100%">
      <stop offset="0%" style="stop-color:hsl(237,70%,8%)"/>
      <stop offset="50%" style="stop-color:hsl(242,65%,12%)"/>
      <stop offset="100%" style="stop-color:hsl(257,60%,9%)"/>
    </linearGradient>
    <radialGradient id="glow" cx="50%" cy="45%" r="40%">
      <stop offset="0%" style="stop-color:hsl(242,80%,30%);stop-opacity:0.18"/>
      <stop offset="100%" style="stop-color:transparent;stop-opacity:0"/>
    </radialGradient>
    <radialGradient id="glow2" cx="20%" cy="20%" r="30%">
      <stop offset="0%" style="stop-color:hsl(237,70%,40%);stop-opacity:0.08"/>
      <stop offset="100%" style="stop-color:transparent;stop-opacity:0"/>
    </radialGradient>
    <filter id="blur"><feGaussianBlur stdDeviation="40"/></filter>
  </defs>

  <!-- Achtergrond -->
  <rect width="1200" height="630" fill="url(#bg)"/>
  <rect width="1200" height="630" fill="url(#glow)"/>
  <rect width="1200" height="630" fill="url(#glow2)"/>

  <!-- Stippenraster -->
  <circle cx="7" cy="24" r="2" fill="rgba(148,163,184,0.19)"/>
  <circle cx="42" cy="84" r="2" fill="rgba(148,163,184,0.22)"/>
  <circle cx="7" cy="144" r="2" fill="rgba(148,163,184,0.18)"/>
  <circle cx="42" cy="204" r="2" fill="rgba(148,163,184,0.14)"/>
  <circle cx="7" cy="264" r="2" fill="rgba(148,163,184,0.09)"/>
  <circle cx="42" cy="324" r="2" fill="rgba(148,163,184,0.17)"/>
  <circle cx="7" cy="384" r="2" fill="rgba(148,163,184,0.17)"/>
  <circle cx="42" cy="444" r="2" fill="rgba(148,163,184,0.11)"/>
  <circle cx="7" cy="504" r="2" fill="rgba(148,163,184,0.12)"/>
  <circle cx="42" cy="564" r="2" fill="rgba(148,163,184,0.17)"/>
  <circle cx="7" cy="624" r="2" fill="rgba(148,163,184,0.18)"/>
  <circle cx="77" cy="24" r="2" fill="rgba(148,163,184,0.15)"/>
  <circle cx="112" cy="84" r="2" fill="rgba(148,163,184,0.15)"/>
  <circle cx="77" cy="144" r="2" fill="rgba(148,163,184,0.08)"/>
  <circle cx="112" cy="204" r="2" fill="rgba(148,163,184,0.19)"/>
  <circle cx="77" cy="264" r="2" fill="rgba(148,163,184,0.14)"/>
  <circle cx="112" cy="324" r="2" fill="rgba(148,163,184,0.22)"/>
  <circle cx="77" cy="384" r="2" fill="rgba(148,163,184,0.10)"/>
  <circle cx="112" cy="444" r="2" fill="rgba(148,163,184,0.16)"/>
  <circle cx="77" cy="504" r="2" fill="rgba(148,163,184,0.17)"/>
  <circle cx="112" cy="564" r="2" fill="rgba(148,163,184,0.22)"/>
  <circle cx="77" cy="624" r="2" fill="rgba(148,163,184,0.08)"/>
  <circle cx="147" cy="24" r="2" fill="rgba(148,163,184,0.15)"/>
  <circle cx="182" cy="84" r="2" fill="rgba(148,163,184,0.18)"/>
  <circle cx="147" cy="144" r="2" fill="rgba(148,163,184,0.15)"/>
  <circle cx="182" cy="204" r="2" fill="rgba(148,163,184,0.22)"/>
  <circle cx="147" cy="264" r="2" fill="rgba(148,163,184,0.09)"/>
  <circle cx="182" cy="324" r="2" fill="rgba(148,163,184,0.22)"/>
  <circle cx="147" cy="384" r="2" fill="rgba(148,163,184,0.22)"/>
  <circle cx="182" cy="444" r="2" fill="rgba(148,163,184,0.16)"/>
  <circle cx="147" cy="504" r="2" fill="rgba(148,163,184,0.21)"/>
  <circle cx="182" cy="564" r="2" fill="rgba(148,163,184,0.19)"/>
  <circle cx="147" cy="624" r="2" fill="rgba(148,163,184,0.15)"/>
  <circle cx="217" cy="24" r="2" fill="rgba(148,163,184,0.08)"/>
  <circle cx="252" cy="84" r="2" fill="rgba(148,163,184,0.08)"/>
  <circle cx="217" cy="144" r="2" fill="rgba(148,163,184,0.12)"/>
  <circle cx="252" cy="204" r="2" fill="rgba(148,163,184,0.08)"/>
  <circle cx="217" cy="264" r="2" fill="rgba(148,163,184,0.21)"/>
  <circle cx="252" cy="324" r="2" fill="rgba(148,163,184,0.20)"/>
  <circle cx="217" cy="384" r="2" fill="rgba(148,163,184,0.17)"/>
  <circle cx="252" cy="444" r="2" fill="rgba(148,163,184,0.14)"/>
  <circle cx="217" cy="504" r="2" fill="rgba(148,163,184,0.21)"/>
  <circle cx="252" cy="564" r="2" fill="rgba(148,163,184,0.08)"/>
  <circle cx="217" cy="624" r="2" fill="rgba(148,163,184,0.15)"/>
  <circle cx="287" cy="24" r="2" fill="rgba(148,163,184,0.10)"/>
  <circle cx="322" cy="84" r="2" fill="rgba(148,163,184,0.22)"/>
  <circle cx="287" cy="144" r="2" fill="rgba(148,163,184,0.15)"/>
  <circle cx="322" cy="204" r="2" fill="rgba(148,163,184,0.17)"/>
  <circle cx="287" cy="264" r="2" fill="rgba(148,163,184,0.15)"/>
  <circle cx="322" cy="324" r="2" fill="rgba(148,163,184,0.08)"/>
  <circle cx="287" cy="384" r="2" fill="rgba(148,163,184,0.08)"/>
  <circle cx="322" cy="444" r="2" fill="rgba(148,163,184,0.08)"/>
  <circle cx="287" cy="504" r="2" fill="rgba(148,163,184,0.09)"/>
  <circle cx="322" cy="564" r="2" fill="rgba(148,163,184,0.11)"/>
  <circle cx="287" cy="624" r="2" fill="rgba(148,163,184,0.09)"/>
  <circle cx="357" cy="24" r="2" fill="rgba(148,163,184,0.13)"/>
  <circle cx="392" cy="84" r="2" fill="rgba(148,163,184,0.13)"/>
  <circle cx="357" cy="144" r="2" fill="rgba(148,163,184,0.12)"/>
  <circle cx="392" cy="204" r="2" fill="rgba(148,163,184,0.13)"/>
  <circle cx="357" cy="264" r="2" fill="rgba(148,163,184,0.18)"/>
  <circle cx="392" cy="324" r="2" fill="rgba(148,163,184,0.13)"/>
  <circle cx="357" cy="384" r="2" fill="rgba(148,163,184,0.10)"/>
  <circle cx="392" cy="444" r="2" fill="rgba(148,163,184,0.16)"/>
  <circle cx="357" cy="504" r="2" fill="rgba(148,163,184,0.18)"/>
  <circle cx="392" cy="564" r="2" fill="rgba(148,163,184,0.13)"/>
  <circle cx="357" cy="624" r="2" fill="rgba(148,163,184,0.09)"/>
  <circle cx="427" cy="24" r="2" fill="rgba(148,163,184,0.12)"/>
  <circle cx="462" cy="84" r="2" fill="rgba(148,163,184,0.12)"/>
  <circle cx="427" cy="144" r="2" fill="rgba(148,163,184,0.17)"/>
  <circle cx="462" cy="204" r="2" fill="rgba(148,163,184,0.12)"/>
  <circle cx="427" cy="264" r="2" fill="rgba(148,163,184,0.17)"/>
  <circle cx="462" cy="324" r="2" fill="rgba(148,163,184,0.18)"/>
  <circle cx="427" cy="384" r="2" fill="rgba(148,163,184,0.15)"/>
  <circle cx="462" cy="444" r="2" fill="rgba(148,163,184,0.15)"/>
  <circle cx="427" cy="504" r="2" fill="rgba(148,163,184,0.08)"/>
  <circle cx="462" cy="564" r="2" fill="rgba(148,163,184,0.18)"/>
  <circle cx="427" cy="624" r="2" fill="rgba(148,163,184,0.08)"/>
  <circle cx="497" cy="24" r="2" fill="rgba(148,163,184,0.22)"/>
  <circle cx="532" cy="84" r="2" fill="rgba(148,163,184,0.22)"/>
  <circle cx="497" cy="144" r="2" fill="rgba(148,163,184,0.14)"/>
  <circle cx="532" cy="204" r="2" fill="rgba(148,163,184,0.12)"/>
  <circle cx="497" cy="264" r="2" fill="rgba(148,163,184,0.14)"/>
  <circle cx="532" cy="324" r="2" fill="rgba(148,163,184,0.21)"/>
  <circle cx="497" cy="384" r="2" fill="rgba(148,163,184,0.09)"/>
  <circle cx="532" cy="444" r="2" fill="rgba(148,163,184,0.21)"/>
  <circle cx="497" cy="504" r="2" fill="rgba(148,163,184,0.20)"/>
  <circle cx="532" cy="564" r="2" fill="rgba(148,163,184,0.18)"/>
  <circle cx="497" cy="624" r="2" fill="rgba(148,163,184,0.20)"/>
  <circle cx="567" cy="24" r="2" fill="rgba(148,163,184,0.22)"/>
  <circle cx="602" cy="84" r="2" fill="rgba(148,163,184,0.22)"/>
  <circle cx="567" cy="144" r="2" fill="rgba(148,163,184,0.10)"/>
  <circle cx="602" cy="204" r="2" fill="rgba(148,163,184,0.15)"/>
  <circle cx="567" cy="264" r="2" fill="rgba(148,163,184,0.13)"/>
  <circle cx="602" cy="324" r="2" fill="rgba(148,163,184,0.18)"/>
  <circle cx="567" cy="384" r="2" fill="rgba(148,163,184,0.15)"/>
  <circle cx="602" cy="444" r="2" fill="rgba(148,163,184,0.21)"/>
  <circle cx="567" cy="504" r="2" fill="rgba(148,163,184,0.19)"/>
  <circle cx="602" cy="564" r="2" fill="rgba(148,163,184,0.21)"/>
  <circle cx="567" cy="624" r="2" fill="rgba(148,163,184,0.22)"/>
  <circle cx="637" cy="24" r="2" fill="rgba(148,163,184,0.13)"/>
  <circle cx="672" cy="84" r="2" fill="rgba(148,163,184,0.16)"/>
  <circle cx="637" cy="144" r="2" fill="rgba(148,163,184,0.11)"/>
  <circle cx="672" cy="204" r="2" fill="rgba(148,163,184,0.09)"/>
  <circle cx="637" cy="264" r="2" fill="rgba(148,163,184,0.11)"/>
  <circle cx="672" cy="324" r="2" fill="rgba(148,163,184,0.18)"/>
  <circle cx="637" cy="384" r="2" fill="rgba(148,163,184,0.18)"/>
  <circle cx="672" cy="444" r="2" fill="rgba(148,163,184,0.18)"/>
  <circle cx="637" cy="504" r="2" fill="rgba(148,163,184,0.17)"/>
  <circle cx="672" cy="564" r="2" fill="rgba(148,163,184,0.15)"/>
  <circle cx="637" cy="624" r="2" fill="rgba(148,163,184,0.17)"/>
  <circle cx="707" cy="24" r="2" fill="rgba(148,163,184,0.18)"/>
  <circle cx="742" cy="84" r="2" fill="rgba(148,163,184,0.18)"/>
  <circle cx="707" cy="144" r="2" fill="rgba(148,163,184,0.15)"/>
  <circle cx="742" cy="204" r="2" fill="rgba(148,163,184,0.13)"/>
  <circle cx="707" cy="264" r="2" fill="rgba(148,163,184,0.18)"/>
  <circle cx="742" cy="324" r="2" fill="rgba(148,163,184,0.16)"/>
  <circle cx="707" cy="384" r="2" fill="rgba(148,163,184,0.13)"/>
  <circle cx="742" cy="444" r="2" fill="rgba(148,163,184,0.16)"/>
  <circle cx="707" cy="504" r="2" fill="rgba(148,163,184,0.21)"/>
  <circle cx="742" cy="564" r="2" fill="rgba(148,163,184,0.16)"/>
  <circle cx="707" cy="624" r="2" fill="rgba(148,163,184,0.09)"/>
  <circle cx="777" cy="24" r="2" fill="rgba(148,163,184,0.20)"/>
  <circle cx="812" cy="84" r="2" fill="rgba(148,163,184,0.08)"/>
  <circle cx="777" cy="144" r="2" fill="rgba(148,163,184,0.19)"/>
  <circle cx="812" cy="204" r="2" fill="rgba(148,163,184,0.21)"/>
  <circle cx="777" cy="264" r="2" fill="rgba(148,163,184,0.16)"/>
  <circle cx="812" cy="324" r="2" fill="rgba(148,163,184,0.18)"/>
  <circle cx="777" cy="384" r="2" fill="rgba(148,163,184,0.18)"/>
  <circle cx="812" cy="444" r="2" fill="rgba(148,163,184,0.18)"/>
  <circle cx="777" cy="504" r="2" fill="rgba(148,163,184,0.13)"/>
  <circle cx="812" cy="564" r="2" fill="rgba(148,163,184,0.18)"/>
  <circle cx="777" cy="624" r="2" fill="rgba(148,163,184,0.10)"/>
  <circle cx="847" cy="24" r="2" fill="rgba(148,163,184,0.09)"/>
  <circle cx="882" cy="84" r="2" fill="rgba(148,163,184,0.09)"/>
  <circle cx="847" cy="144" r="2" fill="rgba(148,163,184,0.17)"/>
  <circle cx="882" cy="204" r="2" fill="rgba(148,163,184,0.21)"/>
  <circle cx="847" cy="264" r="2" fill="rgba(148,163,184,0.08)"/>
  <circle cx="882" cy="324" r="2" fill="rgba(148,163,184,0.09)"/>
  <circle cx="847" cy="384" r="2" fill="rgba(148,163,184,0.12)"/>
  <circle cx="882" cy="444" r="2" fill="rgba(148,163,184,0.15)"/>
  <circle cx="847" cy="504" r="2" fill="rgba(148,163,184,0.08)"/>
  <circle cx="882" cy="564" r="2" fill="rgba(148,163,184,0.21)"/>
  <circle cx="847" cy="624" r="2" fill="rgba(148,163,184,0.14)"/>
  <circle cx="917" cy="24" r="2" fill="rgba(148,163,184,0.20)"/>
  <circle cx="952" cy="84" r="2" fill="rgba(148,163,184,0.20)"/>
  <circle cx="917" cy="144" r="2" fill="rgba(148,163,184,0.19)"/>
  <circle cx="952" cy="204" r="2" fill="rgba(148,163,184,0.21)"/>
  <circle cx="917" cy="264" r="2" fill="rgba(148,163,184,0.16)"/>
  <circle cx="952" cy="324" r="2" fill="rgba(148,163,184,0.18)"/>
  <circle cx="917" cy="384" r="2" fill="rgba(148,163,184,0.21)"/>
  <circle cx="952" cy="444" r="2" fill="rgba(148,163,184,0.18)"/>
  <circle cx="917" cy="504" r="2" fill="rgba(148,163,184,0.13)"/>
  <circle cx="952" cy="564" r="2" fill="rgba(148,163,184,0.18)"/>
  <circle cx="917" cy="624" r="2" fill="rgba(148,163,184,0.10)"/>
  <circle cx="987" cy="24" r="2" fill="rgba(148,163,184,0.13)"/>
  <circle cx="1022" cy="84" r="2" fill="rgba(148,163,184,0.16)"/>
  <circle cx="987" cy="144" r="2" fill="rgba(148,163,184,0.13)"/>
  <circle cx="1022" cy="204" r="2" fill="rgba(148,163,184,0.12)"/>
  <circle cx="987" cy="264" r="2" fill="rgba(148,163,184,0.22)"/>
  <circle cx="1022" cy="324" r="2" fill="rgba(148,163,184,0.12)"/>
  <circle cx="987" cy="384" r="2" fill="rgba(148,163,184,0.12)"/>
  <circle cx="1022" cy="444" r="2" fill="rgba(148,163,184,0.09)"/>
  <circle cx="987" cy="504" r="2" fill="rgba(148,163,184,0.22)"/>
  <circle cx="1022" cy="564" r="2" fill="rgba(148,163,184,0.12)"/>
  <circle cx="987" cy="624" r="2" fill="rgba(148,163,184,0.16)"/>
  <circle cx="1057" cy="24" r="2" fill="rgba(148,163,184,0.16)"/>
  <circle cx="1092" cy="84" r="2" fill="rgba(148,163,184,0.13)"/>
  <circle cx="1057" cy="144" r="2" fill="rgba(148,163,184,0.12)"/>
  <circle cx="1092" cy="204" r="2" fill="rgba(148,163,184,0.08)"/>
  <circle cx="1057" cy="264" r="2" fill="rgba(148,163,184,0.21)"/>
  <circle cx="1092" cy="324" r="2" fill="rgba(148,163,184,0.20)"/>
  <circle cx="1057" cy="384" r="2" fill="rgba(148,163,184,0.20)"/>
  <circle cx="1092" cy="444" r="2" fill="rgba(148,163,184,0.14)"/>
  <circle cx="1057" cy="504" r="2" fill="rgba(148,163,184,0.21)"/>
  <circle cx="1092" cy="564" r="2" fill="rgba(148,163,184,0.08)"/>
  <circle cx="1057" cy="624" r="2" fill="rgba(148,163,184,0.15)"/>
  <circle cx="1127" cy="24" r="2" fill="rgba(148,163,184,0.08)"/>
  <circle cx="1162" cy="84" r="2" fill="rgba(148,163,184,0.08)"/>
  <circle cx="1127" cy="144" r="2" fill="rgba(148,163,184,0.22)"/>
  <circle cx="1162" cy="204" r="2" fill="rgba(148,163,184,0.14)"/>
  <circle cx="1127" cy="264" r="2" fill="rgba(148,163,184,0.16)"/>
  <circle cx="1162" cy="324" r="2" fill="rgba(148,163,184,0.14)"/>
  <circle cx="1127" cy="384" r="2" fill="rgba(148,163,184,0.17)"/>
  <circle cx="1162" cy="444" r="2" fill="rgba(148,163,184,0.08)"/>
  <circle cx="1127" cy="504" r="2" fill="rgba(148,163,184,0.13)"/>
  <circle cx="1162" cy="564" r="2" fill="rgba(148,163,184,0.11)"/>
  <circle cx="1127" cy="624" r="2" fill="rgba(148,163,184,0.22)"/>
  <circle cx="1197" cy="24" r="2" fill="rgba(148,163,184,0.18)"/>
  <circle cx="1232" cy="84" r="2" fill="rgba(148,163,184,0.18)"/>
  <circle cx="1197" cy="144" r="2" fill="rgba(148,163,184,0.13)"/>
  <circle cx="1232" cy="204" r="2" fill="rgba(148,163,184,0.14)"/>
  <circle cx="1197" cy="264" r="2" fill="rgba(148,163,184,0.19)"/>
  <circle cx="1232" cy="324" r="2" fill="rgba(148,163,184,0.14)"/>
  <circle cx="1197" cy="384" r="2" fill="rgba(148,163,184,0.11)"/>
  <circle cx="1232" cy="444" r="2" fill="rgba(148,163,184,0.17)"/>
  <circle cx="1197" cy="504" r="2" fill="rgba(148,163,184,0.19)"/>
  <circle cx="1232" cy="564" r="2" fill="rgba(148,163,184,0.14)"/>
  <circle cx="1197" cy="624" r="2" fill="rgba(148,163,184,0.10)"/>

  <!-- Netwerklijnen -->
  <line x1="167" y1="107" x2="268" y2="216" stroke="rgba(96,165,250,0.06)" stroke-width="1"/>
  <line x1="268" y1="216" x2="907" y2="132" stroke="rgba(96,165,250,0.08)" stroke-width="1"/>
  <line x1="907" y1="132" x2="1066" y2="247" stroke="rgba(96,165,250,0.10)" stroke-width="1"/>
  <line x1="1066" y1="247" x2="166" y2="517" stroke="rgba(96,165,250,0.12)" stroke-width="1"/>
  <line x1="166" y1="517" x2="1047" y2="528" stroke="rgba(96,165,250,0.14)" stroke-width="1"/>
  <circle cx="167" cy="107" r="3" fill="rgba(96,165,250,0.25)"/>
  <circle cx="167" cy="107" r="8" fill="rgba(96,165,250,0.06)"/>
  <circle cx="268" cy="216" r="3" fill="rgba(96,165,250,0.25)"/>
  <circle cx="268" cy="216" r="8" fill="rgba(96,165,250,0.06)"/>
  <circle cx="907" cy="132" r="3" fill="rgba(96,165,250,0.25)"/>
  <circle cx="907" cy="132" r="8" fill="rgba(96,165,250,0.06)"/>
  <circle cx="1066" cy="247" r="3" fill="rgba(96,165,250,0.25)"/>
  <circle cx="1066" cy="247" r="8" fill="rgba(96,165,250,0.06)"/>
  <circle cx="166" cy="517" r="3" fill="rgba(96,165,250,0.25)"/>
  <circle cx="166" cy="517" r="8" fill="rgba(96,165,250,0.06)"/>
  <circle cx="1047" cy="528" r="3" fill="rgba(96,165,250,0.25)"/>
  <circle cx="1047" cy="528" r="8" fill="rgba(96,165,250,0.06)"/>

  <!-- Horizontale accentlijn -->
  <line x1="0" y1="1" x2="1200" y2="1" stroke="rgba(96,165,250,0.12)" stroke-width="1"/>
  <line x1="0" y1="629" x2="1200" y2="629" stroke="rgba(96,165,250,0.08)" stroke-width="1"/>

  <!-- Topic-illustratie (gecentreerd) -->
  <g transform="translate(0,0)">
        <rect x="490" y="230" width="80" height="50" rx="8" fill="rgba(96,165,250,0.15)" stroke="rgba(96,165,250,0.4)" stroke-width="1.5"/>
        <rect x="630" y="230" width="80" height="50" rx="8" fill="rgba(96,165,250,0.15)" stroke="rgba(96,165,250,0.4)" stroke-width="1.5"/>
        <rect x="490" y="320" width="80" height="50" rx="8" fill="rgba(96,165,250,0.15)" stroke="rgba(96,165,250,0.4)" stroke-width="1.5"/>
        <rect x="630" y="320" width="80" height="50" rx="8" fill="rgba(96,165,250,0.15)" stroke="rgba(96,165,250,0.4)" stroke-width="1.5"/>
        <line x1="570" y1="255" x2="630" y2="255" stroke="rgba(96,165,250,0.5)" stroke-width="1.5"/>
        <line x1="530" y1="280" x2="530" y2="320" stroke="rgba(96,165,250,0.35)" stroke-width="1.5"/>
        <line x1="670" y1="280" x2="670" y2="320" stroke="rgba(96,165,250,0.35)" stroke-width="1.5"/>
        <line x1="570" y1="345" x2="630" y2="345" stroke="rgba(96,165,250,0.5)" stroke-width="1.5"/>
  </g>

  <!-- Categorie badge -->
  <rect x="32" y="570" width="72" height="26" rx="13" fill="rgba(96,165,250,0.2)"/>
       <text x="44" y="588" font-family="system-ui, sans-serif" font-size="12" font-weight="600" fill="rgba(148,163,184,0.9)" letter-spacing="0.05em">UITLEG</text>

  <!-- Subtiele vpnr.nl branding (rechtsonder) -->
  <text x="1168" y="614" font-family="system-ui, sans-serif" font-size="11" fill="rgba(100,116,139,0.5)" text-anchor="end" letter-spacing="0.04em">vpnr.nl</text>
</svg>