<svg xmlns="http://www.w3.org/2000/svg" viewBox="0 0 1200 630" width="1200" height="630">
  <defs>
    <linearGradient id="bg" x1="0%" y1="0%" x2="100%" y2="100%">
      <stop offset="0%" style="stop-color:hsl(223,70%,8%)"/>
      <stop offset="50%" style="stop-color:hsl(238,65%,12%)"/>
      <stop offset="100%" style="stop-color:hsl(263,60%,9%)"/>
    </linearGradient>
    <radialGradient id="glow" cx="50%" cy="45%" r="40%">
      <stop offset="0%" style="stop-color:hsl(238,80%,30%);stop-opacity:0.18"/>
      <stop offset="100%" style="stop-color:transparent;stop-opacity:0"/>
    </radialGradient>
    <radialGradient id="glow2" cx="20%" cy="20%" r="30%">
      <stop offset="0%" style="stop-color:hsl(223,70%,40%);stop-opacity:0.08"/>
      <stop offset="100%" style="stop-color:transparent;stop-opacity:0"/>
    </radialGradient>
    <filter id="blur"><feGaussianBlur stdDeviation="40"/></filter>
  </defs>

  <!-- Achtergrond -->
  <rect width="1200" height="630" fill="url(#bg)"/>
  <rect width="1200" height="630" fill="url(#glow)"/>
  <rect width="1200" height="630" fill="url(#glow2)"/>

  <!-- Stippenraster -->
  <circle cx="33" cy="20" r="2" fill="rgba(148,163,184,0.13)"/>
  <circle cx="68" cy="80" r="2" fill="rgba(148,163,184,0.13)"/>
  <circle cx="33" cy="140" r="2" fill="rgba(148,163,184,0.18)"/>
  <circle cx="68" cy="200" r="2" fill="rgba(148,163,184,0.12)"/>
  <circle cx="33" cy="260" r="2" fill="rgba(148,163,184,0.15)"/>
  <circle cx="68" cy="320" r="2" fill="rgba(148,163,184,0.09)"/>
  <circle cx="33" cy="380" r="2" fill="rgba(148,163,184,0.12)"/>
  <circle cx="68" cy="440" r="2" fill="rgba(148,163,184,0.09)"/>
  <circle cx="33" cy="500" r="2" fill="rgba(148,163,184,0.12)"/>
  <circle cx="68" cy="560" r="2" fill="rgba(148,163,184,0.09)"/>
  <circle cx="33" cy="620" r="2" fill="rgba(148,163,184,0.09)"/>
  <circle cx="103" cy="20" r="2" fill="rgba(148,163,184,0.16)"/>
  <circle cx="138" cy="80" r="2" fill="rgba(148,163,184,0.19)"/>
  <circle cx="103" cy="140" r="2" fill="rgba(148,163,184,0.20)"/>
  <circle cx="138" cy="200" r="2" fill="rgba(148,163,184,0.11)"/>
  <circle cx="103" cy="260" r="2" fill="rgba(148,163,184,0.20)"/>
  <circle cx="138" cy="320" r="2" fill="rgba(148,163,184,0.20)"/>
  <circle cx="103" cy="380" r="2" fill="rgba(148,163,184,0.20)"/>
  <circle cx="138" cy="440" r="2" fill="rgba(148,163,184,0.20)"/>
  <circle cx="103" cy="500" r="2" fill="rgba(148,163,184,0.11)"/>
  <circle cx="138" cy="560" r="2" fill="rgba(148,163,184,0.17)"/>
  <circle cx="103" cy="620" r="2" fill="rgba(148,163,184,0.11)"/>
  <circle cx="173" cy="20" r="2" fill="rgba(148,163,184,0.15)"/>
  <circle cx="208" cy="80" r="2" fill="rgba(148,163,184,0.15)"/>
  <circle cx="173" cy="140" r="2" fill="rgba(148,163,184,0.20)"/>
  <circle cx="208" cy="200" r="2" fill="rgba(148,163,184,0.14)"/>
  <circle cx="173" cy="260" r="2" fill="rgba(148,163,184,0.20)"/>
  <circle cx="208" cy="320" r="2" fill="rgba(148,163,184,0.20)"/>
  <circle cx="173" cy="380" r="2" fill="rgba(148,163,184,0.17)"/>
  <circle cx="208" cy="440" r="2" fill="rgba(148,163,184,0.20)"/>
  <circle cx="173" cy="500" r="2" fill="rgba(148,163,184,0.14)"/>
  <circle cx="208" cy="560" r="2" fill="rgba(148,163,184,0.08)"/>
  <circle cx="173" cy="620" r="2" fill="rgba(148,163,184,0.14)"/>
  <circle cx="243" cy="20" r="2" fill="rgba(148,163,184,0.19)"/>
  <circle cx="278" cy="80" r="2" fill="rgba(148,163,184,0.19)"/>
  <circle cx="243" cy="140" r="2" fill="rgba(148,163,184,0.21)"/>
  <circle cx="278" cy="200" r="2" fill="rgba(148,163,184,0.21)"/>
  <circle cx="243" cy="260" r="2" fill="rgba(148,163,184,0.12)"/>
  <circle cx="278" cy="320" r="2" fill="rgba(148,163,184,0.21)"/>
  <circle cx="243" cy="380" r="2" fill="rgba(148,163,184,0.18)"/>
  <circle cx="278" cy="440" r="2" fill="rgba(148,163,184,0.12)"/>
  <circle cx="243" cy="500" r="2" fill="rgba(148,163,184,0.15)"/>
  <circle cx="278" cy="560" r="2" fill="rgba(148,163,184,0.09)"/>
  <circle cx="243" cy="620" r="2" fill="rgba(148,163,184,0.21)"/>
  <circle cx="313" cy="20" r="2" fill="rgba(148,163,184,0.09)"/>
  <circle cx="348" cy="80" r="2" fill="rgba(148,163,184,0.09)"/>
  <circle cx="313" cy="140" r="2" fill="rgba(148,163,184,0.14)"/>
  <circle cx="348" cy="200" r="2" fill="rgba(148,163,184,0.17)"/>
  <circle cx="313" cy="260" r="2" fill="rgba(148,163,184,0.14)"/>
  <circle cx="348" cy="320" r="2" fill="rgba(148,163,184,0.08)"/>
  <circle cx="313" cy="380" r="2" fill="rgba(148,163,184,0.20)"/>
  <circle cx="348" cy="440" r="2" fill="rgba(148,163,184,0.20)"/>
  <circle cx="313" cy="500" r="2" fill="rgba(148,163,184,0.20)"/>
  <circle cx="348" cy="560" r="2" fill="rgba(148,163,184,0.08)"/>
  <circle cx="313" cy="620" r="2" fill="rgba(148,163,184,0.20)"/>
  <circle cx="383" cy="20" r="2" fill="rgba(148,163,184,0.19)"/>
  <circle cx="418" cy="80" r="2" fill="rgba(148,163,184,0.16)"/>
  <circle cx="383" cy="140" r="2" fill="rgba(148,163,184,0.20)"/>
  <circle cx="418" cy="200" r="2" fill="rgba(148,163,184,0.17)"/>
  <circle cx="383" cy="260" r="2" fill="rgba(148,163,184,0.14)"/>
  <circle cx="418" cy="320" r="2" fill="rgba(148,163,184,0.14)"/>
  <circle cx="383" cy="380" r="2" fill="rgba(148,163,184,0.14)"/>
  <circle cx="418" cy="440" r="2" fill="rgba(148,163,184,0.20)"/>
  <circle cx="383" cy="500" r="2" fill="rgba(148,163,184,0.11)"/>
  <circle cx="418" cy="560" r="2" fill="rgba(148,163,184,0.14)"/>
  <circle cx="383" cy="620" r="2" fill="rgba(148,163,184,0.20)"/>
  <circle cx="453" cy="20" r="2" fill="rgba(148,163,184,0.09)"/>
  <circle cx="488" cy="80" r="2" fill="rgba(148,163,184,0.12)"/>
  <circle cx="453" cy="140" r="2" fill="rgba(148,163,184,0.21)"/>
  <circle cx="488" cy="200" r="2" fill="rgba(148,163,184,0.21)"/>
  <circle cx="453" cy="260" r="2" fill="rgba(148,163,184,0.15)"/>
  <circle cx="488" cy="320" r="2" fill="rgba(148,163,184,0.21)"/>
  <circle cx="453" cy="380" r="2" fill="rgba(148,163,184,0.21)"/>
  <circle cx="488" cy="440" r="2" fill="rgba(148,163,184,0.15)"/>
  <circle cx="453" cy="500" r="2" fill="rgba(148,163,184,0.12)"/>
  <circle cx="488" cy="560" r="2" fill="rgba(148,163,184,0.18)"/>
  <circle cx="453" cy="620" r="2" fill="rgba(148,163,184,0.21)"/>
  <circle cx="523" cy="20" r="2" fill="rgba(148,163,184,0.10)"/>
  <circle cx="558" cy="80" r="2" fill="rgba(148,163,184,0.10)"/>
  <circle cx="523" cy="140" r="2" fill="rgba(148,163,184,0.11)"/>
  <circle cx="558" cy="200" r="2" fill="rgba(148,163,184,0.14)"/>
  <circle cx="523" cy="260" r="2" fill="rgba(148,163,184,0.20)"/>
  <circle cx="558" cy="320" r="2" fill="rgba(148,163,184,0.11)"/>
  <circle cx="523" cy="380" r="2" fill="rgba(148,163,184,0.08)"/>
  <circle cx="558" cy="440" r="2" fill="rgba(148,163,184,0.20)"/>
  <circle cx="523" cy="500" r="2" fill="rgba(148,163,184,0.20)"/>
  <circle cx="558" cy="560" r="2" fill="rgba(148,163,184,0.14)"/>
  <circle cx="523" cy="620" r="2" fill="rgba(148,163,184,0.14)"/>
  <circle cx="593" cy="20" r="2" fill="rgba(148,163,184,0.12)"/>
  <circle cx="628" cy="80" r="2" fill="rgba(148,163,184,0.12)"/>
  <circle cx="593" cy="140" r="2" fill="rgba(148,163,184,0.20)"/>
  <circle cx="628" cy="200" r="2" fill="rgba(148,163,184,0.08)"/>
  <circle cx="593" cy="260" r="2" fill="rgba(148,163,184,0.11)"/>
  <circle cx="628" cy="320" r="2" fill="rgba(148,163,184,0.11)"/>
  <circle cx="593" cy="380" r="2" fill="rgba(148,163,184,0.14)"/>
  <circle cx="628" cy="440" r="2" fill="rgba(148,163,184,0.20)"/>
  <circle cx="593" cy="500" r="2" fill="rgba(148,163,184,0.14)"/>
  <circle cx="628" cy="560" r="2" fill="rgba(148,163,184,0.11)"/>
  <circle cx="593" cy="620" r="2" fill="rgba(148,163,184,0.20)"/>
  <circle cx="663" cy="20" r="2" fill="rgba(148,163,184,0.22)"/>
  <circle cx="698" cy="80" r="2" fill="rgba(148,163,184,0.10)"/>
  <circle cx="663" cy="140" r="2" fill="rgba(148,163,184,0.09)"/>
  <circle cx="698" cy="200" r="2" fill="rgba(148,163,184,0.12)"/>
  <circle cx="663" cy="260" r="2" fill="rgba(148,163,184,0.21)"/>
  <circle cx="698" cy="320" r="2" fill="rgba(148,163,184,0.09)"/>
  <circle cx="663" cy="380" r="2" fill="rgba(148,163,184,0.09)"/>
  <circle cx="698" cy="440" r="2" fill="rgba(148,163,184,0.21)"/>
  <circle cx="663" cy="500" r="2" fill="rgba(148,163,184,0.15)"/>
  <circle cx="698" cy="560" r="2" fill="rgba(148,163,184,0.21)"/>
  <circle cx="663" cy="620" r="2" fill="rgba(148,163,184,0.12)"/>
  <circle cx="733" cy="20" r="2" fill="rgba(148,163,184,0.18)"/>
  <circle cx="768" cy="80" r="2" fill="rgba(148,163,184,0.21)"/>
  <circle cx="733" cy="140" r="2" fill="rgba(148,163,184,0.17)"/>
  <circle cx="768" cy="200" r="2" fill="rgba(148,163,184,0.20)"/>
  <circle cx="733" cy="260" r="2" fill="rgba(148,163,184,0.08)"/>
  <circle cx="768" cy="320" r="2" fill="rgba(148,163,184,0.08)"/>
  <circle cx="733" cy="380" r="2" fill="rgba(148,163,184,0.08)"/>
  <circle cx="768" cy="440" r="2" fill="rgba(148,163,184,0.17)"/>
  <circle cx="733" cy="500" r="2" fill="rgba(148,163,184,0.11)"/>
  <circle cx="768" cy="560" r="2" fill="rgba(148,163,184,0.08)"/>
  <circle cx="733" cy="620" r="2" fill="rgba(148,163,184,0.17)"/>
  <circle cx="803" cy="20" r="2" fill="rgba(148,163,184,0.22)"/>
  <circle cx="838" cy="80" r="2" fill="rgba(148,163,184,0.22)"/>
  <circle cx="803" cy="140" r="2" fill="rgba(148,163,184,0.09)"/>
  <circle cx="838" cy="200" r="2" fill="rgba(148,163,184,0.12)"/>
  <circle cx="803" cy="260" r="2" fill="rgba(148,163,184,0.21)"/>
  <circle cx="838" cy="320" r="2" fill="rgba(148,163,184,0.09)"/>
  <circle cx="803" cy="380" r="2" fill="rgba(148,163,184,0.12)"/>
  <circle cx="838" cy="440" r="2" fill="rgba(148,163,184,0.21)"/>
  <circle cx="803" cy="500" r="2" fill="rgba(148,163,184,0.15)"/>
  <circle cx="838" cy="560" r="2" fill="rgba(148,163,184,0.21)"/>
  <circle cx="803" cy="620" r="2" fill="rgba(148,163,184,0.12)"/>
  <circle cx="873" cy="20" r="2" fill="rgba(148,163,184,0.09)"/>
  <circle cx="908" cy="80" r="2" fill="rgba(148,163,184,0.21)"/>
  <circle cx="873" cy="140" r="2" fill="rgba(148,163,184,0.09)"/>
  <circle cx="908" cy="200" r="2" fill="rgba(148,163,184,0.21)"/>
  <circle cx="873" cy="260" r="2" fill="rgba(148,163,184,0.12)"/>
  <circle cx="908" cy="320" r="2" fill="rgba(148,163,184,0.09)"/>
  <circle cx="873" cy="380" r="2" fill="rgba(148,163,184,0.09)"/>
  <circle cx="908" cy="440" r="2" fill="rgba(148,163,184,0.12)"/>
  <circle cx="873" cy="500" r="2" fill="rgba(148,163,184,0.18)"/>
  <circle cx="908" cy="560" r="2" fill="rgba(148,163,184,0.12)"/>
  <circle cx="873" cy="620" r="2" fill="rgba(148,163,184,0.21)"/>
  <circle cx="943" cy="20" r="2" fill="rgba(148,163,184,0.22)"/>
  <circle cx="978" cy="80" r="2" fill="rgba(148,163,184,0.22)"/>
  <circle cx="943" cy="140" r="2" fill="rgba(148,163,184,0.11)"/>
  <circle cx="978" cy="200" r="2" fill="rgba(148,163,184,0.08)"/>
  <circle cx="943" cy="260" r="2" fill="rgba(148,163,184,0.11)"/>
  <circle cx="978" cy="320" r="2" fill="rgba(148,163,184,0.17)"/>
  <circle cx="943" cy="380" r="2" fill="rgba(148,163,184,0.20)"/>
  <circle cx="978" cy="440" r="2" fill="rgba(148,163,184,0.20)"/>
  <circle cx="943" cy="500" r="2" fill="rgba(148,163,184,0.20)"/>
  <circle cx="978" cy="560" r="2" fill="rgba(148,163,184,0.17)"/>
  <circle cx="943" cy="620" r="2" fill="rgba(148,163,184,0.20)"/>
  <circle cx="1013" cy="20" r="2" fill="rgba(148,163,184,0.20)"/>
  <circle cx="1048" cy="80" r="2" fill="rgba(148,163,184,0.17)"/>
  <circle cx="1013" cy="140" r="2" fill="rgba(148,163,184,0.11)"/>
  <circle cx="1048" cy="200" r="2" fill="rgba(148,163,184,0.14)"/>
  <circle cx="1013" cy="260" r="2" fill="rgba(148,163,184,0.08)"/>
  <circle cx="1048" cy="320" r="2" fill="rgba(148,163,184,0.11)"/>
  <circle cx="1013" cy="380" r="2" fill="rgba(148,163,184,0.11)"/>
  <circle cx="1048" cy="440" r="2" fill="rgba(148,163,184,0.08)"/>
  <circle cx="1013" cy="500" r="2" fill="rgba(148,163,184,0.17)"/>
  <circle cx="1048" cy="560" r="2" fill="rgba(148,163,184,0.08)"/>
  <circle cx="1013" cy="620" r="2" fill="rgba(148,163,184,0.14)"/>
  <circle cx="1083" cy="20" r="2" fill="rgba(148,163,184,0.15)"/>
  <circle cx="1118" cy="80" r="2" fill="rgba(148,163,184,0.15)"/>
  <circle cx="1083" cy="140" r="2" fill="rgba(148,163,184,0.14)"/>
  <circle cx="1118" cy="200" r="2" fill="rgba(148,163,184,0.14)"/>
  <circle cx="1083" cy="260" r="2" fill="rgba(148,163,184,0.08)"/>
  <circle cx="1118" cy="320" r="2" fill="rgba(148,163,184,0.14)"/>
  <circle cx="1083" cy="380" r="2" fill="rgba(148,163,184,0.17)"/>
  <circle cx="1118" cy="440" r="2" fill="rgba(148,163,184,0.08)"/>
  <circle cx="1083" cy="500" r="2" fill="rgba(148,163,184,0.20)"/>
  <circle cx="1118" cy="560" r="2" fill="rgba(148,163,184,0.11)"/>
  <circle cx="1083" cy="620" r="2" fill="rgba(148,163,184,0.14)"/>
  <circle cx="1153" cy="20" r="2" fill="rgba(148,163,184,0.08)"/>
  <circle cx="1188" cy="80" r="2" fill="rgba(148,163,184,0.20)"/>
  <circle cx="1153" cy="140" r="2" fill="rgba(148,163,184,0.22)"/>
  <circle cx="1188" cy="200" r="2" fill="rgba(148,163,184,0.19)"/>
  <circle cx="1153" cy="260" r="2" fill="rgba(148,163,184,0.22)"/>
  <circle cx="1188" cy="320" r="2" fill="rgba(148,163,184,0.13)"/>
  <circle cx="1153" cy="380" r="2" fill="rgba(148,163,184,0.13)"/>
  <circle cx="1188" cy="440" r="2" fill="rgba(148,163,184,0.16)"/>
  <circle cx="1153" cy="500" r="2" fill="rgba(148,163,184,0.16)"/>
  <circle cx="1188" cy="560" r="2" fill="rgba(148,163,184,0.13)"/>
  <circle cx="1153" cy="620" r="2" fill="rgba(148,163,184,0.16)"/>

  <!-- Netwerklijnen -->
  <line x1="113" y1="133" x2="241" y2="203" stroke="rgba(96,165,250,0.06)" stroke-width="1"/>
  <line x1="241" y1="203" x2="933" y2="110" stroke="rgba(96,165,250,0.08)" stroke-width="1"/>
  <line x1="933" y1="110" x2="1053" y2="233" stroke="rgba(96,165,250,0.10)" stroke-width="1"/>
  <line x1="1053" y1="233" x2="175" y2="463" stroke="rgba(96,165,250,0.12)" stroke-width="1"/>
  <line x1="175" y1="463" x2="1033" y2="521" stroke="rgba(96,165,250,0.14)" stroke-width="1"/>
  <circle cx="113" cy="133" r="3" fill="rgba(96,165,250,0.25)"/>
  <circle cx="113" cy="133" r="8" fill="rgba(96,165,250,0.06)"/>
  <circle cx="241" cy="203" r="3" fill="rgba(96,165,250,0.25)"/>
  <circle cx="241" cy="203" r="8" fill="rgba(96,165,250,0.06)"/>
  <circle cx="933" cy="110" r="3" fill="rgba(96,165,250,0.25)"/>
  <circle cx="933" cy="110" r="8" fill="rgba(96,165,250,0.06)"/>
  <circle cx="1053" cy="233" r="3" fill="rgba(96,165,250,0.25)"/>
  <circle cx="1053" cy="233" r="8" fill="rgba(96,165,250,0.06)"/>
  <circle cx="175" cy="463" r="3" fill="rgba(96,165,250,0.25)"/>
  <circle cx="175" cy="463" r="8" fill="rgba(96,165,250,0.06)"/>
  <circle cx="1033" cy="521" r="3" fill="rgba(96,165,250,0.25)"/>
  <circle cx="1033" cy="521" r="8" fill="rgba(96,165,250,0.06)"/>

  <!-- Horizontale accentlijn -->
  <line x1="0" y1="1" x2="1200" y2="1" stroke="rgba(96,165,250,0.12)" stroke-width="1"/>
  <line x1="0" y1="629" x2="1200" y2="629" stroke="rgba(96,165,250,0.08)" stroke-width="1"/>

  <!-- Topic-illustratie (gecentreerd) -->
  <g transform="translate(0,0)">
        <circle cx="600" cy="280" r="120" fill="none" stroke="rgba(96,165,250,0.25)" stroke-width="2"/>
        <circle cx="600" cy="280" r="80" fill="none" stroke="rgba(96,165,250,0.35)" stroke-width="1.5"/>
        <polygon points="570,240 570,320 650,280" fill="rgba(96,165,250,0.7)"/>
        <rect x="540" y="370" width="120" height="8" rx="4" fill="rgba(96,165,250,0.3)"/>
        <rect x="540" y="386" width="80" height="6" rx="3" fill="rgba(96,165,250,0.2)"/>
  </g>

  <!-- Categorie badge -->
  <rect x="32" y="570" width="56" height="26" rx="13" fill="rgba(96,165,250,0.2)"/>
       <text x="44" y="588" font-family="system-ui, sans-serif" font-size="12" font-weight="600" fill="rgba(148,163,184,0.9)" letter-spacing="0.05em">TIPS</text>

  <!-- Subtiele vpnr.nl branding (rechtsonder) -->
  <text x="1168" y="614" font-family="system-ui, sans-serif" font-size="11" fill="rgba(100,116,139,0.5)" text-anchor="end" letter-spacing="0.04em">vpnr.nl</text>
</svg>