<svg xmlns="http://www.w3.org/2000/svg" viewBox="0 0 1200 630" width="1200" height="630">
  <defs>
    <linearGradient id="bg" x1="0%" y1="0%" x2="100%" y2="100%">
      <stop offset="0%" style="stop-color:hsl(234,70%,8%)"/>
      <stop offset="50%" style="stop-color:hsl(244,65%,12%)"/>
      <stop offset="100%" style="stop-color:hsl(269,60%,9%)"/>
    </linearGradient>
    <radialGradient id="glow" cx="50%" cy="45%" r="40%">
      <stop offset="0%" style="stop-color:hsl(244,80%,30%);stop-opacity:0.18"/>
      <stop offset="100%" style="stop-color:transparent;stop-opacity:0"/>
    </radialGradient>
    <radialGradient id="glow2" cx="20%" cy="20%" r="30%">
      <stop offset="0%" style="stop-color:hsl(234,70%,40%);stop-opacity:0.08"/>
      <stop offset="100%" style="stop-color:transparent;stop-opacity:0"/>
    </radialGradient>
    <filter id="blur"><feGaussianBlur stdDeviation="40"/></filter>
  </defs>

  <!-- Achtergrond -->
  <rect width="1200" height="630" fill="url(#bg)"/>
  <rect width="1200" height="630" fill="url(#glow)"/>
  <rect width="1200" height="630" fill="url(#glow2)"/>

  <!-- Stippenraster -->
  <circle cx="39" cy="28" r="2" fill="rgba(148,163,184,0.18)"/>
  <circle cx="74" cy="88" r="2" fill="rgba(148,163,184,0.16)"/>
  <circle cx="39" cy="148" r="2" fill="rgba(148,163,184,0.12)"/>
  <circle cx="74" cy="208" r="2" fill="rgba(148,163,184,0.18)"/>
  <circle cx="39" cy="268" r="2" fill="rgba(148,163,184,0.12)"/>
  <circle cx="74" cy="328" r="2" fill="rgba(148,163,184,0.12)"/>
  <circle cx="39" cy="388" r="2" fill="rgba(148,163,184,0.13)"/>
  <circle cx="74" cy="448" r="2" fill="rgba(148,163,184,0.12)"/>
  <circle cx="39" cy="508" r="2" fill="rgba(148,163,184,0.18)"/>
  <circle cx="74" cy="568" r="2" fill="rgba(148,163,184,0.09)"/>
  <circle cx="39" cy="628" r="2" fill="rgba(148,163,184,0.18)"/>
  <circle cx="109" cy="28" r="2" fill="rgba(148,163,184,0.10)"/>
  <circle cx="144" cy="88" r="2" fill="rgba(148,163,184,0.11)"/>
  <circle cx="109" cy="148" r="2" fill="rgba(148,163,184,0.11)"/>
  <circle cx="144" cy="208" r="2" fill="rgba(148,163,184,0.17)"/>
  <circle cx="109" cy="268" r="2" fill="rgba(148,163,184,0.14)"/>
  <circle cx="144" cy="328" r="2" fill="rgba(148,163,184,0.20)"/>
  <circle cx="109" cy="388" r="2" fill="rgba(148,163,184,0.18)"/>
  <circle cx="144" cy="448" r="2" fill="rgba(148,163,184,0.20)"/>
  <circle cx="109" cy="508" r="2" fill="rgba(148,163,184,0.17)"/>
  <circle cx="144" cy="568" r="2" fill="rgba(148,163,184,0.20)"/>
  <circle cx="109" cy="628" r="2" fill="rgba(148,163,184,0.20)"/>
  <circle cx="179" cy="28" r="2" fill="rgba(148,163,184,0.18)"/>
  <circle cx="214" cy="88" r="2" fill="rgba(148,163,184,0.16)"/>
  <circle cx="179" cy="148" r="2" fill="rgba(148,163,184,0.17)"/>
  <circle cx="214" cy="208" r="2" fill="rgba(148,163,184,0.11)"/>
  <circle cx="179" cy="268" r="2" fill="rgba(148,163,184,0.14)"/>
  <circle cx="214" cy="328" r="2" fill="rgba(148,163,184,0.08)"/>
  <circle cx="179" cy="388" r="2" fill="rgba(148,163,184,0.09)"/>
  <circle cx="214" cy="448" r="2" fill="rgba(148,163,184,0.08)"/>
  <circle cx="179" cy="508" r="2" fill="rgba(148,163,184,0.11)"/>
  <circle cx="214" cy="568" r="2" fill="rgba(148,163,184,0.08)"/>
  <circle cx="179" cy="628" r="2" fill="rgba(148,163,184,0.08)"/>
  <circle cx="249" cy="28" r="2" fill="rgba(148,163,184,0.16)"/>
  <circle cx="284" cy="88" r="2" fill="rgba(148,163,184,0.14)"/>
  <circle cx="249" cy="148" r="2" fill="rgba(148,163,184,0.13)"/>
  <circle cx="284" cy="208" r="2" fill="rgba(148,163,184,0.16)"/>
  <circle cx="249" cy="268" r="2" fill="rgba(148,163,184,0.19)"/>
  <circle cx="284" cy="328" r="2" fill="rgba(148,163,184,0.19)"/>
  <circle cx="249" cy="388" r="2" fill="rgba(148,163,184,0.20)"/>
  <circle cx="284" cy="448" r="2" fill="rgba(148,163,184,0.13)"/>
  <circle cx="249" cy="508" r="2" fill="rgba(148,163,184,0.22)"/>
  <circle cx="284" cy="568" r="2" fill="rgba(148,163,184,0.19)"/>
  <circle cx="249" cy="628" r="2" fill="rgba(148,163,184,0.13)"/>
  <circle cx="319" cy="28" r="2" fill="rgba(148,163,184,0.09)"/>
  <circle cx="354" cy="88" r="2" fill="rgba(148,163,184,0.22)"/>
  <circle cx="319" cy="148" r="2" fill="rgba(148,163,184,0.11)"/>
  <circle cx="354" cy="208" r="2" fill="rgba(148,163,184,0.14)"/>
  <circle cx="319" cy="268" r="2" fill="rgba(148,163,184,0.08)"/>
  <circle cx="354" cy="328" r="2" fill="rgba(148,163,184,0.11)"/>
  <circle cx="319" cy="388" r="2" fill="rgba(148,163,184,0.12)"/>
  <circle cx="354" cy="448" r="2" fill="rgba(148,163,184,0.08)"/>
  <circle cx="319" cy="508" r="2" fill="rgba(148,163,184,0.17)"/>
  <circle cx="354" cy="568" r="2" fill="rgba(148,163,184,0.08)"/>
  <circle cx="319" cy="628" r="2" fill="rgba(148,163,184,0.14)"/>
  <circle cx="389" cy="28" r="2" fill="rgba(148,163,184,0.08)"/>
  <circle cx="424" cy="88" r="2" fill="rgba(148,163,184,0.22)"/>
  <circle cx="389" cy="148" r="2" fill="rgba(148,163,184,0.09)"/>
  <circle cx="424" cy="208" r="2" fill="rgba(148,163,184,0.09)"/>
  <circle cx="389" cy="268" r="2" fill="rgba(148,163,184,0.18)"/>
  <circle cx="424" cy="328" r="2" fill="rgba(148,163,184,0.09)"/>
  <circle cx="389" cy="388" r="2" fill="rgba(148,163,184,0.11)"/>
  <circle cx="424" cy="448" r="2" fill="rgba(148,163,184,0.18)"/>
  <circle cx="389" cy="508" r="2" fill="rgba(148,163,184,0.15)"/>
  <circle cx="424" cy="568" r="2" fill="rgba(148,163,184,0.21)"/>
  <circle cx="389" cy="628" r="2" fill="rgba(148,163,184,0.09)"/>
  <circle cx="459" cy="28" r="2" fill="rgba(148,163,184,0.09)"/>
  <circle cx="494" cy="88" r="2" fill="rgba(148,163,184,0.10)"/>
  <circle cx="459" cy="148" r="2" fill="rgba(148,163,184,0.13)"/>
  <circle cx="494" cy="208" r="2" fill="rgba(148,163,184,0.10)"/>
  <circle cx="459" cy="268" r="2" fill="rgba(148,163,184,0.22)"/>
  <circle cx="494" cy="328" r="2" fill="rgba(148,163,184,0.22)"/>
  <circle cx="459" cy="388" r="2" fill="rgba(148,163,184,0.20)"/>
  <circle cx="494" cy="448" r="2" fill="rgba(148,163,184,0.13)"/>
  <circle cx="459" cy="508" r="2" fill="rgba(148,163,184,0.19)"/>
  <circle cx="494" cy="568" r="2" fill="rgba(148,163,184,0.22)"/>
  <circle cx="459" cy="628" r="2" fill="rgba(148,163,184,0.13)"/>
  <circle cx="529" cy="28" r="2" fill="rgba(148,163,184,0.13)"/>
  <circle cx="564" cy="88" r="2" fill="rgba(148,163,184,0.11)"/>
  <circle cx="529" cy="148" r="2" fill="rgba(148,163,184,0.20)"/>
  <circle cx="564" cy="208" r="2" fill="rgba(148,163,184,0.11)"/>
  <circle cx="529" cy="268" r="2" fill="rgba(148,163,184,0.14)"/>
  <circle cx="564" cy="328" r="2" fill="rgba(148,163,184,0.11)"/>
  <circle cx="529" cy="388" r="2" fill="rgba(148,163,184,0.12)"/>
  <circle cx="564" cy="448" r="2" fill="rgba(148,163,184,0.08)"/>
  <circle cx="529" cy="508" r="2" fill="rgba(148,163,184,0.14)"/>
  <circle cx="564" cy="568" r="2" fill="rgba(148,163,184,0.11)"/>
  <circle cx="529" cy="628" r="2" fill="rgba(148,163,184,0.08)"/>
  <circle cx="599" cy="28" r="2" fill="rgba(148,163,184,0.13)"/>
  <circle cx="634" cy="88" r="2" fill="rgba(148,163,184,0.15)"/>
  <circle cx="599" cy="148" r="2" fill="rgba(148,163,184,0.09)"/>
  <circle cx="634" cy="208" r="2" fill="rgba(148,163,184,0.09)"/>
  <circle cx="599" cy="268" r="2" fill="rgba(148,163,184,0.15)"/>
  <circle cx="634" cy="328" r="2" fill="rgba(148,163,184,0.09)"/>
  <circle cx="599" cy="388" r="2" fill="rgba(148,163,184,0.08)"/>
  <circle cx="634" cy="448" r="2" fill="rgba(148,163,184,0.15)"/>
  <circle cx="599" cy="508" r="2" fill="rgba(148,163,184,0.18)"/>
  <circle cx="634" cy="568" r="2" fill="rgba(148,163,184,0.12)"/>
  <circle cx="599" cy="628" r="2" fill="rgba(148,163,184,0.09)"/>
  <circle cx="669" cy="28" r="2" fill="rgba(148,163,184,0.16)"/>
  <circle cx="704" cy="88" r="2" fill="rgba(148,163,184,0.17)"/>
  <circle cx="669" cy="148" r="2" fill="rgba(148,163,184,0.13)"/>
  <circle cx="704" cy="208" r="2" fill="rgba(148,163,184,0.16)"/>
  <circle cx="669" cy="268" r="2" fill="rgba(148,163,184,0.13)"/>
  <circle cx="704" cy="328" r="2" fill="rgba(148,163,184,0.22)"/>
  <circle cx="669" cy="388" r="2" fill="rgba(148,163,184,0.20)"/>
  <circle cx="704" cy="448" r="2" fill="rgba(148,163,184,0.19)"/>
  <circle cx="669" cy="508" r="2" fill="rgba(148,163,184,0.19)"/>
  <circle cx="704" cy="568" r="2" fill="rgba(148,163,184,0.22)"/>
  <circle cx="669" cy="628" r="2" fill="rgba(148,163,184,0.19)"/>
  <circle cx="739" cy="28" r="2" fill="rgba(148,163,184,0.18)"/>
  <circle cx="774" cy="88" r="2" fill="rgba(148,163,184,0.19)"/>
  <circle cx="739" cy="148" r="2" fill="rgba(148,163,184,0.11)"/>
  <circle cx="774" cy="208" r="2" fill="rgba(148,163,184,0.11)"/>
  <circle cx="739" cy="268" r="2" fill="rgba(148,163,184,0.17)"/>
  <circle cx="774" cy="328" r="2" fill="rgba(148,163,184,0.11)"/>
  <circle cx="739" cy="388" r="2" fill="rgba(148,163,184,0.09)"/>
  <circle cx="774" cy="448" r="2" fill="rgba(148,163,184,0.17)"/>
  <circle cx="739" cy="508" r="2" fill="rgba(148,163,184,0.20)"/>
  <circle cx="774" cy="568" r="2" fill="rgba(148,163,184,0.14)"/>
  <circle cx="739" cy="628" r="2" fill="rgba(148,163,184,0.11)"/>
  <circle cx="809" cy="28" r="2" fill="rgba(148,163,184,0.14)"/>
  <circle cx="844" cy="88" r="2" fill="rgba(148,163,184,0.16)"/>
  <circle cx="809" cy="148" r="2" fill="rgba(148,163,184,0.12)"/>
  <circle cx="844" cy="208" r="2" fill="rgba(148,163,184,0.09)"/>
  <circle cx="809" cy="268" r="2" fill="rgba(148,163,184,0.12)"/>
  <circle cx="844" cy="328" r="2" fill="rgba(148,163,184,0.18)"/>
  <circle cx="809" cy="388" r="2" fill="rgba(148,163,184,0.19)"/>
  <circle cx="844" cy="448" r="2" fill="rgba(148,163,184,0.21)"/>
  <circle cx="809" cy="508" r="2" fill="rgba(148,163,184,0.21)"/>
  <circle cx="844" cy="568" r="2" fill="rgba(148,163,184,0.18)"/>
  <circle cx="809" cy="628" r="2" fill="rgba(148,163,184,0.21)"/>
  <circle cx="879" cy="28" r="2" fill="rgba(148,163,184,0.19)"/>
  <circle cx="914" cy="88" r="2" fill="rgba(148,163,184,0.18)"/>
  <circle cx="879" cy="148" r="2" fill="rgba(148,163,184,0.21)"/>
  <circle cx="914" cy="208" r="2" fill="rgba(148,163,184,0.09)"/>
  <circle cx="879" cy="268" r="2" fill="rgba(148,163,184,0.21)"/>
  <circle cx="914" cy="328" r="2" fill="rgba(148,163,184,0.15)"/>
  <circle cx="879" cy="388" r="2" fill="rgba(148,163,184,0.13)"/>
  <circle cx="914" cy="448" r="2" fill="rgba(148,163,184,0.12)"/>
  <circle cx="879" cy="508" r="2" fill="rgba(148,163,184,0.12)"/>
  <circle cx="914" cy="568" r="2" fill="rgba(148,163,184,0.15)"/>
  <circle cx="879" cy="628" r="2" fill="rgba(148,163,184,0.12)"/>
  <circle cx="949" cy="28" r="2" fill="rgba(148,163,184,0.17)"/>
  <circle cx="984" cy="88" r="2" fill="rgba(148,163,184,0.19)"/>
  <circle cx="949" cy="148" r="2" fill="rgba(148,163,184,0.08)"/>
  <circle cx="984" cy="208" r="2" fill="rgba(148,163,184,0.11)"/>
  <circle cx="949" cy="268" r="2" fill="rgba(148,163,184,0.20)"/>
  <circle cx="984" cy="328" r="2" fill="rgba(148,163,184,0.08)"/>
  <circle cx="949" cy="388" r="2" fill="rgba(148,163,184,0.09)"/>
  <circle cx="984" cy="448" r="2" fill="rgba(148,163,184,0.20)"/>
  <circle cx="949" cy="508" r="2" fill="rgba(148,163,184,0.14)"/>
  <circle cx="984" cy="568" r="2" fill="rgba(148,163,184,0.20)"/>
  <circle cx="949" cy="628" r="2" fill="rgba(148,163,184,0.11)"/>
  <circle cx="1019" cy="28" r="2" fill="rgba(148,163,184,0.20)"/>
  <circle cx="1054" cy="88" r="2" fill="rgba(148,163,184,0.21)"/>
  <circle cx="1019" cy="148" r="2" fill="rgba(148,163,184,0.10)"/>
  <circle cx="1054" cy="208" r="2" fill="rgba(148,163,184,0.13)"/>
  <circle cx="1019" cy="268" r="2" fill="rgba(148,163,184,0.10)"/>
  <circle cx="1054" cy="328" r="2" fill="rgba(148,163,184,0.19)"/>
  <circle cx="1019" cy="388" r="2" fill="rgba(148,163,184,0.17)"/>
  <circle cx="1054" cy="448" r="2" fill="rgba(148,163,184,0.16)"/>
  <circle cx="1019" cy="508" r="2" fill="rgba(148,163,184,0.16)"/>
  <circle cx="1054" cy="568" r="2" fill="rgba(148,163,184,0.19)"/>
  <circle cx="1019" cy="628" r="2" fill="rgba(148,163,184,0.16)"/>
  <circle cx="1089" cy="28" r="2" fill="rgba(148,163,184,0.14)"/>
  <circle cx="1124" cy="88" r="2" fill="rgba(148,163,184,0.16)"/>
  <circle cx="1089" cy="148" r="2" fill="rgba(148,163,184,0.11)"/>
  <circle cx="1124" cy="208" r="2" fill="rgba(148,163,184,0.08)"/>
  <circle cx="1089" cy="268" r="2" fill="rgba(148,163,184,0.20)"/>
  <circle cx="1124" cy="328" r="2" fill="rgba(148,163,184,0.20)"/>
  <circle cx="1089" cy="388" r="2" fill="rgba(148,163,184,0.19)"/>
  <circle cx="1124" cy="448" r="2" fill="rgba(148,163,184,0.11)"/>
  <circle cx="1089" cy="508" r="2" fill="rgba(148,163,184,0.17)"/>
  <circle cx="1124" cy="568" r="2" fill="rgba(148,163,184,0.20)"/>
  <circle cx="1089" cy="628" r="2" fill="rgba(148,163,184,0.11)"/>
  <circle cx="1159" cy="28" r="2" fill="rgba(148,163,184,0.11)"/>
  <circle cx="1194" cy="88" r="2" fill="rgba(148,163,184,0.12)"/>
  <circle cx="1159" cy="148" r="2" fill="rgba(148,163,184,0.08)"/>
  <circle cx="1194" cy="208" r="2" fill="rgba(148,163,184,0.20)"/>
  <circle cx="1159" cy="268" r="2" fill="rgba(148,163,184,0.11)"/>
  <circle cx="1194" cy="328" r="2" fill="rgba(148,163,184,0.08)"/>
  <circle cx="1159" cy="388" r="2" fill="rgba(148,163,184,0.21)"/>
  <circle cx="1194" cy="448" r="2" fill="rgba(148,163,184,0.11)"/>
  <circle cx="1159" cy="508" r="2" fill="rgba(148,163,184,0.17)"/>
  <circle cx="1194" cy="568" r="2" fill="rgba(148,163,184,0.11)"/>
  <circle cx="1159" cy="628" r="2" fill="rgba(148,163,184,0.20)"/>

  <!-- Netwerklijnen -->
  <line x1="159" y1="139" x2="277" y2="234" stroke="rgba(96,165,250,0.06)" stroke-width="1"/>
  <line x1="277" y1="234" x2="939" y2="84" stroke="rgba(96,165,250,0.08)" stroke-width="1"/>
  <line x1="939" y1="84" x2="1084" y2="219" stroke="rgba(96,165,250,0.10)" stroke-width="1"/>
  <line x1="1084" y1="219" x2="197" y2="509" stroke="rgba(96,165,250,0.12)" stroke-width="1"/>
  <line x1="197" y1="509" x2="1019" y2="537" stroke="rgba(96,165,250,0.14)" stroke-width="1"/>
  <circle cx="159" cy="139" r="3" fill="rgba(96,165,250,0.25)"/>
  <circle cx="159" cy="139" r="8" fill="rgba(96,165,250,0.06)"/>
  <circle cx="277" cy="234" r="3" fill="rgba(96,165,250,0.25)"/>
  <circle cx="277" cy="234" r="8" fill="rgba(96,165,250,0.06)"/>
  <circle cx="939" cy="84" r="3" fill="rgba(96,165,250,0.25)"/>
  <circle cx="939" cy="84" r="8" fill="rgba(96,165,250,0.06)"/>
  <circle cx="1084" cy="219" r="3" fill="rgba(96,165,250,0.25)"/>
  <circle cx="1084" cy="219" r="8" fill="rgba(96,165,250,0.06)"/>
  <circle cx="197" cy="509" r="3" fill="rgba(96,165,250,0.25)"/>
  <circle cx="197" cy="509" r="8" fill="rgba(96,165,250,0.06)"/>
  <circle cx="1019" cy="537" r="3" fill="rgba(96,165,250,0.25)"/>
  <circle cx="1019" cy="537" r="8" fill="rgba(96,165,250,0.06)"/>

  <!-- Horizontale accentlijn -->
  <line x1="0" y1="1" x2="1200" y2="1" stroke="rgba(96,165,250,0.12)" stroke-width="1"/>
  <line x1="0" y1="629" x2="1200" y2="629" stroke="rgba(96,165,250,0.08)" stroke-width="1"/>

  <!-- Topic-illustratie (gecentreerd) -->
  <g transform="translate(0,0)">
        <circle cx="600" cy="270" r="80" fill="none" stroke="rgba(96,165,250,0.35)" stroke-width="2"/>
        <line x1="545" y1="215" x2="655" y2="325" stroke="rgba(96,165,250,0.4)" stroke-width="1.5"/>
        <circle cx="555" cy="250" r="18" fill="rgba(96,165,250,0.2)" stroke="rgba(96,165,250,0.4)" stroke-width="1.5"/>
        <circle cx="645" cy="290" r="18" fill="rgba(96,165,250,0.2)" stroke="rgba(96,165,250,0.4)" stroke-width="1.5"/>
        <text x="600" y="380" text-anchor="middle" font-family="sans-serif" font-size="20" fill="rgba(96,165,250,0.5)" font-weight="bold">€€€</text>
  </g>

  <!-- Categorie badge -->
  <rect x="32" y="570" width="64" height="26" rx="13" fill="rgba(96,165,250,0.2)"/>
       <text x="44" y="588" font-family="system-ui, sans-serif" font-size="12" font-weight="600" fill="rgba(148,163,184,0.9)" letter-spacing="0.05em">DEALS</text>

  <!-- Subtiele vpnr.nl branding (rechtsonder) -->
  <text x="1168" y="614" font-family="system-ui, sans-serif" font-size="11" fill="rgba(100,116,139,0.5)" text-anchor="end" letter-spacing="0.04em">vpnr.nl</text>
</svg>