<svg xmlns="http://www.w3.org/2000/svg" viewBox="0 0 1200 630" width="1200" height="630">
  <defs>
    <linearGradient id="bg" x1="0%" y1="0%" x2="100%" y2="100%">
      <stop offset="0%" style="stop-color:hsl(231,70%,8%)"/>
      <stop offset="50%" style="stop-color:hsl(251,65%,12%)"/>
      <stop offset="100%" style="stop-color:hsl(256,60%,9%)"/>
    </linearGradient>
    <radialGradient id="glow" cx="50%" cy="45%" r="40%">
      <stop offset="0%" style="stop-color:hsl(251,80%,30%);stop-opacity:0.18"/>
      <stop offset="100%" style="stop-color:transparent;stop-opacity:0"/>
    </radialGradient>
    <radialGradient id="glow2" cx="20%" cy="20%" r="30%">
      <stop offset="0%" style="stop-color:hsl(231,70%,40%);stop-opacity:0.08"/>
      <stop offset="100%" style="stop-color:transparent;stop-opacity:0"/>
    </radialGradient>
    <filter id="blur"><feGaussianBlur stdDeviation="40"/></filter>
  </defs>

  <!-- Achtergrond -->
  <rect width="1200" height="630" fill="url(#bg)"/>
  <rect width="1200" height="630" fill="url(#glow)"/>
  <rect width="1200" height="630" fill="url(#glow2)"/>

  <!-- Stippenraster -->
  <circle cx="46" cy="32" r="2" fill="rgba(148,163,184,0.17)"/>
  <circle cx="81" cy="92" r="2" fill="rgba(148,163,184,0.13)"/>
  <circle cx="46" cy="152" r="2" fill="rgba(148,163,184,0.17)"/>
  <circle cx="81" cy="212" r="2" fill="rgba(148,163,184,0.13)"/>
  <circle cx="46" cy="272" r="2" fill="rgba(148,163,184,0.14)"/>
  <circle cx="81" cy="332" r="2" fill="rgba(148,163,184,0.11)"/>
  <circle cx="46" cy="392" r="2" fill="rgba(148,163,184,0.19)"/>
  <circle cx="81" cy="452" r="2" fill="rgba(148,163,184,0.20)"/>
  <circle cx="46" cy="512" r="2" fill="rgba(148,163,184,0.08)"/>
  <circle cx="81" cy="572" r="2" fill="rgba(148,163,184,0.22)"/>
  <circle cx="116" cy="32" r="2" fill="rgba(148,163,184,0.14)"/>
  <circle cx="151" cy="92" r="2" fill="rgba(148,163,184,0.18)"/>
  <circle cx="116" cy="152" r="2" fill="rgba(148,163,184,0.21)"/>
  <circle cx="151" cy="212" r="2" fill="rgba(148,163,184,0.08)"/>
  <circle cx="116" cy="272" r="2" fill="rgba(148,163,184,0.18)"/>
  <circle cx="151" cy="332" r="2" fill="rgba(148,163,184,0.21)"/>
  <circle cx="116" cy="392" r="2" fill="rgba(148,163,184,0.14)"/>
  <circle cx="151" cy="452" r="2" fill="rgba(148,163,184,0.18)"/>
  <circle cx="116" cy="512" r="2" fill="rgba(148,163,184,0.15)"/>
  <circle cx="151" cy="572" r="2" fill="rgba(148,163,184,0.20)"/>
  <circle cx="186" cy="32" r="2" fill="rgba(148,163,184,0.16)"/>
  <circle cx="221" cy="92" r="2" fill="rgba(148,163,184,0.08)"/>
  <circle cx="186" cy="152" r="2" fill="rgba(148,163,184,0.18)"/>
  <circle cx="221" cy="212" r="2" fill="rgba(148,163,184,0.20)"/>
  <circle cx="186" cy="272" r="2" fill="rgba(148,163,184,0.15)"/>
  <circle cx="221" cy="332" r="2" fill="rgba(148,163,184,0.18)"/>
  <circle cx="186" cy="392" r="2" fill="rgba(148,163,184,0.14)"/>
  <circle cx="221" cy="452" r="2" fill="rgba(148,163,184,0.15)"/>
  <circle cx="186" cy="512" r="2" fill="rgba(148,163,184,0.12)"/>
  <circle cx="221" cy="572" r="2" fill="rgba(148,163,184,0.17)"/>
  <circle cx="256" cy="32" r="2" fill="rgba(148,163,184,0.21)"/>
  <circle cx="291" cy="92" r="2" fill="rgba(148,163,184,0.14)"/>
  <circle cx="256" cy="152" r="2" fill="rgba(148,163,184,0.18)"/>
  <circle cx="291" cy="212" r="2" fill="rgba(148,163,184,0.22)"/>
  <circle cx="256" cy="272" r="2" fill="rgba(148,163,184,0.12)"/>
  <circle cx="291" cy="332" r="2" fill="rgba(148,163,184,0.18)"/>
  <circle cx="256" cy="392" r="2" fill="rgba(148,163,184,0.22)"/>
  <circle cx="291" cy="452" r="2" fill="rgba(148,163,184,0.12)"/>
  <circle cx="256" cy="512" r="2" fill="rgba(148,163,184,0.09)"/>
  <circle cx="291" cy="572" r="2" fill="rgba(148,163,184,0.19)"/>
  <circle cx="326" cy="32" r="2" fill="rgba(148,163,184,0.19)"/>
  <circle cx="361" cy="92" r="2" fill="rgba(148,163,184,0.08)"/>
  <circle cx="326" cy="152" r="2" fill="rgba(148,163,184,0.12)"/>
  <circle cx="361" cy="212" r="2" fill="rgba(148,163,184,0.14)"/>
  <circle cx="326" cy="272" r="2" fill="rgba(148,163,184,0.09)"/>
  <circle cx="361" cy="332" r="2" fill="rgba(148,163,184,0.12)"/>
  <circle cx="326" cy="392" r="2" fill="rgba(148,163,184,0.20)"/>
  <circle cx="361" cy="452" r="2" fill="rgba(148,163,184,0.09)"/>
  <circle cx="326" cy="512" r="2" fill="rgba(148,163,184,0.21)"/>
  <circle cx="361" cy="572" r="2" fill="rgba(148,163,184,0.11)"/>
  <circle cx="396" cy="32" r="2" fill="rgba(148,163,184,0.09)"/>
  <circle cx="431" cy="92" r="2" fill="rgba(148,163,184,0.20)"/>
  <circle cx="396" cy="152" r="2" fill="rgba(148,163,184,0.11)"/>
  <circle cx="431" cy="212" r="2" fill="rgba(148,163,184,0.15)"/>
  <circle cx="396" cy="272" r="2" fill="rgba(148,163,184,0.14)"/>
  <circle cx="431" cy="332" r="2" fill="rgba(148,163,184,0.17)"/>
  <circle cx="396" cy="392" r="2" fill="rgba(148,163,184,0.09)"/>
  <circle cx="431" cy="452" r="2" fill="rgba(148,163,184,0.08)"/>
  <circle cx="396" cy="512" r="2" fill="rgba(148,163,184,0.20)"/>
  <circle cx="431" cy="572" r="2" fill="rgba(148,163,184,0.21)"/>
  <circle cx="466" cy="32" r="2" fill="rgba(148,163,184,0.20)"/>
  <circle cx="501" cy="92" r="2" fill="rgba(148,163,184,0.13)"/>
  <circle cx="466" cy="152" r="2" fill="rgba(148,163,184,0.18)"/>
  <circle cx="501" cy="212" r="2" fill="rgba(148,163,184,0.16)"/>
  <circle cx="466" cy="272" r="2" fill="rgba(148,163,184,0.15)"/>
  <circle cx="501" cy="332" r="2" fill="rgba(148,163,184,0.09)"/>
  <circle cx="466" cy="392" r="2" fill="rgba(148,163,184,0.13)"/>
  <circle cx="501" cy="452" r="2" fill="rgba(148,163,184,0.09)"/>
  <circle cx="466" cy="512" r="2" fill="rgba(148,163,184,0.12)"/>
  <circle cx="501" cy="572" r="2" fill="rgba(148,163,184,0.13)"/>
  <circle cx="536" cy="32" r="2" fill="rgba(148,163,184,0.21)"/>
  <circle cx="571" cy="92" r="2" fill="rgba(148,163,184,0.14)"/>
  <circle cx="536" cy="152" r="2" fill="rgba(148,163,184,0.08)"/>
  <circle cx="571" cy="212" r="2" fill="rgba(148,163,184,0.21)"/>
  <circle cx="536" cy="272" r="2" fill="rgba(148,163,184,0.11)"/>
  <circle cx="571" cy="332" r="2" fill="rgba(148,163,184,0.08)"/>
  <circle cx="536" cy="392" r="2" fill="rgba(148,163,184,0.12)"/>
  <circle cx="571" cy="452" r="2" fill="rgba(148,163,184,0.11)"/>
  <circle cx="536" cy="512" r="2" fill="rgba(148,163,184,0.14)"/>
  <circle cx="571" cy="572" r="2" fill="rgba(148,163,184,0.09)"/>
  <circle cx="606" cy="32" r="2" fill="rgba(148,163,184,0.11)"/>
  <circle cx="641" cy="92" r="2" fill="rgba(148,163,184,0.19)"/>
  <circle cx="606" cy="152" r="2" fill="rgba(148,163,184,0.12)"/>
  <circle cx="641" cy="212" r="2" fill="rgba(148,163,184,0.19)"/>
  <circle cx="606" cy="272" r="2" fill="rgba(148,163,184,0.09)"/>
  <circle cx="641" cy="332" r="2" fill="rgba(148,163,184,0.12)"/>
  <circle cx="606" cy="392" r="2" fill="rgba(148,163,184,0.16)"/>
  <circle cx="641" cy="452" r="2" fill="rgba(148,163,184,0.09)"/>
  <circle cx="606" cy="512" r="2" fill="rgba(148,163,184,0.18)"/>
  <circle cx="641" cy="572" r="2" fill="rgba(148,163,184,0.13)"/>
  <circle cx="676" cy="32" r="2" fill="rgba(148,163,184,0.17)"/>
  <circle cx="711" cy="92" r="2" fill="rgba(148,163,184,0.21)"/>
  <circle cx="676" cy="152" r="2" fill="rgba(148,163,184,0.10)"/>
  <circle cx="711" cy="212" r="2" fill="rgba(148,163,184,0.18)"/>
  <circle cx="676" cy="272" r="2" fill="rgba(148,163,184,0.13)"/>
  <circle cx="711" cy="332" r="2" fill="rgba(148,163,184,0.10)"/>
  <circle cx="676" cy="392" r="2" fill="rgba(148,163,184,0.18)"/>
  <circle cx="711" cy="452" r="2" fill="rgba(148,163,184,0.13)"/>
  <circle cx="676" cy="512" r="2" fill="rgba(148,163,184,0.19)"/>
  <circle cx="711" cy="572" r="2" fill="rgba(148,163,184,0.09)"/>
  <circle cx="746" cy="32" r="2" fill="rgba(148,163,184,0.17)"/>
  <circle cx="781" cy="92" r="2" fill="rgba(148,163,184,0.10)"/>
  <circle cx="746" cy="152" r="2" fill="rgba(148,163,184,0.11)"/>
  <circle cx="781" cy="212" r="2" fill="rgba(148,163,184,0.15)"/>
  <circle cx="746" cy="272" r="2" fill="rgba(148,163,184,0.14)"/>
  <circle cx="781" cy="332" r="2" fill="rgba(148,163,184,0.17)"/>
  <circle cx="746" cy="392" r="2" fill="rgba(148,163,184,0.21)"/>
  <circle cx="781" cy="452" r="2" fill="rgba(148,163,184,0.08)"/>
  <circle cx="746" cy="512" r="2" fill="rgba(148,163,184,0.20)"/>
  <circle cx="781" cy="572" r="2" fill="rgba(148,163,184,0.21)"/>
  <circle cx="816" cy="32" r="2" fill="rgba(148,163,184,0.08)"/>
  <circle cx="851" cy="92" r="2" fill="rgba(148,163,184,0.15)"/>
  <circle cx="816" cy="152" r="2" fill="rgba(148,163,184,0.13)"/>
  <circle cx="851" cy="212" r="2" fill="rgba(148,163,184,0.21)"/>
  <circle cx="816" cy="272" r="2" fill="rgba(148,163,184,0.16)"/>
  <circle cx="851" cy="332" r="2" fill="rgba(148,163,184,0.13)"/>
  <circle cx="816" cy="392" r="2" fill="rgba(148,163,184,0.09)"/>
  <circle cx="851" cy="452" r="2" fill="rgba(148,163,184,0.16)"/>
  <circle cx="816" cy="512" r="2" fill="rgba(148,163,184,0.22)"/>
  <circle cx="851" cy="572" r="2" fill="rgba(148,163,184,0.12)"/>
  <circle cx="886" cy="32" r="2" fill="rgba(148,163,184,0.10)"/>
  <circle cx="921" cy="92" r="2" fill="rgba(148,163,184,0.14)"/>
  <circle cx="886" cy="152" r="2" fill="rgba(148,163,184,0.13)"/>
  <circle cx="921" cy="212" r="2" fill="rgba(148,163,184,0.09)"/>
  <circle cx="886" cy="272" r="2" fill="rgba(148,163,184,0.19)"/>
  <circle cx="921" cy="332" r="2" fill="rgba(148,163,184,0.13)"/>
  <circle cx="886" cy="392" r="2" fill="rgba(148,163,184,0.21)"/>
  <circle cx="921" cy="452" r="2" fill="rgba(148,163,184,0.19)"/>
  <circle cx="886" cy="512" r="2" fill="rgba(148,163,184,0.22)"/>
  <circle cx="921" cy="572" r="2" fill="rgba(148,163,184,0.12)"/>
  <circle cx="956" cy="32" r="2" fill="rgba(148,163,184,0.20)"/>
  <circle cx="991" cy="92" r="2" fill="rgba(148,163,184,0.12)"/>
  <circle cx="956" cy="152" r="2" fill="rgba(148,163,184,0.15)"/>
  <circle cx="991" cy="212" r="2" fill="rgba(148,163,184,0.11)"/>
  <circle cx="956" cy="272" r="2" fill="rgba(148,163,184,0.12)"/>
  <circle cx="991" cy="332" r="2" fill="rgba(148,163,184,0.09)"/>
  <circle cx="956" cy="392" r="2" fill="rgba(148,163,184,0.20)"/>
  <circle cx="991" cy="452" r="2" fill="rgba(148,163,184,0.18)"/>
  <circle cx="956" cy="512" r="2" fill="rgba(148,163,184,0.21)"/>
  <circle cx="991" cy="572" r="2" fill="rgba(148,163,184,0.20)"/>
  <circle cx="1026" cy="32" r="2" fill="rgba(148,163,184,0.18)"/>
  <circle cx="1061" cy="92" r="2" fill="rgba(148,163,184,0.11)"/>
  <circle cx="1026" cy="152" r="2" fill="rgba(148,163,184,0.11)"/>
  <circle cx="1061" cy="212" r="2" fill="rgba(148,163,184,0.22)"/>
  <circle cx="1026" cy="272" r="2" fill="rgba(148,163,184,0.08)"/>
  <circle cx="1061" cy="332" r="2" fill="rgba(148,163,184,0.20)"/>
  <circle cx="1026" cy="392" r="2" fill="rgba(148,163,184,0.16)"/>
  <circle cx="1061" cy="452" r="2" fill="rgba(148,163,184,0.14)"/>
  <circle cx="1026" cy="512" r="2" fill="rgba(148,163,184,0.17)"/>
  <circle cx="1061" cy="572" r="2" fill="rgba(148,163,184,0.16)"/>
  <circle cx="1096" cy="32" r="2" fill="rgba(148,163,184,0.15)"/>
  <circle cx="1131" cy="92" r="2" fill="rgba(148,163,184,0.22)"/>
  <circle cx="1096" cy="152" r="2" fill="rgba(148,163,184,0.16)"/>
  <circle cx="1131" cy="212" r="2" fill="rgba(148,163,184,0.14)"/>
  <circle cx="1096" cy="272" r="2" fill="rgba(148,163,184,0.19)"/>
  <circle cx="1131" cy="332" r="2" fill="rgba(148,163,184,0.16)"/>
  <circle cx="1096" cy="392" r="2" fill="rgba(148,163,184,0.20)"/>
  <circle cx="1131" cy="452" r="2" fill="rgba(148,163,184,0.19)"/>
  <circle cx="1096" cy="512" r="2" fill="rgba(148,163,184,0.22)"/>
  <circle cx="1131" cy="572" r="2" fill="rgba(148,163,184,0.17)"/>
  <circle cx="1166" cy="32" r="2" fill="rgba(148,163,184,0.12)"/>
  <circle cx="1201" cy="92" r="2" fill="rgba(148,163,184,0.20)"/>
  <circle cx="1166" cy="152" r="2" fill="rgba(148,163,184,0.10)"/>
  <circle cx="1201" cy="212" r="2" fill="rgba(148,163,184,0.18)"/>
  <circle cx="1166" cy="272" r="2" fill="rgba(148,163,184,0.13)"/>
  <circle cx="1201" cy="332" r="2" fill="rgba(148,163,184,0.10)"/>
  <circle cx="1166" cy="392" r="2" fill="rgba(148,163,184,0.21)"/>
  <circle cx="1201" cy="452" r="2" fill="rgba(148,163,184,0.13)"/>
  <circle cx="1166" cy="512" r="2" fill="rgba(148,163,184,0.19)"/>
  <circle cx="1201" cy="572" r="2" fill="rgba(148,163,184,0.09)"/>

  <!-- Netwerklijnen -->
  <line x1="146" y1="146" x2="245" y2="251" stroke="rgba(96,165,250,0.06)" stroke-width="1"/>
  <line x1="245" y1="251" x2="946" y2="136" stroke="rgba(96,165,250,0.08)" stroke-width="1"/>
  <line x1="946" y1="136" x2="1101" y2="266" stroke="rgba(96,165,250,0.10)" stroke-width="1"/>
  <line x1="1101" y1="266" x2="168" y2="496" stroke="rgba(96,165,250,0.12)" stroke-width="1"/>
  <line x1="168" y1="496" x2="1066" y2="545" stroke="rgba(96,165,250,0.14)" stroke-width="1"/>
  <circle cx="146" cy="146" r="3" fill="rgba(96,165,250,0.25)"/>
  <circle cx="146" cy="146" r="8" fill="rgba(96,165,250,0.06)"/>
  <circle cx="245" cy="251" r="3" fill="rgba(96,165,250,0.25)"/>
  <circle cx="245" cy="251" r="8" fill="rgba(96,165,250,0.06)"/>
  <circle cx="946" cy="136" r="3" fill="rgba(96,165,250,0.25)"/>
  <circle cx="946" cy="136" r="8" fill="rgba(96,165,250,0.06)"/>
  <circle cx="1101" cy="266" r="3" fill="rgba(96,165,250,0.25)"/>
  <circle cx="1101" cy="266" r="8" fill="rgba(96,165,250,0.06)"/>
  <circle cx="168" cy="496" r="3" fill="rgba(96,165,250,0.25)"/>
  <circle cx="168" cy="496" r="8" fill="rgba(96,165,250,0.06)"/>
  <circle cx="1066" cy="545" r="3" fill="rgba(96,165,250,0.25)"/>
  <circle cx="1066" cy="545" r="8" fill="rgba(96,165,250,0.06)"/>

  <!-- Horizontale accentlijn -->
  <line x1="0" y1="1" x2="1200" y2="1" stroke="rgba(96,165,250,0.12)" stroke-width="1"/>
  <line x1="0" y1="629" x2="1200" y2="629" stroke="rgba(96,165,250,0.08)" stroke-width="1"/>

  <!-- Topic-illustratie (gecentreerd) -->
  <g transform="translate(0,0)">
        <rect x="460" y="220" width="120" height="160" rx="10" fill="rgba(96,165,250,0.12)" stroke="rgba(96,165,250,0.4)" stroke-width="1.5"/>
        <rect x="620" y="220" width="120" height="160" rx="10" fill="rgba(99,102,241,0.12)" stroke="rgba(99,102,241,0.4)" stroke-width="1.5"/>
        <line x1="600" y1="200" x2="600" y2="400" stroke="rgba(255,255,255,0.15)" stroke-width="1" stroke-dasharray="6,4"/>
        <path d="M480 280 L540 260 L540 300 Z" fill="rgba(96,165,250,0.5)"/>
        <path d="M720 280 L660 260 L660 300 Z" fill="rgba(99,102,241,0.5)"/>
  </g>

  <!-- Categorie badge -->
  <rect x="32" y="570" width="120" height="26" rx="13" fill="rgba(96,165,250,0.2)"/>
       <text x="44" y="588" font-family="system-ui, sans-serif" font-size="12" font-weight="600" fill="rgba(148,163,184,0.9)" letter-spacing="0.05em">VERGELIJKING</text>

  <!-- Subtiele vpnr.nl branding (rechtsonder) -->
  <text x="1168" y="614" font-family="system-ui, sans-serif" font-size="11" fill="rgba(100,116,139,0.5)" text-anchor="end" letter-spacing="0.04em">vpnr.nl</text>
</svg>