<svg xmlns="http://www.w3.org/2000/svg" viewBox="0 0 1200 630" width="1200" height="630">
  <defs>
    <linearGradient id="bg" x1="0%" y1="0%" x2="100%" y2="100%">
      <stop offset="0%" style="stop-color:hsl(219,70%,8%)"/>
      <stop offset="50%" style="stop-color:hsl(259,65%,12%)"/>
      <stop offset="100%" style="stop-color:hsl(264,60%,9%)"/>
    </linearGradient>
    <radialGradient id="glow" cx="50%" cy="45%" r="40%">
      <stop offset="0%" style="stop-color:hsl(259,80%,30%);stop-opacity:0.18"/>
      <stop offset="100%" style="stop-color:transparent;stop-opacity:0"/>
    </radialGradient>
    <radialGradient id="glow2" cx="20%" cy="20%" r="30%">
      <stop offset="0%" style="stop-color:hsl(219,70%,40%);stop-opacity:0.08"/>
      <stop offset="100%" style="stop-color:transparent;stop-opacity:0"/>
    </radialGradient>
    <filter id="blur"><feGaussianBlur stdDeviation="40"/></filter>
  </defs>

  <!-- Achtergrond -->
  <rect width="1200" height="630" fill="url(#bg)"/>
  <rect width="1200" height="630" fill="url(#glow)"/>
  <rect width="1200" height="630" fill="url(#glow2)"/>

  <!-- Stippenraster -->
  <circle cx="54" cy="22" r="2" fill="rgba(148,163,184,0.09)"/>
  <circle cx="89" cy="82" r="2" fill="rgba(148,163,184,0.13)"/>
  <circle cx="54" cy="142" r="2" fill="rgba(148,163,184,0.19)"/>
  <circle cx="89" cy="202" r="2" fill="rgba(148,163,184,0.18)"/>
  <circle cx="54" cy="262" r="2" fill="rgba(148,163,184,0.19)"/>
  <circle cx="89" cy="322" r="2" fill="rgba(148,163,184,0.13)"/>
  <circle cx="54" cy="382" r="2" fill="rgba(148,163,184,0.21)"/>
  <circle cx="89" cy="442" r="2" fill="rgba(148,163,184,0.10)"/>
  <circle cx="54" cy="502" r="2" fill="rgba(148,163,184,0.10)"/>
  <circle cx="89" cy="562" r="2" fill="rgba(148,163,184,0.09)"/>
  <circle cx="54" cy="622" r="2" fill="rgba(148,163,184,0.10)"/>
  <circle cx="124" cy="22" r="2" fill="rgba(148,163,184,0.22)"/>
  <circle cx="159" cy="82" r="2" fill="rgba(148,163,184,0.15)"/>
  <circle cx="124" cy="142" r="2" fill="rgba(148,163,184,0.13)"/>
  <circle cx="159" cy="202" r="2" fill="rgba(148,163,184,0.21)"/>
  <circle cx="124" cy="262" r="2" fill="rgba(148,163,184,0.22)"/>
  <circle cx="159" cy="322" r="2" fill="rgba(148,163,184,0.22)"/>
  <circle cx="124" cy="382" r="2" fill="rgba(148,163,184,0.18)"/>
  <circle cx="159" cy="442" r="2" fill="rgba(148,163,184,0.13)"/>
  <circle cx="124" cy="502" r="2" fill="rgba(148,163,184,0.19)"/>
  <circle cx="159" cy="562" r="2" fill="rgba(148,163,184,0.18)"/>
  <circle cx="124" cy="622" r="2" fill="rgba(148,163,184,0.13)"/>
  <circle cx="194" cy="22" r="2" fill="rgba(148,163,184,0.17)"/>
  <circle cx="229" cy="82" r="2" fill="rgba(148,163,184,0.09)"/>
  <circle cx="194" cy="142" r="2" fill="rgba(148,163,184,0.12)"/>
  <circle cx="229" cy="202" r="2" fill="rgba(148,163,184,0.13)"/>
  <circle cx="194" cy="262" r="2" fill="rgba(148,163,184,0.18)"/>
  <circle cx="229" cy="322" r="2" fill="rgba(148,163,184,0.12)"/>
  <circle cx="194" cy="382" r="2" fill="rgba(148,163,184,0.16)"/>
  <circle cx="229" cy="442" r="2" fill="rgba(148,163,184,0.18)"/>
  <circle cx="194" cy="502" r="2" fill="rgba(148,163,184,0.18)"/>
  <circle cx="229" cy="562" r="2" fill="rgba(148,163,184,0.13)"/>
  <circle cx="194" cy="622" r="2" fill="rgba(148,163,184,0.09)"/>
  <circle cx="264" cy="22" r="2" fill="rgba(148,163,184,0.09)"/>
  <circle cx="299" cy="82" r="2" fill="rgba(148,163,184,0.13)"/>
  <circle cx="264" cy="142" r="2" fill="rgba(148,163,184,0.13)"/>
  <circle cx="299" cy="202" r="2" fill="rgba(148,163,184,0.11)"/>
  <circle cx="264" cy="262" r="2" fill="rgba(148,163,184,0.10)"/>
  <circle cx="299" cy="322" r="2" fill="rgba(148,163,184,0.19)"/>
  <circle cx="264" cy="382" r="2" fill="rgba(148,163,184,0.11)"/>
  <circle cx="299" cy="442" r="2" fill="rgba(148,163,184,0.19)"/>
  <circle cx="264" cy="502" r="2" fill="rgba(148,163,184,0.22)"/>
  <circle cx="299" cy="562" r="2" fill="rgba(148,163,184,0.08)"/>
  <circle cx="264" cy="622" r="2" fill="rgba(148,163,184,0.19)"/>
  <circle cx="334" cy="22" r="2" fill="rgba(148,163,184,0.11)"/>
  <circle cx="369" cy="82" r="2" fill="rgba(148,163,184,0.15)"/>
  <circle cx="334" cy="142" r="2" fill="rgba(148,163,184,0.15)"/>
  <circle cx="369" cy="202" r="2" fill="rgba(148,163,184,0.16)"/>
  <circle cx="334" cy="262" r="2" fill="rgba(148,163,184,0.21)"/>
  <circle cx="369" cy="322" r="2" fill="rgba(148,163,184,0.15)"/>
  <circle cx="334" cy="382" r="2" fill="rgba(148,163,184,0.22)"/>
  <circle cx="369" cy="442" r="2" fill="rgba(148,163,184,0.21)"/>
  <circle cx="334" cy="502" r="2" fill="rgba(148,163,184,0.21)"/>
  <circle cx="369" cy="562" r="2" fill="rgba(148,163,184,0.16)"/>
  <circle cx="334" cy="622" r="2" fill="rgba(148,163,184,0.12)"/>
  <circle cx="404" cy="22" r="2" fill="rgba(148,163,184,0.15)"/>
  <circle cx="439" cy="82" r="2" fill="rgba(148,163,184,0.19)"/>
  <circle cx="404" cy="142" r="2" fill="rgba(148,163,184,0.10)"/>
  <circle cx="439" cy="202" r="2" fill="rgba(148,163,184,0.08)"/>
  <circle cx="404" cy="262" r="2" fill="rgba(148,163,184,0.22)"/>
  <circle cx="439" cy="322" r="2" fill="rgba(148,163,184,0.16)"/>
  <circle cx="404" cy="382" r="2" fill="rgba(148,163,184,0.08)"/>
  <circle cx="439" cy="442" r="2" fill="rgba(148,163,184,0.16)"/>
  <circle cx="404" cy="502" r="2" fill="rgba(148,163,184,0.19)"/>
  <circle cx="439" cy="562" r="2" fill="rgba(148,163,184,0.20)"/>
  <circle cx="404" cy="622" r="2" fill="rgba(148,163,184,0.16)"/>
  <circle cx="474" cy="22" r="2" fill="rgba(148,163,184,0.15)"/>
  <circle cx="509" cy="82" r="2" fill="rgba(148,163,184,0.08)"/>
  <circle cx="474" cy="142" r="2" fill="rgba(148,163,184,0.14)"/>
  <circle cx="509" cy="202" r="2" fill="rgba(148,163,184,0.16)"/>
  <circle cx="474" cy="262" r="2" fill="rgba(148,163,184,0.17)"/>
  <circle cx="509" cy="322" r="2" fill="rgba(148,163,184,0.08)"/>
  <circle cx="474" cy="382" r="2" fill="rgba(148,163,184,0.19)"/>
  <circle cx="509" cy="442" r="2" fill="rgba(148,163,184,0.08)"/>
  <circle cx="474" cy="502" r="2" fill="rgba(148,163,184,0.20)"/>
  <circle cx="509" cy="562" r="2" fill="rgba(148,163,184,0.19)"/>
  <circle cx="474" cy="622" r="2" fill="rgba(148,163,184,0.08)"/>
  <circle cx="544" cy="22" r="2" fill="rgba(148,163,184,0.15)"/>
  <circle cx="579" cy="82" r="2" fill="rgba(148,163,184,0.19)"/>
  <circle cx="544" cy="142" r="2" fill="rgba(148,163,184,0.09)"/>
  <circle cx="579" cy="202" r="2" fill="rgba(148,163,184,0.19)"/>
  <circle cx="544" cy="262" r="2" fill="rgba(148,163,184,0.09)"/>
  <circle cx="579" cy="322" r="2" fill="rgba(148,163,184,0.09)"/>
  <circle cx="544" cy="382" r="2" fill="rgba(148,163,184,0.16)"/>
  <circle cx="579" cy="442" r="2" fill="rgba(148,163,184,0.09)"/>
  <circle cx="544" cy="502" r="2" fill="rgba(148,163,184,0.15)"/>
  <circle cx="579" cy="562" r="2" fill="rgba(148,163,184,0.10)"/>
  <circle cx="544" cy="622" r="2" fill="rgba(148,163,184,0.15)"/>
  <circle cx="614" cy="22" r="2" fill="rgba(148,163,184,0.12)"/>
  <circle cx="649" cy="82" r="2" fill="rgba(148,163,184,0.20)"/>
  <circle cx="614" cy="142" r="2" fill="rgba(148,163,184,0.17)"/>
  <circle cx="649" cy="202" r="2" fill="rgba(148,163,184,0.10)"/>
  <circle cx="614" cy="262" r="2" fill="rgba(148,163,184,0.20)"/>
  <circle cx="649" cy="322" r="2" fill="rgba(148,163,184,0.17)"/>
  <circle cx="614" cy="382" r="2" fill="rgba(148,163,184,0.13)"/>
  <circle cx="649" cy="442" r="2" fill="rgba(148,163,184,0.20)"/>
  <circle cx="614" cy="502" r="2" fill="rgba(148,163,184,0.11)"/>
  <circle cx="649" cy="562" r="2" fill="rgba(148,163,184,0.16)"/>
  <circle cx="614" cy="622" r="2" fill="rgba(148,163,184,0.14)"/>
  <circle cx="684" cy="22" r="2" fill="rgba(148,163,184,0.13)"/>
  <circle cx="719" cy="82" r="2" fill="rgba(148,163,184,0.09)"/>
  <circle cx="684" cy="142" r="2" fill="rgba(148,163,184,0.11)"/>
  <circle cx="719" cy="202" r="2" fill="rgba(148,163,184,0.22)"/>
  <circle cx="684" cy="262" r="2" fill="rgba(148,163,184,0.17)"/>
  <circle cx="719" cy="322" r="2" fill="rgba(148,163,184,0.11)"/>
  <circle cx="684" cy="382" r="2" fill="rgba(148,163,184,0.19)"/>
  <circle cx="719" cy="442" r="2" fill="rgba(148,163,184,0.17)"/>
  <circle cx="684" cy="502" r="2" fill="rgba(148,163,184,0.20)"/>
  <circle cx="719" cy="562" r="2" fill="rgba(148,163,184,0.10)"/>
  <circle cx="684" cy="622" r="2" fill="rgba(148,163,184,0.11)"/>
  <circle cx="754" cy="22" r="2" fill="rgba(148,163,184,0.21)"/>
  <circle cx="789" cy="82" r="2" fill="rgba(148,163,184,0.14)"/>
  <circle cx="754" cy="142" r="2" fill="rgba(148,163,184,0.10)"/>
  <circle cx="789" cy="202" r="2" fill="rgba(148,163,184,0.09)"/>
  <circle cx="754" cy="262" r="2" fill="rgba(148,163,184,0.10)"/>
  <circle cx="789" cy="322" r="2" fill="rgba(148,163,184,0.19)"/>
  <circle cx="754" cy="382" r="2" fill="rgba(148,163,184,0.15)"/>
  <circle cx="789" cy="442" r="2" fill="rgba(148,163,184,0.16)"/>
  <circle cx="754" cy="502" r="2" fill="rgba(148,163,184,0.16)"/>
  <circle cx="789" cy="562" r="2" fill="rgba(148,163,184,0.15)"/>
  <circle cx="754" cy="622" r="2" fill="rgba(148,163,184,0.16)"/>
  <circle cx="824" cy="22" r="2" fill="rgba(148,163,184,0.10)"/>
  <circle cx="859" cy="82" r="2" fill="rgba(148,163,184,0.21)"/>
  <circle cx="824" cy="142" r="2" fill="rgba(148,163,184,0.11)"/>
  <circle cx="859" cy="202" r="2" fill="rgba(148,163,184,0.16)"/>
  <circle cx="824" cy="262" r="2" fill="rgba(148,163,184,0.17)"/>
  <circle cx="859" cy="322" r="2" fill="rgba(148,163,184,0.20)"/>
  <circle cx="824" cy="382" r="2" fill="rgba(148,163,184,0.13)"/>
  <circle cx="859" cy="442" r="2" fill="rgba(148,163,184,0.08)"/>
  <circle cx="824" cy="502" r="2" fill="rgba(148,163,184,0.17)"/>
  <circle cx="859" cy="562" r="2" fill="rgba(148,163,184,0.16)"/>
  <circle cx="824" cy="622" r="2" fill="rgba(148,163,184,0.08)"/>
  <circle cx="894" cy="22" r="2" fill="rgba(148,163,184,0.08)"/>
  <circle cx="929" cy="82" r="2" fill="rgba(148,163,184,0.12)"/>
  <circle cx="894" cy="142" r="2" fill="rgba(148,163,184,0.10)"/>
  <circle cx="929" cy="202" r="2" fill="rgba(148,163,184,0.14)"/>
  <circle cx="894" cy="262" r="2" fill="rgba(148,163,184,0.19)"/>
  <circle cx="929" cy="322" r="2" fill="rgba(148,163,184,0.10)"/>
  <circle cx="894" cy="382" r="2" fill="rgba(148,163,184,0.17)"/>
  <circle cx="929" cy="442" r="2" fill="rgba(148,163,184,0.19)"/>
  <circle cx="894" cy="502" r="2" fill="rgba(148,163,184,0.16)"/>
  <circle cx="929" cy="562" r="2" fill="rgba(148,163,184,0.11)"/>
  <circle cx="894" cy="622" r="2" fill="rgba(148,163,184,0.10)"/>
  <circle cx="964" cy="22" r="2" fill="rgba(148,163,184,0.13)"/>
  <circle cx="999" cy="82" r="2" fill="rgba(148,163,184,0.09)"/>
  <circle cx="964" cy="142" r="2" fill="rgba(148,163,184,0.19)"/>
  <circle cx="999" cy="202" r="2" fill="rgba(148,163,184,0.18)"/>
  <circle cx="964" cy="262" r="2" fill="rgba(148,163,184,0.13)"/>
  <circle cx="999" cy="322" r="2" fill="rgba(148,163,184,0.19)"/>
  <circle cx="964" cy="382" r="2" fill="rgba(148,163,184,0.12)"/>
  <circle cx="999" cy="442" r="2" fill="rgba(148,163,184,0.13)"/>
  <circle cx="964" cy="502" r="2" fill="rgba(148,163,184,0.13)"/>
  <circle cx="999" cy="562" r="2" fill="rgba(148,163,184,0.18)"/>
  <circle cx="964" cy="622" r="2" fill="rgba(148,163,184,0.22)"/>
  <circle cx="1034" cy="22" r="2" fill="rgba(148,163,184,0.13)"/>
  <circle cx="1069" cy="82" r="2" fill="rgba(148,163,184,0.20)"/>
  <circle cx="1034" cy="142" r="2" fill="rgba(148,163,184,0.22)"/>
  <circle cx="1069" cy="202" r="2" fill="rgba(148,163,184,0.21)"/>
  <circle cx="1034" cy="262" r="2" fill="rgba(148,163,184,0.22)"/>
  <circle cx="1069" cy="322" r="2" fill="rgba(148,163,184,0.16)"/>
  <circle cx="1034" cy="382" r="2" fill="rgba(148,163,184,0.12)"/>
  <circle cx="1069" cy="442" r="2" fill="rgba(148,163,184,0.13)"/>
  <circle cx="1034" cy="502" r="2" fill="rgba(148,163,184,0.13)"/>
  <circle cx="1069" cy="562" r="2" fill="rgba(148,163,184,0.12)"/>
  <circle cx="1034" cy="622" r="2" fill="rgba(148,163,184,0.13)"/>
  <circle cx="1104" cy="22" r="2" fill="rgba(148,163,184,0.10)"/>
  <circle cx="1139" cy="82" r="2" fill="rgba(148,163,184,0.21)"/>
  <circle cx="1104" cy="142" r="2" fill="rgba(148,163,184,0.16)"/>
  <circle cx="1139" cy="202" r="2" fill="rgba(148,163,184,0.08)"/>
  <circle cx="1104" cy="262" r="2" fill="rgba(148,163,184,0.13)"/>
  <circle cx="1139" cy="322" r="2" fill="rgba(148,163,184,0.16)"/>
  <circle cx="1104" cy="382" r="2" fill="rgba(148,163,184,0.08)"/>
  <circle cx="1139" cy="442" r="2" fill="rgba(148,163,184,0.13)"/>
  <circle cx="1104" cy="502" r="2" fill="rgba(148,163,184,0.22)"/>
  <circle cx="1139" cy="562" r="2" fill="rgba(148,163,184,0.17)"/>
  <circle cx="1104" cy="622" r="2" fill="rgba(148,163,184,0.19)"/>
  <circle cx="1174" cy="22" r="2" fill="rgba(148,163,184,0.22)"/>
  <circle cx="1209" cy="82" r="2" fill="rgba(148,163,184,0.14)"/>
  <circle cx="1174" cy="142" r="2" fill="rgba(148,163,184,0.14)"/>
  <circle cx="1209" cy="202" r="2" fill="rgba(148,163,184,0.22)"/>
  <circle cx="1174" cy="262" r="2" fill="rgba(148,163,184,0.17)"/>
  <circle cx="1209" cy="322" r="2" fill="rgba(148,163,184,0.14)"/>
  <circle cx="1174" cy="382" r="2" fill="rgba(148,163,184,0.10)"/>
  <circle cx="1209" cy="442" r="2" fill="rgba(148,163,184,0.17)"/>
  <circle cx="1174" cy="502" r="2" fill="rgba(148,163,184,0.08)"/>
  <circle cx="1209" cy="562" r="2" fill="rgba(148,163,184,0.13)"/>
  <circle cx="1174" cy="622" r="2" fill="rgba(148,163,184,0.11)"/>

  <!-- Netwerklijnen -->
  <line x1="134" y1="154" x2="244" y2="208" stroke="rgba(96,165,250,0.06)" stroke-width="1"/>
  <line x1="244" y1="208" x2="954" y2="101" stroke="rgba(96,165,250,0.08)" stroke-width="1"/>
  <line x1="954" y1="101" x2="1058" y2="254" stroke="rgba(96,165,250,0.10)" stroke-width="1"/>
  <line x1="1058" y1="254" x2="175" y2="484" stroke="rgba(96,165,250,0.12)" stroke-width="1"/>
  <line x1="175" y1="484" x2="1054" y2="524" stroke="rgba(96,165,250,0.14)" stroke-width="1"/>
  <circle cx="134" cy="154" r="3" fill="rgba(96,165,250,0.25)"/>
  <circle cx="134" cy="154" r="8" fill="rgba(96,165,250,0.06)"/>
  <circle cx="244" cy="208" r="3" fill="rgba(96,165,250,0.25)"/>
  <circle cx="244" cy="208" r="8" fill="rgba(96,165,250,0.06)"/>
  <circle cx="954" cy="101" r="3" fill="rgba(96,165,250,0.25)"/>
  <circle cx="954" cy="101" r="8" fill="rgba(96,165,250,0.06)"/>
  <circle cx="1058" cy="254" r="3" fill="rgba(96,165,250,0.25)"/>
  <circle cx="1058" cy="254" r="8" fill="rgba(96,165,250,0.06)"/>
  <circle cx="175" cy="484" r="3" fill="rgba(96,165,250,0.25)"/>
  <circle cx="175" cy="484" r="8" fill="rgba(96,165,250,0.06)"/>
  <circle cx="1054" cy="524" r="3" fill="rgba(96,165,250,0.25)"/>
  <circle cx="1054" cy="524" r="8" fill="rgba(96,165,250,0.06)"/>

  <!-- Horizontale accentlijn -->
  <line x1="0" y1="1" x2="1200" y2="1" stroke="rgba(96,165,250,0.12)" stroke-width="1"/>
  <line x1="0" y1="629" x2="1200" y2="629" stroke="rgba(96,165,250,0.08)" stroke-width="1"/>

  <!-- Topic-illustratie (gecentreerd) -->
  <g transform="translate(0,0)">
        <circle cx="600" cy="270" r="80" fill="none" stroke="rgba(96,165,250,0.35)" stroke-width="2"/>
        <line x1="545" y1="215" x2="655" y2="325" stroke="rgba(96,165,250,0.4)" stroke-width="1.5"/>
        <circle cx="555" cy="250" r="18" fill="rgba(96,165,250,0.2)" stroke="rgba(96,165,250,0.4)" stroke-width="1.5"/>
        <circle cx="645" cy="290" r="18" fill="rgba(96,165,250,0.2)" stroke="rgba(96,165,250,0.4)" stroke-width="1.5"/>
        <text x="600" y="380" text-anchor="middle" font-family="sans-serif" font-size="20" fill="rgba(96,165,250,0.5)" font-weight="bold">€€€</text>
  </g>

  <!-- Categorie badge -->
  <rect x="32" y="570" width="72" height="26" rx="13" fill="rgba(96,165,250,0.2)"/>
       <text x="44" y="588" font-family="system-ui, sans-serif" font-size="12" font-weight="600" fill="rgba(148,163,184,0.9)" letter-spacing="0.05em">UITLEG</text>

  <!-- Subtiele vpnr.nl branding (rechtsonder) -->
  <text x="1168" y="614" font-family="system-ui, sans-serif" font-size="11" fill="rgba(100,116,139,0.5)" text-anchor="end" letter-spacing="0.04em">vpnr.nl</text>
</svg>