<svg xmlns="http://www.w3.org/2000/svg" viewBox="0 0 1200 630" width="1200" height="630">
  <defs>
    <linearGradient id="bg" x1="0%" y1="0%" x2="100%" y2="100%">
      <stop offset="0%" style="stop-color:hsl(232,70%,8%)"/>
      <stop offset="50%" style="stop-color:hsl(242,65%,12%)"/>
      <stop offset="100%" style="stop-color:hsl(257,60%,9%)"/>
    </linearGradient>
    <radialGradient id="glow" cx="50%" cy="45%" r="40%">
      <stop offset="0%" style="stop-color:hsl(242,80%,30%);stop-opacity:0.18"/>
      <stop offset="100%" style="stop-color:transparent;stop-opacity:0"/>
    </radialGradient>
    <radialGradient id="glow2" cx="20%" cy="20%" r="30%">
      <stop offset="0%" style="stop-color:hsl(232,70%,40%);stop-opacity:0.08"/>
      <stop offset="100%" style="stop-color:transparent;stop-opacity:0"/>
    </radialGradient>
    <filter id="blur"><feGaussianBlur stdDeviation="40"/></filter>
  </defs>

  <!-- Achtergrond -->
  <rect width="1200" height="630" fill="url(#bg)"/>
  <rect width="1200" height="630" fill="url(#glow)"/>
  <rect width="1200" height="630" fill="url(#glow2)"/>

  <!-- Stippenraster -->
  <circle cx="7" cy="11" r="2" fill="rgba(148,163,184,0.17)"/>
  <circle cx="42" cy="71" r="2" fill="rgba(148,163,184,0.08)"/>
  <circle cx="7" cy="131" r="2" fill="rgba(148,163,184,0.21)"/>
  <circle cx="42" cy="191" r="2" fill="rgba(148,163,184,0.21)"/>
  <circle cx="7" cy="251" r="2" fill="rgba(148,163,184,0.14)"/>
  <circle cx="42" cy="311" r="2" fill="rgba(148,163,184,0.09)"/>
  <circle cx="7" cy="371" r="2" fill="rgba(148,163,184,0.12)"/>
  <circle cx="42" cy="431" r="2" fill="rgba(148,163,184,0.20)"/>
  <circle cx="7" cy="491" r="2" fill="rgba(148,163,184,0.20)"/>
  <circle cx="42" cy="551" r="2" fill="rgba(148,163,184,0.21)"/>
  <circle cx="7" cy="611" r="2" fill="rgba(148,163,184,0.08)"/>
  <circle cx="77" cy="11" r="2" fill="rgba(148,163,184,0.15)"/>
  <circle cx="112" cy="71" r="2" fill="rgba(148,163,184,0.09)"/>
  <circle cx="77" cy="131" r="2" fill="rgba(148,163,184,0.19)"/>
  <circle cx="112" cy="191" r="2" fill="rgba(148,163,184,0.22)"/>
  <circle cx="77" cy="251" r="2" fill="rgba(148,163,184,0.11)"/>
  <circle cx="112" cy="311" r="2" fill="rgba(148,163,184,0.16)"/>
  <circle cx="77" cy="371" r="2" fill="rgba(148,163,184,0.13)"/>
  <circle cx="112" cy="431" r="2" fill="rgba(148,163,184,0.20)"/>
  <circle cx="77" cy="491" r="2" fill="rgba(148,163,184,0.08)"/>
  <circle cx="112" cy="551" r="2" fill="rgba(148,163,184,0.19)"/>
  <circle cx="77" cy="611" r="2" fill="rgba(148,163,184,0.17)"/>
  <circle cx="147" cy="11" r="2" fill="rgba(148,163,184,0.18)"/>
  <circle cx="182" cy="71" r="2" fill="rgba(148,163,184,0.15)"/>
  <circle cx="147" cy="131" r="2" fill="rgba(148,163,184,0.19)"/>
  <circle cx="182" cy="191" r="2" fill="rgba(148,163,184,0.19)"/>
  <circle cx="147" cy="251" r="2" fill="rgba(148,163,184,0.15)"/>
  <circle cx="182" cy="311" r="2" fill="rgba(148,163,184,0.16)"/>
  <circle cx="147" cy="371" r="2" fill="rgba(148,163,184,0.22)"/>
  <circle cx="182" cy="431" r="2" fill="rgba(148,163,184,0.12)"/>
  <circle cx="147" cy="491" r="2" fill="rgba(148,163,184,0.12)"/>
  <circle cx="182" cy="551" r="2" fill="rgba(148,163,184,0.22)"/>
  <circle cx="147" cy="611" r="2" fill="rgba(148,163,184,0.09)"/>
  <circle cx="217" cy="11" r="2" fill="rgba(148,163,184,0.17)"/>
  <circle cx="252" cy="71" r="2" fill="rgba(148,163,184,0.20)"/>
  <circle cx="217" cy="131" r="2" fill="rgba(148,163,184,0.18)"/>
  <circle cx="252" cy="191" r="2" fill="rgba(148,163,184,0.21)"/>
  <circle cx="217" cy="251" r="2" fill="rgba(148,163,184,0.19)"/>
  <circle cx="252" cy="311" r="2" fill="rgba(148,163,184,0.15)"/>
  <circle cx="217" cy="371" r="2" fill="rgba(148,163,184,0.21)"/>
  <circle cx="252" cy="431" r="2" fill="rgba(148,163,184,0.16)"/>
  <circle cx="217" cy="491" r="2" fill="rgba(148,163,184,0.19)"/>
  <circle cx="252" cy="551" r="2" fill="rgba(148,163,184,0.21)"/>
  <circle cx="217" cy="611" r="2" fill="rgba(148,163,184,0.13)"/>
  <circle cx="287" cy="11" r="2" fill="rgba(148,163,184,0.08)"/>
  <circle cx="322" cy="71" r="2" fill="rgba(148,163,184,0.11)"/>
  <circle cx="287" cy="131" r="2" fill="rgba(148,163,184,0.19)"/>
  <circle cx="322" cy="191" r="2" fill="rgba(148,163,184,0.19)"/>
  <circle cx="287" cy="251" r="2" fill="rgba(148,163,184,0.21)"/>
  <circle cx="322" cy="311" r="2" fill="rgba(148,163,184,0.16)"/>
  <circle cx="287" cy="371" r="2" fill="rgba(148,163,184,0.22)"/>
  <circle cx="322" cy="431" r="2" fill="rgba(148,163,184,0.18)"/>
  <circle cx="287" cy="491" r="2" fill="rgba(148,163,184,0.18)"/>
  <circle cx="322" cy="551" r="2" fill="rgba(148,163,184,0.22)"/>
  <circle cx="287" cy="611" r="2" fill="rgba(148,163,184,0.15)"/>
  <circle cx="357" cy="11" r="2" fill="rgba(148,163,184,0.13)"/>
  <circle cx="392" cy="71" r="2" fill="rgba(148,163,184,0.22)"/>
  <circle cx="357" cy="131" r="2" fill="rgba(148,163,184,0.09)"/>
  <circle cx="392" cy="191" r="2" fill="rgba(148,163,184,0.21)"/>
  <circle cx="357" cy="251" r="2" fill="rgba(148,163,184,0.22)"/>
  <circle cx="392" cy="311" r="2" fill="rgba(148,163,184,0.12)"/>
  <circle cx="357" cy="371" r="2" fill="rgba(148,163,184,0.15)"/>
  <circle cx="392" cy="431" r="2" fill="rgba(148,163,184,0.13)"/>
  <circle cx="357" cy="491" r="2" fill="rgba(148,163,184,0.10)"/>
  <circle cx="392" cy="551" r="2" fill="rgba(148,163,184,0.09)"/>
  <circle cx="357" cy="611" r="2" fill="rgba(148,163,184,0.16)"/>
  <circle cx="427" cy="11" r="2" fill="rgba(148,163,184,0.17)"/>
  <circle cx="462" cy="71" r="2" fill="rgba(148,163,184,0.11)"/>
  <circle cx="427" cy="131" r="2" fill="rgba(148,163,184,0.16)"/>
  <circle cx="462" cy="191" r="2" fill="rgba(148,163,184,0.19)"/>
  <circle cx="427" cy="251" r="2" fill="rgba(148,163,184,0.09)"/>
  <circle cx="462" cy="311" r="2" fill="rgba(148,163,184,0.13)"/>
  <circle cx="427" cy="371" r="2" fill="rgba(148,163,184,0.10)"/>
  <circle cx="462" cy="431" r="2" fill="rgba(148,163,184,0.18)"/>
  <circle cx="427" cy="491" r="2" fill="rgba(148,163,184,0.21)"/>
  <circle cx="462" cy="551" r="2" fill="rgba(148,163,184,0.16)"/>
  <circle cx="427" cy="611" r="2" fill="rgba(148,163,184,0.15)"/>
  <circle cx="497" cy="11" r="2" fill="rgba(148,163,184,0.20)"/>
  <circle cx="532" cy="71" r="2" fill="rgba(148,163,184,0.17)"/>
  <circle cx="497" cy="131" r="2" fill="rgba(148,163,184,0.15)"/>
  <circle cx="532" cy="191" r="2" fill="rgba(148,163,184,0.12)"/>
  <circle cx="497" cy="251" r="2" fill="rgba(148,163,184,0.13)"/>
  <circle cx="532" cy="311" r="2" fill="rgba(148,163,184,0.18)"/>
  <circle cx="497" cy="371" r="2" fill="rgba(148,163,184,0.12)"/>
  <circle cx="532" cy="431" r="2" fill="rgba(148,163,184,0.16)"/>
  <circle cx="497" cy="491" r="2" fill="rgba(148,163,184,0.13)"/>
  <circle cx="532" cy="551" r="2" fill="rgba(148,163,184,0.12)"/>
  <circle cx="497" cy="611" r="2" fill="rgba(148,163,184,0.19)"/>
  <circle cx="567" cy="11" r="2" fill="rgba(148,163,184,0.21)"/>
  <circle cx="602" cy="71" r="2" fill="rgba(148,163,184,0.09)"/>
  <circle cx="567" cy="131" r="2" fill="rgba(148,163,184,0.19)"/>
  <circle cx="602" cy="191" r="2" fill="rgba(148,163,184,0.22)"/>
  <circle cx="567" cy="251" r="2" fill="rgba(148,163,184,0.11)"/>
  <circle cx="602" cy="311" r="2" fill="rgba(148,163,184,0.16)"/>
  <circle cx="567" cy="371" r="2" fill="rgba(148,163,184,0.22)"/>
  <circle cx="602" cy="431" r="2" fill="rgba(148,163,184,0.08)"/>
  <circle cx="567" cy="491" r="2" fill="rgba(148,163,184,0.11)"/>
  <circle cx="602" cy="551" r="2" fill="rgba(148,163,184,0.22)"/>
  <circle cx="567" cy="611" r="2" fill="rgba(148,163,184,0.20)"/>
  <circle cx="637" cy="11" r="2" fill="rgba(148,163,184,0.17)"/>
  <circle cx="672" cy="71" r="2" fill="rgba(148,163,184,0.14)"/>
  <circle cx="637" cy="131" r="2" fill="rgba(148,163,184,0.21)"/>
  <circle cx="672" cy="191" r="2" fill="rgba(148,163,184,0.21)"/>
  <circle cx="637" cy="251" r="2" fill="rgba(148,163,184,0.19)"/>
  <circle cx="672" cy="311" r="2" fill="rgba(148,163,184,0.09)"/>
  <circle cx="637" cy="371" r="2" fill="rgba(148,163,184,0.18)"/>
  <circle cx="672" cy="431" r="2" fill="rgba(148,163,184,0.22)"/>
  <circle cx="637" cy="491" r="2" fill="rgba(148,163,184,0.22)"/>
  <circle cx="672" cy="551" r="2" fill="rgba(148,163,184,0.18)"/>
  <circle cx="637" cy="611" r="2" fill="rgba(148,163,184,0.10)"/>
  <circle cx="707" cy="11" r="2" fill="rgba(148,163,184,0.18)"/>
  <circle cx="742" cy="71" r="2" fill="rgba(148,163,184,0.12)"/>
  <circle cx="707" cy="131" r="2" fill="rgba(148,163,184,0.10)"/>
  <circle cx="742" cy="191" r="2" fill="rgba(148,163,184,0.13)"/>
  <circle cx="707" cy="251" r="2" fill="rgba(148,163,184,0.08)"/>
  <circle cx="742" cy="311" r="2" fill="rgba(148,163,184,0.22)"/>
  <circle cx="707" cy="371" r="2" fill="rgba(148,163,184,0.19)"/>
  <circle cx="742" cy="431" r="2" fill="rgba(148,163,184,0.17)"/>
  <circle cx="707" cy="491" r="2" fill="rgba(148,163,184,0.20)"/>
  <circle cx="742" cy="551" r="2" fill="rgba(148,163,184,0.10)"/>
  <circle cx="707" cy="611" r="2" fill="rgba(148,163,184,0.14)"/>
  <circle cx="777" cy="11" r="2" fill="rgba(148,163,184,0.10)"/>
  <circle cx="812" cy="71" r="2" fill="rgba(148,163,184,0.16)"/>
  <circle cx="777" cy="131" r="2" fill="rgba(148,163,184,0.17)"/>
  <circle cx="812" cy="191" r="2" fill="rgba(148,163,184,0.17)"/>
  <circle cx="777" cy="251" r="2" fill="rgba(148,163,184,0.19)"/>
  <circle cx="812" cy="311" r="2" fill="rgba(148,163,184,0.20)"/>
  <circle cx="777" cy="371" r="2" fill="rgba(148,163,184,0.08)"/>
  <circle cx="812" cy="431" r="2" fill="rgba(148,163,184,0.10)"/>
  <circle cx="777" cy="491" r="2" fill="rgba(148,163,184,0.10)"/>
  <circle cx="812" cy="551" r="2" fill="rgba(148,163,184,0.17)"/>
  <circle cx="777" cy="611" r="2" fill="rgba(148,163,184,0.13)"/>
  <circle cx="847" cy="11" r="2" fill="rgba(148,163,184,0.08)"/>
  <circle cx="882" cy="71" r="2" fill="rgba(148,163,184,0.20)"/>
  <circle cx="847" cy="131" r="2" fill="rgba(148,163,184,0.10)"/>
  <circle cx="882" cy="191" r="2" fill="rgba(148,163,184,0.13)"/>
  <circle cx="847" cy="251" r="2" fill="rgba(148,163,184,0.11)"/>
  <circle cx="882" cy="311" r="2" fill="rgba(148,163,184,0.22)"/>
  <circle cx="847" cy="371" r="2" fill="rgba(148,163,184,0.13)"/>
  <circle cx="882" cy="431" r="2" fill="rgba(148,163,184,0.08)"/>
  <circle cx="847" cy="491" r="2" fill="rgba(148,163,184,0.11)"/>
  <circle cx="882" cy="551" r="2" fill="rgba(148,163,184,0.13)"/>
  <circle cx="847" cy="611" r="2" fill="rgba(148,163,184,0.20)"/>
  <circle cx="917" cy="11" r="2" fill="rgba(148,163,184,0.16)"/>
  <circle cx="952" cy="71" r="2" fill="rgba(148,163,184,0.22)"/>
  <circle cx="917" cy="131" r="2" fill="rgba(148,163,184,0.12)"/>
  <circle cx="952" cy="191" r="2" fill="rgba(148,163,184,0.15)"/>
  <circle cx="917" cy="251" r="2" fill="rgba(148,163,184,0.10)"/>
  <circle cx="952" cy="311" r="2" fill="rgba(148,163,184,0.09)"/>
  <circle cx="917" cy="371" r="2" fill="rgba(148,163,184,0.21)"/>
  <circle cx="952" cy="431" r="2" fill="rgba(148,163,184,0.19)"/>
  <circle cx="917" cy="491" r="2" fill="rgba(148,163,184,0.22)"/>
  <circle cx="952" cy="551" r="2" fill="rgba(148,163,184,0.12)"/>
  <circle cx="917" cy="611" r="2" fill="rgba(148,163,184,0.16)"/>
  <circle cx="987" cy="11" r="2" fill="rgba(148,163,184,0.21)"/>
  <circle cx="1022" cy="71" r="2" fill="rgba(148,163,184,0.12)"/>
  <circle cx="987" cy="131" r="2" fill="rgba(148,163,184,0.10)"/>
  <circle cx="1022" cy="191" r="2" fill="rgba(148,163,184,0.10)"/>
  <circle cx="987" cy="251" r="2" fill="rgba(148,163,184,0.12)"/>
  <circle cx="1022" cy="311" r="2" fill="rgba(148,163,184,0.22)"/>
  <circle cx="987" cy="371" r="2" fill="rgba(148,163,184,0.19)"/>
  <circle cx="1022" cy="431" r="2" fill="rgba(148,163,184,0.21)"/>
  <circle cx="987" cy="491" r="2" fill="rgba(148,163,184,0.21)"/>
  <circle cx="1022" cy="551" r="2" fill="rgba(148,163,184,0.10)"/>
  <circle cx="987" cy="611" r="2" fill="rgba(148,163,184,0.18)"/>
  <circle cx="1057" cy="11" r="2" fill="rgba(148,163,184,0.10)"/>
  <circle cx="1092" cy="71" r="2" fill="rgba(148,163,184,0.13)"/>
  <circle cx="1057" cy="131" r="2" fill="rgba(148,163,184,0.21)"/>
  <circle cx="1092" cy="191" r="2" fill="rgba(148,163,184,0.21)"/>
  <circle cx="1057" cy="251" r="2" fill="rgba(148,163,184,0.22)"/>
  <circle cx="1092" cy="311" r="2" fill="rgba(148,163,184,0.18)"/>
  <circle cx="1057" cy="371" r="2" fill="rgba(148,163,184,0.09)"/>
  <circle cx="1092" cy="431" r="2" fill="rgba(148,163,184,0.19)"/>
  <circle cx="1057" cy="491" r="2" fill="rgba(148,163,184,0.19)"/>
  <circle cx="1092" cy="551" r="2" fill="rgba(148,163,184,0.09)"/>
  <circle cx="1057" cy="611" r="2" fill="rgba(148,163,184,0.16)"/>
  <circle cx="1127" cy="11" r="2" fill="rgba(148,163,184,0.17)"/>
  <circle cx="1162" cy="71" r="2" fill="rgba(148,163,184,0.14)"/>
  <circle cx="1127" cy="131" r="2" fill="rgba(148,163,184,0.11)"/>
  <circle cx="1162" cy="191" r="2" fill="rgba(148,163,184,0.08)"/>
  <circle cx="1127" cy="251" r="2" fill="rgba(148,163,184,0.15)"/>
  <circle cx="1162" cy="311" r="2" fill="rgba(148,163,184,0.14)"/>
  <circle cx="1127" cy="371" r="2" fill="rgba(148,163,184,0.08)"/>
  <circle cx="1162" cy="431" r="2" fill="rgba(148,163,184,0.18)"/>
  <circle cx="1127" cy="491" r="2" fill="rgba(148,163,184,0.15)"/>
  <circle cx="1162" cy="551" r="2" fill="rgba(148,163,184,0.08)"/>
  <circle cx="1127" cy="611" r="2" fill="rgba(148,163,184,0.21)"/>
  <circle cx="1197" cy="11" r="2" fill="rgba(148,163,184,0.18)"/>
  <circle cx="1232" cy="71" r="2" fill="rgba(148,163,184,0.12)"/>
  <circle cx="1197" cy="131" r="2" fill="rgba(148,163,184,0.09)"/>
  <circle cx="1232" cy="191" r="2" fill="rgba(148,163,184,0.12)"/>
  <circle cx="1197" cy="251" r="2" fill="rgba(148,163,184,0.11)"/>
  <circle cx="1232" cy="311" r="2" fill="rgba(148,163,184,0.21)"/>
  <circle cx="1197" cy="371" r="2" fill="rgba(148,163,184,0.18)"/>
  <circle cx="1232" cy="431" r="2" fill="rgba(148,163,184,0.20)"/>
  <circle cx="1197" cy="491" r="2" fill="rgba(148,163,184,0.08)"/>
  <circle cx="1232" cy="551" r="2" fill="rgba(148,163,184,0.09)"/>
  <circle cx="1197" cy="611" r="2" fill="rgba(148,163,184,0.17)"/>

  <!-- Netwerklijnen -->
  <line x1="127" y1="107" x2="283" y2="246" stroke="rgba(96,165,250,0.06)" stroke-width="1"/>
  <line x1="283" y1="246" x2="907" y2="135" stroke="rgba(96,165,250,0.08)" stroke-width="1"/>
  <line x1="907" y1="135" x2="1096" y2="267" stroke="rgba(96,165,250,0.10)" stroke-width="1"/>
  <line x1="1096" y1="267" x2="172" y2="477" stroke="rgba(96,165,250,0.12)" stroke-width="1"/>
  <line x1="172" y1="477" x2="1067" y2="503" stroke="rgba(96,165,250,0.14)" stroke-width="1"/>
  <circle cx="127" cy="107" r="3" fill="rgba(96,165,250,0.25)"/>
  <circle cx="127" cy="107" r="8" fill="rgba(96,165,250,0.06)"/>
  <circle cx="283" cy="246" r="3" fill="rgba(96,165,250,0.25)"/>
  <circle cx="283" cy="246" r="8" fill="rgba(96,165,250,0.06)"/>
  <circle cx="907" cy="135" r="3" fill="rgba(96,165,250,0.25)"/>
  <circle cx="907" cy="135" r="8" fill="rgba(96,165,250,0.06)"/>
  <circle cx="1096" cy="267" r="3" fill="rgba(96,165,250,0.25)"/>
  <circle cx="1096" cy="267" r="8" fill="rgba(96,165,250,0.06)"/>
  <circle cx="172" cy="477" r="3" fill="rgba(96,165,250,0.25)"/>
  <circle cx="172" cy="477" r="8" fill="rgba(96,165,250,0.06)"/>
  <circle cx="1067" cy="503" r="3" fill="rgba(96,165,250,0.25)"/>
  <circle cx="1067" cy="503" r="8" fill="rgba(96,165,250,0.06)"/>

  <!-- Horizontale accentlijn -->
  <line x1="0" y1="1" x2="1200" y2="1" stroke="rgba(96,165,250,0.12)" stroke-width="1"/>
  <line x1="0" y1="629" x2="1200" y2="629" stroke="rgba(96,165,250,0.08)" stroke-width="1"/>

  <!-- Topic-illustratie (gecentreerd) -->
  <g transform="translate(0,0)">
        <circle cx="600" cy="270" r="80" fill="none" stroke="rgba(96,165,250,0.35)" stroke-width="2"/>
        <line x1="545" y1="215" x2="655" y2="325" stroke="rgba(96,165,250,0.4)" stroke-width="1.5"/>
        <circle cx="555" cy="250" r="18" fill="rgba(96,165,250,0.2)" stroke="rgba(96,165,250,0.4)" stroke-width="1.5"/>
        <circle cx="645" cy="290" r="18" fill="rgba(96,165,250,0.2)" stroke="rgba(96,165,250,0.4)" stroke-width="1.5"/>
        <text x="600" y="380" text-anchor="middle" font-family="sans-serif" font-size="20" fill="rgba(96,165,250,0.5)" font-weight="bold">€€€</text>
  </g>

  <!-- Categorie badge -->
  <rect x="32" y="570" width="64" height="26" rx="13" fill="rgba(96,165,250,0.2)"/>
       <text x="44" y="588" font-family="system-ui, sans-serif" font-size="12" font-weight="600" fill="rgba(148,163,184,0.9)" letter-spacing="0.05em">DEALS</text>

  <!-- Subtiele vpnr.nl branding (rechtsonder) -->
  <text x="1168" y="614" font-family="system-ui, sans-serif" font-size="11" fill="rgba(100,116,139,0.5)" text-anchor="end" letter-spacing="0.04em">vpnr.nl</text>
</svg>