<svg xmlns="http://www.w3.org/2000/svg" viewBox="0 0 1200 630" width="1200" height="630">
  <defs>
    <linearGradient id="bg" x1="0%" y1="0%" x2="100%" y2="100%">
      <stop offset="0%" style="stop-color:hsl(222,70%,8%)"/>
      <stop offset="50%" style="stop-color:hsl(262,65%,12%)"/>
      <stop offset="100%" style="stop-color:hsl(257,60%,9%)"/>
    </linearGradient>
    <radialGradient id="glow" cx="50%" cy="45%" r="40%">
      <stop offset="0%" style="stop-color:hsl(262,80%,30%);stop-opacity:0.18"/>
      <stop offset="100%" style="stop-color:transparent;stop-opacity:0"/>
    </radialGradient>
    <radialGradient id="glow2" cx="20%" cy="20%" r="30%">
      <stop offset="0%" style="stop-color:hsl(222,70%,40%);stop-opacity:0.08"/>
      <stop offset="100%" style="stop-color:transparent;stop-opacity:0"/>
    </radialGradient>
    <filter id="blur"><feGaussianBlur stdDeviation="40"/></filter>
  </defs>

  <!-- Achtergrond -->
  <rect width="1200" height="630" fill="url(#bg)"/>
  <rect width="1200" height="630" fill="url(#glow)"/>
  <rect width="1200" height="630" fill="url(#glow2)"/>

  <!-- Stippenraster -->
  <circle cx="27" cy="9" r="2" fill="rgba(148,163,184,0.17)"/>
  <circle cx="62" cy="69" r="2" fill="rgba(148,163,184,0.10)"/>
  <circle cx="27" cy="129" r="2" fill="rgba(148,163,184,0.20)"/>
  <circle cx="62" cy="189" r="2" fill="rgba(148,163,184,0.21)"/>
  <circle cx="27" cy="249" r="2" fill="rgba(148,163,184,0.19)"/>
  <circle cx="62" cy="309" r="2" fill="rgba(148,163,184,0.17)"/>
  <circle cx="27" cy="369" r="2" fill="rgba(148,163,184,0.08)"/>
  <circle cx="62" cy="429" r="2" fill="rgba(148,163,184,0.16)"/>
  <circle cx="27" cy="489" r="2" fill="rgba(148,163,184,0.17)"/>
  <circle cx="62" cy="549" r="2" fill="rgba(148,163,184,0.08)"/>
  <circle cx="27" cy="609" r="2" fill="rgba(148,163,184,0.13)"/>
  <circle cx="97" cy="9" r="2" fill="rgba(148,163,184,0.21)"/>
  <circle cx="132" cy="69" r="2" fill="rgba(148,163,184,0.21)"/>
  <circle cx="97" cy="129" r="2" fill="rgba(148,163,184,0.08)"/>
  <circle cx="132" cy="189" r="2" fill="rgba(148,163,184,0.22)"/>
  <circle cx="97" cy="249" r="2" fill="rgba(148,163,184,0.18)"/>
  <circle cx="132" cy="309" r="2" fill="rgba(148,163,184,0.11)"/>
  <circle cx="97" cy="369" r="2" fill="rgba(148,163,184,0.14)"/>
  <circle cx="132" cy="429" r="2" fill="rgba(148,163,184,0.09)"/>
  <circle cx="97" cy="489" r="2" fill="rgba(148,163,184,0.08)"/>
  <circle cx="132" cy="549" r="2" fill="rgba(148,163,184,0.08)"/>
  <circle cx="97" cy="609" r="2" fill="rgba(148,163,184,0.12)"/>
  <circle cx="167" cy="9" r="2" fill="rgba(148,163,184,0.21)"/>
  <circle cx="202" cy="69" r="2" fill="rgba(148,163,184,0.12)"/>
  <circle cx="167" cy="129" r="2" fill="rgba(148,163,184,0.19)"/>
  <circle cx="202" cy="189" r="2" fill="rgba(148,163,184,0.20)"/>
  <circle cx="167" cy="249" r="2" fill="rgba(148,163,184,0.08)"/>
  <circle cx="202" cy="309" r="2" fill="rgba(148,163,184,0.16)"/>
  <circle cx="167" cy="369" r="2" fill="rgba(148,163,184,0.13)"/>
  <circle cx="202" cy="429" r="2" fill="rgba(148,163,184,0.17)"/>
  <circle cx="167" cy="489" r="2" fill="rgba(148,163,184,0.18)"/>
  <circle cx="202" cy="549" r="2" fill="rgba(148,163,184,0.19)"/>
  <circle cx="167" cy="609" r="2" fill="rgba(148,163,184,0.14)"/>
  <circle cx="237" cy="9" r="2" fill="rgba(148,163,184,0.16)"/>
  <circle cx="272" cy="69" r="2" fill="rgba(148,163,184,0.20)"/>
  <circle cx="237" cy="129" r="2" fill="rgba(148,163,184,0.15)"/>
  <circle cx="272" cy="189" r="2" fill="rgba(148,163,184,0.13)"/>
  <circle cx="237" cy="249" r="2" fill="rgba(148,163,184,0.10)"/>
  <circle cx="272" cy="309" r="2" fill="rgba(148,163,184,0.18)"/>
  <circle cx="237" cy="369" r="2" fill="rgba(148,163,184,0.21)"/>
  <circle cx="272" cy="429" r="2" fill="rgba(148,163,184,0.16)"/>
  <circle cx="237" cy="489" r="2" fill="rgba(148,163,184,0.14)"/>
  <circle cx="272" cy="549" r="2" fill="rgba(148,163,184,0.15)"/>
  <circle cx="237" cy="609" r="2" fill="rgba(148,163,184,0.19)"/>
  <circle cx="307" cy="9" r="2" fill="rgba(148,163,184,0.18)"/>
  <circle cx="342" cy="69" r="2" fill="rgba(148,163,184,0.15)"/>
  <circle cx="307" cy="129" r="2" fill="rgba(148,163,184,0.16)"/>
  <circle cx="342" cy="189" r="2" fill="rgba(148,163,184,0.17)"/>
  <circle cx="307" cy="249" r="2" fill="rgba(148,163,184,0.14)"/>
  <circle cx="342" cy="309" r="2" fill="rgba(148,163,184,0.13)"/>
  <circle cx="307" cy="369" r="2" fill="rgba(148,163,184,0.19)"/>
  <circle cx="342" cy="429" r="2" fill="rgba(148,163,184,0.11)"/>
  <circle cx="307" cy="489" r="2" fill="rgba(148,163,184,0.12)"/>
  <circle cx="342" cy="549" r="2" fill="rgba(148,163,184,0.19)"/>
  <circle cx="307" cy="609" r="2" fill="rgba(148,163,184,0.08)"/>
  <circle cx="377" cy="9" r="2" fill="rgba(148,163,184,0.13)"/>
  <circle cx="412" cy="69" r="2" fill="rgba(148,163,184,0.16)"/>
  <circle cx="377" cy="129" r="2" fill="rgba(148,163,184,0.14)"/>
  <circle cx="412" cy="189" r="2" fill="rgba(148,163,184,0.12)"/>
  <circle cx="377" cy="249" r="2" fill="rgba(148,163,184,0.16)"/>
  <circle cx="412" cy="309" r="2" fill="rgba(148,163,184,0.17)"/>
  <circle cx="377" cy="369" r="2" fill="rgba(148,163,184,0.11)"/>
  <circle cx="412" cy="429" r="2" fill="rgba(148,163,184,0.19)"/>
  <circle cx="377" cy="489" r="2" fill="rgba(148,163,184,0.17)"/>
  <circle cx="412" cy="549" r="2" fill="rgba(148,163,184,0.11)"/>
  <circle cx="377" cy="609" r="2" fill="rgba(148,163,184,0.22)"/>
  <circle cx="447" cy="9" r="2" fill="rgba(148,163,184,0.17)"/>
  <circle cx="482" cy="69" r="2" fill="rgba(148,163,184,0.17)"/>
  <circle cx="447" cy="129" r="2" fill="rgba(148,163,184,0.22)"/>
  <circle cx="482" cy="189" r="2" fill="rgba(148,163,184,0.20)"/>
  <circle cx="447" cy="249" r="2" fill="rgba(148,163,184,0.12)"/>
  <circle cx="482" cy="309" r="2" fill="rgba(148,163,184,0.10)"/>
  <circle cx="447" cy="369" r="2" fill="rgba(148,163,184,0.13)"/>
  <circle cx="482" cy="429" r="2" fill="rgba(148,163,184,0.18)"/>
  <circle cx="447" cy="489" r="2" fill="rgba(148,163,184,0.16)"/>
  <circle cx="482" cy="549" r="2" fill="rgba(148,163,184,0.22)"/>
  <circle cx="447" cy="609" r="2" fill="rgba(148,163,184,0.21)"/>
  <circle cx="517" cy="9" r="2" fill="rgba(148,163,184,0.16)"/>
  <circle cx="552" cy="69" r="2" fill="rgba(148,163,184,0.22)"/>
  <circle cx="517" cy="129" r="2" fill="rgba(148,163,184,0.17)"/>
  <circle cx="552" cy="189" r="2" fill="rgba(148,163,184,0.15)"/>
  <circle cx="517" cy="249" r="2" fill="rgba(148,163,184,0.19)"/>
  <circle cx="552" cy="309" r="2" fill="rgba(148,163,184,0.20)"/>
  <circle cx="517" cy="369" r="2" fill="rgba(148,163,184,0.14)"/>
  <circle cx="552" cy="429" r="2" fill="rgba(148,163,184,0.22)"/>
  <circle cx="517" cy="489" r="2" fill="rgba(148,163,184,0.20)"/>
  <circle cx="552" cy="549" r="2" fill="rgba(148,163,184,0.14)"/>
  <circle cx="517" cy="609" r="2" fill="rgba(148,163,184,0.10)"/>
  <circle cx="587" cy="9" r="2" fill="rgba(148,163,184,0.20)"/>
  <circle cx="622" cy="69" r="2" fill="rgba(148,163,184,0.16)"/>
  <circle cx="587" cy="129" r="2" fill="rgba(148,163,184,0.08)"/>
  <circle cx="622" cy="189" r="2" fill="rgba(148,163,184,0.22)"/>
  <circle cx="587" cy="249" r="2" fill="rgba(148,163,184,0.18)"/>
  <circle cx="622" cy="309" r="2" fill="rgba(148,163,184,0.11)"/>
  <circle cx="587" cy="369" r="2" fill="rgba(148,163,184,0.20)"/>
  <circle cx="622" cy="429" r="2" fill="rgba(148,163,184,0.21)"/>
  <circle cx="587" cy="489" r="2" fill="rgba(148,163,184,0.20)"/>
  <circle cx="622" cy="549" r="2" fill="rgba(148,163,184,0.20)"/>
  <circle cx="587" cy="609" r="2" fill="rgba(148,163,184,0.09)"/>
  <circle cx="657" cy="9" r="2" fill="rgba(148,163,184,0.22)"/>
  <circle cx="692" cy="69" r="2" fill="rgba(148,163,184,0.14)"/>
  <circle cx="657" cy="129" r="2" fill="rgba(148,163,184,0.18)"/>
  <circle cx="692" cy="189" r="2" fill="rgba(148,163,184,0.19)"/>
  <circle cx="657" cy="249" r="2" fill="rgba(148,163,184,0.22)"/>
  <circle cx="692" cy="309" r="2" fill="rgba(148,163,184,0.15)"/>
  <circle cx="657" cy="369" r="2" fill="rgba(148,163,184,0.21)"/>
  <circle cx="692" cy="429" r="2" fill="rgba(148,163,184,0.19)"/>
  <circle cx="657" cy="489" r="2" fill="rgba(148,163,184,0.20)"/>
  <circle cx="692" cy="549" r="2" fill="rgba(148,163,184,0.21)"/>
  <circle cx="657" cy="609" r="2" fill="rgba(148,163,184,0.16)"/>
  <circle cx="727" cy="9" r="2" fill="rgba(148,163,184,0.18)"/>
  <circle cx="762" cy="69" r="2" fill="rgba(148,163,184,0.09)"/>
  <circle cx="727" cy="129" r="2" fill="rgba(148,163,184,0.19)"/>
  <circle cx="762" cy="189" r="2" fill="rgba(148,163,184,0.17)"/>
  <circle cx="727" cy="249" r="2" fill="rgba(148,163,184,0.14)"/>
  <circle cx="762" cy="309" r="2" fill="rgba(148,163,184,0.22)"/>
  <circle cx="727" cy="369" r="2" fill="rgba(148,163,184,0.16)"/>
  <circle cx="762" cy="429" r="2" fill="rgba(148,163,184,0.17)"/>
  <circle cx="727" cy="489" r="2" fill="rgba(148,163,184,0.15)"/>
  <circle cx="762" cy="549" r="2" fill="rgba(148,163,184,0.16)"/>
  <circle cx="727" cy="609" r="2" fill="rgba(148,163,184,0.20)"/>
  <circle cx="797" cy="9" r="2" fill="rgba(148,163,184,0.15)"/>
  <circle cx="832" cy="69" r="2" fill="rgba(148,163,184,0.20)"/>
  <circle cx="797" cy="129" r="2" fill="rgba(148,163,184,0.15)"/>
  <circle cx="832" cy="189" r="2" fill="rgba(148,163,184,0.17)"/>
  <circle cx="797" cy="249" r="2" fill="rgba(148,163,184,0.11)"/>
  <circle cx="832" cy="309" r="2" fill="rgba(148,163,184,0.12)"/>
  <circle cx="797" cy="369" r="2" fill="rgba(148,163,184,0.09)"/>
  <circle cx="832" cy="429" r="2" fill="rgba(148,163,184,0.20)"/>
  <circle cx="797" cy="489" r="2" fill="rgba(148,163,184,0.22)"/>
  <circle cx="832" cy="549" r="2" fill="rgba(148,163,184,0.15)"/>
  <circle cx="797" cy="609" r="2" fill="rgba(148,163,184,0.17)"/>
  <circle cx="867" cy="9" r="2" fill="rgba(148,163,184,0.16)"/>
  <circle cx="902" cy="69" r="2" fill="rgba(148,163,184,0.21)"/>
  <circle cx="867" cy="129" r="2" fill="rgba(148,163,184,0.20)"/>
  <circle cx="902" cy="189" r="2" fill="rgba(148,163,184,0.22)"/>
  <circle cx="867" cy="249" r="2" fill="rgba(148,163,184,0.10)"/>
  <circle cx="902" cy="309" r="2" fill="rgba(148,163,184,0.17)"/>
  <circle cx="867" cy="369" r="2" fill="rgba(148,163,184,0.14)"/>
  <circle cx="902" cy="429" r="2" fill="rgba(148,163,184,0.19)"/>
  <circle cx="867" cy="489" r="2" fill="rgba(148,163,184,0.21)"/>
  <circle cx="902" cy="549" r="2" fill="rgba(148,163,184,0.20)"/>
  <circle cx="867" cy="609" r="2" fill="rgba(148,163,184,0.16)"/>
  <circle cx="937" cy="9" r="2" fill="rgba(148,163,184,0.21)"/>
  <circle cx="972" cy="69" r="2" fill="rgba(148,163,184,0.11)"/>
  <circle cx="937" cy="129" r="2" fill="rgba(148,163,184,0.21)"/>
  <circle cx="972" cy="189" r="2" fill="rgba(148,163,184,0.08)"/>
  <circle cx="937" cy="249" r="2" fill="rgba(148,163,184,0.11)"/>
  <circle cx="972" cy="309" r="2" fill="rgba(148,163,184,0.18)"/>
  <circle cx="937" cy="369" r="2" fill="rgba(148,163,184,0.09)"/>
  <circle cx="972" cy="429" r="2" fill="rgba(148,163,184,0.08)"/>
  <circle cx="937" cy="489" r="2" fill="rgba(148,163,184,0.10)"/>
  <circle cx="972" cy="549" r="2" fill="rgba(148,163,184,0.09)"/>
  <circle cx="937" cy="609" r="2" fill="rgba(148,163,184,0.20)"/>
  <circle cx="1007" cy="9" r="2" fill="rgba(148,163,184,0.11)"/>
  <circle cx="1042" cy="69" r="2" fill="rgba(148,163,184,0.13)"/>
  <circle cx="1007" cy="129" r="2" fill="rgba(148,163,184,0.15)"/>
  <circle cx="1042" cy="189" r="2" fill="rgba(148,163,184,0.17)"/>
  <circle cx="1007" cy="249" r="2" fill="rgba(148,163,184,0.20)"/>
  <circle cx="1042" cy="309" r="2" fill="rgba(148,163,184,0.12)"/>
  <circle cx="1007" cy="369" r="2" fill="rgba(148,163,184,0.09)"/>
  <circle cx="1042" cy="429" r="2" fill="rgba(148,163,184,0.14)"/>
  <circle cx="1007" cy="489" r="2" fill="rgba(148,163,184,0.16)"/>
  <circle cx="1042" cy="549" r="2" fill="rgba(148,163,184,0.15)"/>
  <circle cx="1007" cy="609" r="2" fill="rgba(148,163,184,0.11)"/>
  <circle cx="1077" cy="9" r="2" fill="rgba(148,163,184,0.22)"/>
  <circle cx="1112" cy="69" r="2" fill="rgba(148,163,184,0.19)"/>
  <circle cx="1077" cy="129" r="2" fill="rgba(148,163,184,0.08)"/>
  <circle cx="1112" cy="189" r="2" fill="rgba(148,163,184,0.22)"/>
  <circle cx="1077" cy="249" r="2" fill="rgba(148,163,184,0.18)"/>
  <circle cx="1112" cy="309" r="2" fill="rgba(148,163,184,0.11)"/>
  <circle cx="1077" cy="369" r="2" fill="rgba(148,163,184,0.14)"/>
  <circle cx="1112" cy="429" r="2" fill="rgba(148,163,184,0.09)"/>
  <circle cx="1077" cy="489" r="2" fill="rgba(148,163,184,0.08)"/>
  <circle cx="1112" cy="549" r="2" fill="rgba(148,163,184,0.08)"/>
  <circle cx="1077" cy="609" r="2" fill="rgba(148,163,184,0.12)"/>
  <circle cx="1147" cy="9" r="2" fill="rgba(148,163,184,0.20)"/>
  <circle cx="1182" cy="69" r="2" fill="rgba(148,163,184,0.12)"/>
  <circle cx="1147" cy="129" r="2" fill="rgba(148,163,184,0.22)"/>
  <circle cx="1182" cy="189" r="2" fill="rgba(148,163,184,0.09)"/>
  <circle cx="1147" cy="249" r="2" fill="rgba(148,163,184,0.20)"/>
  <circle cx="1182" cy="309" r="2" fill="rgba(148,163,184,0.19)"/>
  <circle cx="1147" cy="369" r="2" fill="rgba(148,163,184,0.10)"/>
  <circle cx="1182" cy="429" r="2" fill="rgba(148,163,184,0.17)"/>
  <circle cx="1147" cy="489" r="2" fill="rgba(148,163,184,0.19)"/>
  <circle cx="1182" cy="549" r="2" fill="rgba(148,163,184,0.10)"/>
  <circle cx="1147" cy="609" r="2" fill="rgba(148,163,184,0.14)"/>

  <!-- Netwerklijnen -->
  <line x1="167" y1="127" x2="238" y2="236" stroke="rgba(96,165,250,0.06)" stroke-width="1"/>
  <line x1="238" y1="236" x2="927" y2="104" stroke="rgba(96,165,250,0.08)" stroke-width="1"/>
  <line x1="927" y1="104" x2="1086" y2="207" stroke="rgba(96,165,250,0.10)" stroke-width="1"/>
  <line x1="1086" y1="207" x2="222" y2="517" stroke="rgba(96,165,250,0.12)" stroke-width="1"/>
  <line x1="222" y1="517" x2="1007" y2="498" stroke="rgba(96,165,250,0.14)" stroke-width="1"/>
  <circle cx="167" cy="127" r="3" fill="rgba(96,165,250,0.25)"/>
  <circle cx="167" cy="127" r="8" fill="rgba(96,165,250,0.06)"/>
  <circle cx="238" cy="236" r="3" fill="rgba(96,165,250,0.25)"/>
  <circle cx="238" cy="236" r="8" fill="rgba(96,165,250,0.06)"/>
  <circle cx="927" cy="104" r="3" fill="rgba(96,165,250,0.25)"/>
  <circle cx="927" cy="104" r="8" fill="rgba(96,165,250,0.06)"/>
  <circle cx="1086" cy="207" r="3" fill="rgba(96,165,250,0.25)"/>
  <circle cx="1086" cy="207" r="8" fill="rgba(96,165,250,0.06)"/>
  <circle cx="222" cy="517" r="3" fill="rgba(96,165,250,0.25)"/>
  <circle cx="222" cy="517" r="8" fill="rgba(96,165,250,0.06)"/>
  <circle cx="1007" cy="498" r="3" fill="rgba(96,165,250,0.25)"/>
  <circle cx="1007" cy="498" r="8" fill="rgba(96,165,250,0.06)"/>

  <!-- Horizontale accentlijn -->
  <line x1="0" y1="1" x2="1200" y2="1" stroke="rgba(96,165,250,0.12)" stroke-width="1"/>
  <line x1="0" y1="629" x2="1200" y2="629" stroke="rgba(96,165,250,0.08)" stroke-width="1"/>

  <!-- Topic-illustratie (gecentreerd) -->
  <g transform="translate(0,0)">
        <circle cx="600" cy="300" r="110" fill="none" stroke="rgba(96,165,250,0.3)" stroke-width="1.5"/>
        <ellipse cx="600" cy="300" rx="55" ry="110" fill="none" stroke="rgba(96,165,250,0.25)" stroke-width="1"/>
        <line x1="490" y1="300" x2="710" y2="300" stroke="rgba(96,165,250,0.2)" stroke-width="1"/>
        <ellipse cx="600" cy="300" rx="110" ry="40" fill="none" stroke="rgba(96,165,250,0.2)" stroke-width="1"/>
        <circle cx="600" cy="300" r="6" fill="rgba(96,165,250,0.7)"/>
  </g>

  <!-- Categorie badge -->
  <rect x="32" y="570" width="56" height="26" rx="13" fill="rgba(96,165,250,0.2)"/>
       <text x="44" y="588" font-family="system-ui, sans-serif" font-size="12" font-weight="600" fill="rgba(148,163,184,0.9)" letter-spacing="0.05em">GIDS</text>

  <!-- Subtiele vpnr.nl branding (rechtsonder) -->
  <text x="1168" y="614" font-family="system-ui, sans-serif" font-size="11" fill="rgba(100,116,139,0.5)" text-anchor="end" letter-spacing="0.04em">vpnr.nl</text>
</svg>