<svg xmlns="http://www.w3.org/2000/svg" viewBox="0 0 1200 630" width="1200" height="630">
  <defs>
    <linearGradient id="bg" x1="0%" y1="0%" x2="100%" y2="100%">
      <stop offset="0%" style="stop-color:hsl(232,70%,8%)"/>
      <stop offset="50%" style="stop-color:hsl(237,65%,12%)"/>
      <stop offset="100%" style="stop-color:hsl(262,60%,9%)"/>
    </linearGradient>
    <radialGradient id="glow" cx="50%" cy="45%" r="40%">
      <stop offset="0%" style="stop-color:hsl(237,80%,30%);stop-opacity:0.18"/>
      <stop offset="100%" style="stop-color:transparent;stop-opacity:0"/>
    </radialGradient>
    <radialGradient id="glow2" cx="20%" cy="20%" r="30%">
      <stop offset="0%" style="stop-color:hsl(232,70%,40%);stop-opacity:0.08"/>
      <stop offset="100%" style="stop-color:transparent;stop-opacity:0"/>
    </radialGradient>
    <filter id="blur"><feGaussianBlur stdDeviation="40"/></filter>
  </defs>

  <!-- Achtergrond -->
  <rect width="1200" height="630" fill="url(#bg)"/>
  <rect width="1200" height="630" fill="url(#glow)"/>
  <rect width="1200" height="630" fill="url(#glow2)"/>

  <!-- Stippenraster -->
  <circle cx="32" cy="15" r="2" fill="rgba(148,163,184,0.12)"/>
  <circle cx="67" cy="75" r="2" fill="rgba(148,163,184,0.14)"/>
  <circle cx="32" cy="135" r="2" fill="rgba(148,163,184,0.21)"/>
  <circle cx="67" cy="195" r="2" fill="rgba(148,163,184,0.21)"/>
  <circle cx="32" cy="255" r="2" fill="rgba(148,163,184,0.20)"/>
  <circle cx="67" cy="315" r="2" fill="rgba(148,163,184,0.09)"/>
  <circle cx="32" cy="375" r="2" fill="rgba(148,163,184,0.19)"/>
  <circle cx="67" cy="435" r="2" fill="rgba(148,163,184,0.11)"/>
  <circle cx="32" cy="495" r="2" fill="rgba(148,163,184,0.11)"/>
  <circle cx="67" cy="555" r="2" fill="rgba(148,163,184,0.21)"/>
  <circle cx="32" cy="615" r="2" fill="rgba(148,163,184,0.14)"/>
  <circle cx="102" cy="15" r="2" fill="rgba(148,163,184,0.19)"/>
  <circle cx="137" cy="75" r="2" fill="rgba(148,163,184,0.14)"/>
  <circle cx="102" cy="135" r="2" fill="rgba(148,163,184,0.18)"/>
  <circle cx="137" cy="195" r="2" fill="rgba(148,163,184,0.15)"/>
  <circle cx="102" cy="255" r="2" fill="rgba(148,163,184,0.10)"/>
  <circle cx="137" cy="315" r="2" fill="rgba(148,163,184,0.21)"/>
  <circle cx="102" cy="375" r="2" fill="rgba(148,163,184,0.08)"/>
  <circle cx="137" cy="435" r="2" fill="rgba(148,163,184,0.13)"/>
  <circle cx="102" cy="495" r="2" fill="rgba(148,163,184,0.10)"/>
  <circle cx="137" cy="555" r="2" fill="rgba(148,163,184,0.15)"/>
  <circle cx="102" cy="615" r="2" fill="rgba(148,163,184,0.16)"/>
  <circle cx="172" cy="15" r="2" fill="rgba(148,163,184,0.17)"/>
  <circle cx="207" cy="75" r="2" fill="rgba(148,163,184,0.22)"/>
  <circle cx="172" cy="135" r="2" fill="rgba(148,163,184,0.22)"/>
  <circle cx="207" cy="195" r="2" fill="rgba(148,163,184,0.22)"/>
  <circle cx="172" cy="255" r="2" fill="rgba(148,163,184,0.15)"/>
  <circle cx="207" cy="315" r="2" fill="rgba(148,163,184,0.19)"/>
  <circle cx="172" cy="375" r="2" fill="rgba(148,163,184,0.17)"/>
  <circle cx="207" cy="435" r="2" fill="rgba(148,163,184,0.12)"/>
  <circle cx="172" cy="495" r="2" fill="rgba(148,163,184,0.12)"/>
  <circle cx="207" cy="555" r="2" fill="rgba(148,163,184,0.10)"/>
  <circle cx="172" cy="615" r="2" fill="rgba(148,163,184,0.09)"/>
  <circle cx="242" cy="15" r="2" fill="rgba(148,163,184,0.10)"/>
  <circle cx="277" cy="75" r="2" fill="rgba(148,163,184,0.15)"/>
  <circle cx="242" cy="135" r="2" fill="rgba(148,163,184,0.09)"/>
  <circle cx="277" cy="195" r="2" fill="rgba(148,163,184,0.09)"/>
  <circle cx="242" cy="255" r="2" fill="rgba(148,163,184,0.08)"/>
  <circle cx="277" cy="315" r="2" fill="rgba(148,163,184,0.21)"/>
  <circle cx="242" cy="375" r="2" fill="rgba(148,163,184,0.19)"/>
  <circle cx="277" cy="435" r="2" fill="rgba(148,163,184,0.20)"/>
  <circle cx="242" cy="495" r="2" fill="rgba(148,163,184,0.20)"/>
  <circle cx="277" cy="555" r="2" fill="rgba(148,163,184,0.12)"/>
  <circle cx="242" cy="615" r="2" fill="rgba(148,163,184,0.17)"/>
  <circle cx="312" cy="15" r="2" fill="rgba(148,163,184,0.19)"/>
  <circle cx="347" cy="75" r="2" fill="rgba(148,163,184,0.17)"/>
  <circle cx="312" cy="135" r="2" fill="rgba(148,163,184,0.17)"/>
  <circle cx="347" cy="195" r="2" fill="rgba(148,163,184,0.17)"/>
  <circle cx="312" cy="255" r="2" fill="rgba(148,163,184,0.17)"/>
  <circle cx="347" cy="315" r="2" fill="rgba(148,163,184,0.14)"/>
  <circle cx="312" cy="375" r="2" fill="rgba(148,163,184,0.19)"/>
  <circle cx="347" cy="435" r="2" fill="rgba(148,163,184,0.11)"/>
  <circle cx="312" cy="495" r="2" fill="rgba(148,163,184,0.11)"/>
  <circle cx="347" cy="555" r="2" fill="rgba(148,163,184,0.17)"/>
  <circle cx="312" cy="615" r="2" fill="rgba(148,163,184,0.08)"/>
  <circle cx="382" cy="15" r="2" fill="rgba(148,163,184,0.19)"/>
  <circle cx="417" cy="75" r="2" fill="rgba(148,163,184,0.17)"/>
  <circle cx="382" cy="135" r="2" fill="rgba(148,163,184,0.15)"/>
  <circle cx="417" cy="195" r="2" fill="rgba(148,163,184,0.18)"/>
  <circle cx="382" cy="255" r="2" fill="rgba(148,163,184,0.16)"/>
  <circle cx="417" cy="315" r="2" fill="rgba(148,163,184,0.12)"/>
  <circle cx="382" cy="375" r="2" fill="rgba(148,163,184,0.17)"/>
  <circle cx="417" cy="435" r="2" fill="rgba(148,163,184,0.10)"/>
  <circle cx="382" cy="495" r="2" fill="rgba(148,163,184,0.13)"/>
  <circle cx="417" cy="555" r="2" fill="rgba(148,163,184,0.15)"/>
  <circle cx="382" cy="615" r="2" fill="rgba(148,163,184,0.22)"/>
  <circle cx="452" cy="15" r="2" fill="rgba(148,163,184,0.17)"/>
  <circle cx="487" cy="75" r="2" fill="rgba(148,163,184,0.12)"/>
  <circle cx="452" cy="135" r="2" fill="rgba(148,163,184,0.20)"/>
  <circle cx="487" cy="195" r="2" fill="rgba(148,163,184,0.17)"/>
  <circle cx="452" cy="255" r="2" fill="rgba(148,163,184,0.21)"/>
  <circle cx="487" cy="315" r="2" fill="rgba(148,163,184,0.08)"/>
  <circle cx="452" cy="375" r="2" fill="rgba(148,163,184,0.10)"/>
  <circle cx="487" cy="435" r="2" fill="rgba(148,163,184,0.09)"/>
  <circle cx="452" cy="495" r="2" fill="rgba(148,163,184,0.21)"/>
  <circle cx="487" cy="555" r="2" fill="rgba(148,163,184,0.17)"/>
  <circle cx="452" cy="615" r="2" fill="rgba(148,163,184,0.12)"/>
  <circle cx="522" cy="15" r="2" fill="rgba(148,163,184,0.17)"/>
  <circle cx="557" cy="75" r="2" fill="rgba(148,163,184,0.22)"/>
  <circle cx="522" cy="135" r="2" fill="rgba(148,163,184,0.20)"/>
  <circle cx="557" cy="195" r="2" fill="rgba(148,163,184,0.20)"/>
  <circle cx="522" cy="255" r="2" fill="rgba(148,163,184,0.14)"/>
  <circle cx="557" cy="315" r="2" fill="rgba(148,163,184,0.17)"/>
  <circle cx="522" cy="375" r="2" fill="rgba(148,163,184,0.15)"/>
  <circle cx="557" cy="435" r="2" fill="rgba(148,163,184,0.11)"/>
  <circle cx="522" cy="495" r="2" fill="rgba(148,163,184,0.11)"/>
  <circle cx="557" cy="555" r="2" fill="rgba(148,163,184,0.08)"/>
  <circle cx="522" cy="615" r="2" fill="rgba(148,163,184,0.08)"/>
  <circle cx="592" cy="15" r="2" fill="rgba(148,163,184,0.17)"/>
  <circle cx="627" cy="75" r="2" fill="rgba(148,163,184,0.19)"/>
  <circle cx="592" cy="135" r="2" fill="rgba(148,163,184,0.10)"/>
  <circle cx="627" cy="195" r="2" fill="rgba(148,163,184,0.10)"/>
  <circle cx="592" cy="255" r="2" fill="rgba(148,163,184,0.09)"/>
  <circle cx="627" cy="315" r="2" fill="rgba(148,163,184,0.13)"/>
  <circle cx="592" cy="375" r="2" fill="rgba(148,163,184,0.08)"/>
  <circle cx="627" cy="435" r="2" fill="rgba(148,163,184,0.15)"/>
  <circle cx="592" cy="495" r="2" fill="rgba(148,163,184,0.15)"/>
  <circle cx="627" cy="555" r="2" fill="rgba(148,163,184,0.10)"/>
  <circle cx="592" cy="615" r="2" fill="rgba(148,163,184,0.18)"/>
  <circle cx="662" cy="15" r="2" fill="rgba(148,163,184,0.09)"/>
  <circle cx="697" cy="75" r="2" fill="rgba(148,163,184,0.19)"/>
  <circle cx="662" cy="135" r="2" fill="rgba(148,163,184,0.16)"/>
  <circle cx="697" cy="195" r="2" fill="rgba(148,163,184,0.13)"/>
  <circle cx="662" cy="255" r="2" fill="rgba(148,163,184,0.13)"/>
  <circle cx="697" cy="315" r="2" fill="rgba(148,163,184,0.19)"/>
  <circle cx="662" cy="375" r="2" fill="rgba(148,163,184,0.21)"/>
  <circle cx="697" cy="435" r="2" fill="rgba(148,163,184,0.16)"/>
  <circle cx="662" cy="495" r="2" fill="rgba(148,163,184,0.13)"/>
  <circle cx="697" cy="555" r="2" fill="rgba(148,163,184,0.13)"/>
  <circle cx="662" cy="615" r="2" fill="rgba(148,163,184,0.19)"/>
  <circle cx="732" cy="15" r="2" fill="rgba(148,163,184,0.08)"/>
  <circle cx="767" cy="75" r="2" fill="rgba(148,163,184,0.10)"/>
  <circle cx="732" cy="135" r="2" fill="rgba(148,163,184,0.22)"/>
  <circle cx="767" cy="195" r="2" fill="rgba(148,163,184,0.19)"/>
  <circle cx="732" cy="255" r="2" fill="rgba(148,163,184,0.21)"/>
  <circle cx="767" cy="315" r="2" fill="rgba(148,163,184,0.10)"/>
  <circle cx="732" cy="375" r="2" fill="rgba(148,163,184,0.20)"/>
  <circle cx="767" cy="435" r="2" fill="rgba(148,163,184,0.12)"/>
  <circle cx="732" cy="495" r="2" fill="rgba(148,163,184,0.09)"/>
  <circle cx="767" cy="555" r="2" fill="rgba(148,163,184,0.22)"/>
  <circle cx="732" cy="615" r="2" fill="rgba(148,163,184,0.15)"/>
  <circle cx="802" cy="15" r="2" fill="rgba(148,163,184,0.09)"/>
  <circle cx="837" cy="75" r="2" fill="rgba(148,163,184,0.19)"/>
  <circle cx="802" cy="135" r="2" fill="rgba(148,163,184,0.16)"/>
  <circle cx="837" cy="195" r="2" fill="rgba(148,163,184,0.16)"/>
  <circle cx="802" cy="255" r="2" fill="rgba(148,163,184,0.13)"/>
  <circle cx="837" cy="315" r="2" fill="rgba(148,163,184,0.19)"/>
  <circle cx="802" cy="375" r="2" fill="rgba(148,163,184,0.21)"/>
  <circle cx="837" cy="435" r="2" fill="rgba(148,163,184,0.16)"/>
  <circle cx="802" cy="495" r="2" fill="rgba(148,163,184,0.16)"/>
  <circle cx="837" cy="555" r="2" fill="rgba(148,163,184,0.13)"/>
  <circle cx="802" cy="615" r="2" fill="rgba(148,163,184,0.19)"/>
  <circle cx="872" cy="15" r="2" fill="rgba(148,163,184,0.21)"/>
  <circle cx="907" cy="75" r="2" fill="rgba(148,163,184,0.11)"/>
  <circle cx="872" cy="135" r="2" fill="rgba(148,163,184,0.19)"/>
  <circle cx="907" cy="195" r="2" fill="rgba(148,163,184,0.22)"/>
  <circle cx="872" cy="255" r="2" fill="rgba(148,163,184,0.22)"/>
  <circle cx="907" cy="315" r="2" fill="rgba(148,163,184,0.16)"/>
  <circle cx="872" cy="375" r="2" fill="rgba(148,163,184,0.14)"/>
  <circle cx="907" cy="435" r="2" fill="rgba(148,163,184,0.19)"/>
  <circle cx="872" cy="495" r="2" fill="rgba(148,163,184,0.22)"/>
  <circle cx="907" cy="555" r="2" fill="rgba(148,163,184,0.22)"/>
  <circle cx="872" cy="615" r="2" fill="rgba(148,163,184,0.16)"/>
  <circle cx="942" cy="15" r="2" fill="rgba(148,163,184,0.17)"/>
  <circle cx="977" cy="75" r="2" fill="rgba(148,163,184,0.19)"/>
  <circle cx="942" cy="135" r="2" fill="rgba(148,163,184,0.08)"/>
  <circle cx="977" cy="195" r="2" fill="rgba(148,163,184,0.08)"/>
  <circle cx="942" cy="255" r="2" fill="rgba(148,163,184,0.08)"/>
  <circle cx="977" cy="315" r="2" fill="rgba(148,163,184,0.11)"/>
  <circle cx="942" cy="375" r="2" fill="rgba(148,163,184,0.21)"/>
  <circle cx="977" cy="435" r="2" fill="rgba(148,163,184,0.14)"/>
  <circle cx="942" cy="495" r="2" fill="rgba(148,163,184,0.14)"/>
  <circle cx="977" cy="555" r="2" fill="rgba(148,163,184,0.08)"/>
  <circle cx="942" cy="615" r="2" fill="rgba(148,163,184,0.17)"/>
  <circle cx="1012" cy="15" r="2" fill="rgba(148,163,184,0.20)"/>
  <circle cx="1047" cy="75" r="2" fill="rgba(148,163,184,0.10)"/>
  <circle cx="1012" cy="135" r="2" fill="rgba(148,163,184,0.09)"/>
  <circle cx="1047" cy="195" r="2" fill="rgba(148,163,184,0.21)"/>
  <circle cx="1012" cy="255" r="2" fill="rgba(148,163,184,0.15)"/>
  <circle cx="1047" cy="315" r="2" fill="rgba(148,163,184,0.12)"/>
  <circle cx="1012" cy="375" r="2" fill="rgba(148,163,184,0.14)"/>
  <circle cx="1047" cy="435" r="2" fill="rgba(148,163,184,0.18)"/>
  <circle cx="1012" cy="495" r="2" fill="rgba(148,163,184,0.15)"/>
  <circle cx="1047" cy="555" r="2" fill="rgba(148,163,184,0.21)"/>
  <circle cx="1012" cy="615" r="2" fill="rgba(148,163,184,0.21)"/>
  <circle cx="1082" cy="15" r="2" fill="rgba(148,163,184,0.20)"/>
  <circle cx="1117" cy="75" r="2" fill="rgba(148,163,184,0.10)"/>
  <circle cx="1082" cy="135" r="2" fill="rgba(148,163,184,0.22)"/>
  <circle cx="1117" cy="195" r="2" fill="rgba(148,163,184,0.22)"/>
  <circle cx="1082" cy="255" r="2" fill="rgba(148,163,184,0.14)"/>
  <circle cx="1117" cy="315" r="2" fill="rgba(148,163,184,0.10)"/>
  <circle cx="1082" cy="375" r="2" fill="rgba(148,163,184,0.12)"/>
  <circle cx="1117" cy="435" r="2" fill="rgba(148,163,184,0.17)"/>
  <circle cx="1082" cy="495" r="2" fill="rgba(148,163,184,0.17)"/>
  <circle cx="1117" cy="555" r="2" fill="rgba(148,163,184,0.19)"/>
  <circle cx="1082" cy="615" r="2" fill="rgba(148,163,184,0.20)"/>
  <circle cx="1152" cy="15" r="2" fill="rgba(148,163,184,0.09)"/>
  <circle cx="1187" cy="75" r="2" fill="rgba(148,163,184,0.22)"/>
  <circle cx="1152" cy="135" r="2" fill="rgba(148,163,184,0.14)"/>
  <circle cx="1187" cy="195" r="2" fill="rgba(148,163,184,0.11)"/>
  <circle cx="1152" cy="255" r="2" fill="rgba(148,163,184,0.08)"/>
  <circle cx="1187" cy="315" r="2" fill="rgba(148,163,184,0.17)"/>
  <circle cx="1152" cy="375" r="2" fill="rgba(148,163,184,0.12)"/>
  <circle cx="1187" cy="435" r="2" fill="rgba(148,163,184,0.14)"/>
  <circle cx="1152" cy="495" r="2" fill="rgba(148,163,184,0.11)"/>
  <circle cx="1187" cy="555" r="2" fill="rgba(148,163,184,0.14)"/>
  <circle cx="1152" cy="615" r="2" fill="rgba(148,163,184,0.17)"/>

  <!-- Netwerklijnen -->
  <line x1="112" y1="132" x2="211" y2="263" stroke="rgba(96,165,250,0.06)" stroke-width="1"/>
  <line x1="211" y1="263" x2="932" y2="107" stroke="rgba(96,165,250,0.08)" stroke-width="1"/>
  <line x1="932" y1="107" x2="1113" y2="292" stroke="rgba(96,165,250,0.10)" stroke-width="1"/>
  <line x1="1113" y1="292" x2="213" y2="462" stroke="rgba(96,165,250,0.12)" stroke-width="1"/>
  <line x1="213" y1="462" x2="1092" y2="511" stroke="rgba(96,165,250,0.14)" stroke-width="1"/>
  <circle cx="112" cy="132" r="3" fill="rgba(96,165,250,0.25)"/>
  <circle cx="112" cy="132" r="8" fill="rgba(96,165,250,0.06)"/>
  <circle cx="211" cy="263" r="3" fill="rgba(96,165,250,0.25)"/>
  <circle cx="211" cy="263" r="8" fill="rgba(96,165,250,0.06)"/>
  <circle cx="932" cy="107" r="3" fill="rgba(96,165,250,0.25)"/>
  <circle cx="932" cy="107" r="8" fill="rgba(96,165,250,0.06)"/>
  <circle cx="1113" cy="292" r="3" fill="rgba(96,165,250,0.25)"/>
  <circle cx="1113" cy="292" r="8" fill="rgba(96,165,250,0.06)"/>
  <circle cx="213" cy="462" r="3" fill="rgba(96,165,250,0.25)"/>
  <circle cx="213" cy="462" r="8" fill="rgba(96,165,250,0.06)"/>
  <circle cx="1092" cy="511" r="3" fill="rgba(96,165,250,0.25)"/>
  <circle cx="1092" cy="511" r="8" fill="rgba(96,165,250,0.06)"/>

  <!-- Horizontale accentlijn -->
  <line x1="0" y1="1" x2="1200" y2="1" stroke="rgba(96,165,250,0.12)" stroke-width="1"/>
  <line x1="0" y1="629" x2="1200" y2="629" stroke="rgba(96,165,250,0.08)" stroke-width="1"/>

  <!-- Topic-illustratie (gecentreerd) -->
  <g transform="translate(0,0)">
        <rect x="490" y="230" width="80" height="50" rx="8" fill="rgba(96,165,250,0.15)" stroke="rgba(96,165,250,0.4)" stroke-width="1.5"/>
        <rect x="630" y="230" width="80" height="50" rx="8" fill="rgba(96,165,250,0.15)" stroke="rgba(96,165,250,0.4)" stroke-width="1.5"/>
        <rect x="490" y="320" width="80" height="50" rx="8" fill="rgba(96,165,250,0.15)" stroke="rgba(96,165,250,0.4)" stroke-width="1.5"/>
        <rect x="630" y="320" width="80" height="50" rx="8" fill="rgba(96,165,250,0.15)" stroke="rgba(96,165,250,0.4)" stroke-width="1.5"/>
        <line x1="570" y1="255" x2="630" y2="255" stroke="rgba(96,165,250,0.5)" stroke-width="1.5"/>
        <line x1="530" y1="280" x2="530" y2="320" stroke="rgba(96,165,250,0.35)" stroke-width="1.5"/>
        <line x1="670" y1="280" x2="670" y2="320" stroke="rgba(96,165,250,0.35)" stroke-width="1.5"/>
        <line x1="570" y1="345" x2="630" y2="345" stroke="rgba(96,165,250,0.5)" stroke-width="1.5"/>
  </g>

  <!-- Categorie badge -->
  <rect x="32" y="570" width="72" height="26" rx="13" fill="rgba(96,165,250,0.2)"/>
       <text x="44" y="588" font-family="system-ui, sans-serif" font-size="12" font-weight="600" fill="rgba(148,163,184,0.9)" letter-spacing="0.05em">UITLEG</text>

  <!-- Subtiele vpnr.nl branding (rechtsonder) -->
  <text x="1168" y="614" font-family="system-ui, sans-serif" font-size="11" fill="rgba(100,116,139,0.5)" text-anchor="end" letter-spacing="0.04em">vpnr.nl</text>
</svg>