<svg xmlns="http://www.w3.org/2000/svg" viewBox="0 0 1200 630">
  <defs>
    <linearGradient id="bg" x1="0" y1="0" x2="1" y2="1" gradientUnits="objectBoundingBox">
      <stop offset="0%" stop-color="#0f172a"/>
      <stop offset="100%" stop-color="#064e3b"/>
    </linearGradient>
  </defs>
  <rect width="1200" height="630" fill="url(#bg)"/>
  <!-- Price tag shape -->
  <path d="M275 138 L748 138 L922 315 L748 492 L275 492 Z" fill="rgba(16,185,129,0.07)" stroke="rgba(16,185,129,0.35)" stroke-width="2"/>
  <!-- Tag hole -->
  <circle cx="328" cy="315" r="28" fill="rgba(16,185,129,0.12)" stroke="rgba(16,185,129,0.4)" stroke-width="2"/>
  <!-- Percent symbol -->
  <circle cx="528" cy="250" r="36" fill="none" stroke="rgba(255,255,255,0.45)" stroke-width="4.5"/>
  <circle cx="662" cy="382" r="36" fill="none" stroke="rgba(255,255,255,0.45)" stroke-width="4.5"/>
  <line x1="612" y1="200" x2="578" y2="432" stroke="rgba(255,255,255,0.45)" stroke-width="4.5" stroke-linecap="round"/>
  <!-- Sparkle (right) -->
  <circle cx="1002" cy="178" r="9" fill="rgba(16,185,129,0.6)"/>
  <line x1="1002" y1="165" x2="1002" y2="153" stroke="rgba(16,185,129,0.5)" stroke-width="2"/>
  <line x1="1002" y1="191" x2="1002" y2="203" stroke="rgba(16,185,129,0.5)" stroke-width="2"/>
  <line x1="989" y1="178" x2="977" y2="178" stroke="rgba(16,185,129,0.5)" stroke-width="2"/>
  <line x1="1015" y1="178" x2="1027" y2="178" stroke="rgba(16,185,129,0.5)" stroke-width="2"/>
  <circle cx="1072" cy="342" r="6" fill="rgba(16,185,129,0.45)"/>
  <circle cx="962" cy="452" r="7" fill="rgba(16,185,129,0.5)"/>
  <circle cx="1102" cy="232" r="5" fill="rgba(16,185,129,0.4)"/>
  <!-- Left stacked pills -->
  <rect x="68" y="213" width="158" height="50" rx="25" fill="rgba(16,185,129,0.06)" stroke="rgba(16,185,129,0.2)" stroke-width="1.5"/>
  <rect x="68" y="278" width="128" height="40" rx="20" fill="rgba(16,185,129,0.05)" stroke="rgba(16,185,129,0.15)" stroke-width="1.5"/>
  <rect x="68" y="333" width="142" height="40" rx="20" fill="rgba(16,185,129,0.05)" stroke="rgba(16,185,129,0.15)" stroke-width="1.5"/>
</svg>
