<svg xmlns="http://www.w3.org/2000/svg" viewBox="0 0 1200 630" width="1200" height="630">
  <defs>
    <linearGradient id="bg" x1="0%" y1="0%" x2="100%" y2="100%">
      <stop offset="0%" style="stop-color:hsl(229,70%,8%)"/>
      <stop offset="50%" style="stop-color:hsl(254,65%,12%)"/>
      <stop offset="100%" style="stop-color:hsl(269,60%,9%)"/>
    </linearGradient>
    <radialGradient id="glow" cx="50%" cy="45%" r="40%">
      <stop offset="0%" style="stop-color:hsl(254,80%,30%);stop-opacity:0.18"/>
      <stop offset="100%" style="stop-color:transparent;stop-opacity:0"/>
    </radialGradient>
    <radialGradient id="glow2" cx="20%" cy="20%" r="30%">
      <stop offset="0%" style="stop-color:hsl(229,70%,40%);stop-opacity:0.08"/>
      <stop offset="100%" style="stop-color:transparent;stop-opacity:0"/>
    </radialGradient>
    <filter id="blur"><feGaussianBlur stdDeviation="40"/></filter>
  </defs>

  <!-- Achtergrond -->
  <rect width="1200" height="630" fill="url(#bg)"/>
  <rect width="1200" height="630" fill="url(#glow)"/>
  <rect width="1200" height="630" fill="url(#glow2)"/>

  <!-- Stippenraster -->
  <circle cx="19" cy="18" r="2" fill="rgba(148,163,184,0.13)"/>
  <circle cx="54" cy="78" r="2" fill="rgba(148,163,184,0.19)"/>
  <circle cx="19" cy="138" r="2" fill="rgba(148,163,184,0.16)"/>
  <circle cx="54" cy="198" r="2" fill="rgba(148,163,184,0.15)"/>
  <circle cx="19" cy="258" r="2" fill="rgba(148,163,184,0.16)"/>
  <circle cx="54" cy="318" r="2" fill="rgba(148,163,184,0.19)"/>
  <circle cx="19" cy="378" r="2" fill="rgba(148,163,184,0.22)"/>
  <circle cx="54" cy="438" r="2" fill="rgba(148,163,184,0.22)"/>
  <circle cx="19" cy="498" r="2" fill="rgba(148,163,184,0.21)"/>
  <circle cx="54" cy="558" r="2" fill="rgba(148,163,184,0.16)"/>
  <circle cx="19" cy="618" r="2" fill="rgba(148,163,184,0.10)"/>
  <circle cx="89" cy="18" r="2" fill="rgba(148,163,184,0.17)"/>
  <circle cx="124" cy="78" r="2" fill="rgba(148,163,184,0.08)"/>
  <circle cx="89" cy="138" r="2" fill="rgba(148,163,184,0.21)"/>
  <circle cx="124" cy="198" r="2" fill="rgba(148,163,184,0.19)"/>
  <circle cx="89" cy="258" r="2" fill="rgba(148,163,184,0.21)"/>
  <circle cx="124" cy="318" r="2" fill="rgba(148,163,184,0.09)"/>
  <circle cx="89" cy="378" r="2" fill="rgba(148,163,184,0.12)"/>
  <circle cx="124" cy="438" r="2" fill="rgba(148,163,184,0.12)"/>
  <circle cx="89" cy="498" r="2" fill="rgba(148,163,184,0.10)"/>
  <circle cx="124" cy="558" r="2" fill="rgba(148,163,184,0.21)"/>
  <circle cx="89" cy="618" r="2" fill="rgba(148,163,184,0.15)"/>
  <circle cx="159" cy="18" r="2" fill="rgba(148,163,184,0.19)"/>
  <circle cx="194" cy="78" r="2" fill="rgba(148,163,184,0.16)"/>
  <circle cx="159" cy="138" r="2" fill="rgba(148,163,184,0.14)"/>
  <circle cx="194" cy="198" r="2" fill="rgba(148,163,184,0.13)"/>
  <circle cx="159" cy="258" r="2" fill="rgba(148,163,184,0.11)"/>
  <circle cx="194" cy="318" r="2" fill="rgba(148,163,184,0.17)"/>
  <circle cx="159" cy="378" r="2" fill="rgba(148,163,184,0.11)"/>
  <circle cx="194" cy="438" r="2" fill="rgba(148,163,184,0.14)"/>
  <circle cx="159" cy="498" r="2" fill="rgba(148,163,184,0.13)"/>
  <circle cx="194" cy="558" r="2" fill="rgba(148,163,184,0.11)"/>
  <circle cx="159" cy="618" r="2" fill="rgba(148,163,184,0.17)"/>
  <circle cx="229" cy="18" r="2" fill="rgba(148,163,184,0.12)"/>
  <circle cx="264" cy="78" r="2" fill="rgba(148,163,184,0.18)"/>
  <circle cx="229" cy="138" r="2" fill="rgba(148,163,184,0.12)"/>
  <circle cx="264" cy="198" r="2" fill="rgba(148,163,184,0.11)"/>
  <circle cx="229" cy="258" r="2" fill="rgba(148,163,184,0.12)"/>
  <circle cx="264" cy="318" r="2" fill="rgba(148,163,184,0.15)"/>
  <circle cx="229" cy="378" r="2" fill="rgba(148,163,184,0.18)"/>
  <circle cx="264" cy="438" r="2" fill="rgba(148,163,184,0.18)"/>
  <circle cx="229" cy="498" r="2" fill="rgba(148,163,184,0.17)"/>
  <circle cx="264" cy="558" r="2" fill="rgba(148,163,184,0.12)"/>
  <circle cx="229" cy="618" r="2" fill="rgba(148,163,184,0.21)"/>
  <circle cx="299" cy="18" r="2" fill="rgba(148,163,184,0.18)"/>
  <circle cx="334" cy="78" r="2" fill="rgba(148,163,184,0.21)"/>
  <circle cx="299" cy="138" r="2" fill="rgba(148,163,184,0.08)"/>
  <circle cx="334" cy="198" r="2" fill="rgba(148,163,184,0.09)"/>
  <circle cx="299" cy="258" r="2" fill="rgba(148,163,184,0.17)"/>
  <circle cx="334" cy="318" r="2" fill="rgba(148,163,184,0.20)"/>
  <circle cx="299" cy="378" r="2" fill="rgba(148,163,184,0.11)"/>
  <circle cx="334" cy="438" r="2" fill="rgba(148,163,184,0.14)"/>
  <circle cx="299" cy="498" r="2" fill="rgba(148,163,184,0.15)"/>
  <circle cx="334" cy="558" r="2" fill="rgba(148,163,184,0.11)"/>
  <circle cx="299" cy="618" r="2" fill="rgba(148,163,184,0.11)"/>
  <circle cx="369" cy="18" r="2" fill="rgba(148,163,184,0.18)"/>
  <circle cx="404" cy="78" r="2" fill="rgba(148,163,184,0.15)"/>
  <circle cx="369" cy="138" r="2" fill="rgba(148,163,184,0.20)"/>
  <circle cx="404" cy="198" r="2" fill="rgba(148,163,184,0.19)"/>
  <circle cx="369" cy="258" r="2" fill="rgba(148,163,184,0.20)"/>
  <circle cx="404" cy="318" r="2" fill="rgba(148,163,184,0.08)"/>
  <circle cx="369" cy="378" r="2" fill="rgba(148,163,184,0.17)"/>
  <circle cx="404" cy="438" r="2" fill="rgba(148,163,184,0.08)"/>
  <circle cx="369" cy="498" r="2" fill="rgba(148,163,184,0.22)"/>
  <circle cx="404" cy="558" r="2" fill="rgba(148,163,184,0.17)"/>
  <circle cx="369" cy="618" r="2" fill="rgba(148,163,184,0.11)"/>
  <circle cx="439" cy="18" r="2" fill="rgba(148,163,184,0.13)"/>
  <circle cx="474" cy="78" r="2" fill="rgba(148,163,184,0.22)"/>
  <circle cx="439" cy="138" r="2" fill="rgba(148,163,184,0.11)"/>
  <circle cx="474" cy="198" r="2" fill="rgba(148,163,184,0.09)"/>
  <circle cx="439" cy="258" r="2" fill="rgba(148,163,184,0.11)"/>
  <circle cx="474" cy="318" r="2" fill="rgba(148,163,184,0.14)"/>
  <circle cx="439" cy="378" r="2" fill="rgba(148,163,184,0.17)"/>
  <circle cx="474" cy="438" r="2" fill="rgba(148,163,184,0.17)"/>
  <circle cx="439" cy="498" r="2" fill="rgba(148,163,184,0.15)"/>
  <circle cx="474" cy="558" r="2" fill="rgba(148,163,184,0.11)"/>
  <circle cx="439" cy="618" r="2" fill="rgba(148,163,184,0.20)"/>
  <circle cx="509" cy="18" r="2" fill="rgba(148,163,184,0.12)"/>
  <circle cx="544" cy="78" r="2" fill="rgba(148,163,184,0.09)"/>
  <circle cx="509" cy="138" r="2" fill="rgba(148,163,184,0.15)"/>
  <circle cx="544" cy="198" r="2" fill="rgba(148,163,184,0.16)"/>
  <circle cx="509" cy="258" r="2" fill="rgba(148,163,184,0.15)"/>
  <circle cx="544" cy="318" r="2" fill="rgba(148,163,184,0.12)"/>
  <circle cx="509" cy="378" r="2" fill="rgba(148,163,184,0.18)"/>
  <circle cx="544" cy="438" r="2" fill="rgba(148,163,184,0.12)"/>
  <circle cx="509" cy="498" r="2" fill="rgba(148,163,184,0.13)"/>
  <circle cx="544" cy="558" r="2" fill="rgba(148,163,184,0.18)"/>
  <circle cx="509" cy="618" r="2" fill="rgba(148,163,184,0.09)"/>
  <circle cx="579" cy="18" r="2" fill="rgba(148,163,184,0.13)"/>
  <circle cx="614" cy="78" r="2" fill="rgba(148,163,184,0.16)"/>
  <circle cx="579" cy="138" r="2" fill="rgba(148,163,184,0.09)"/>
  <circle cx="614" cy="198" r="2" fill="rgba(148,163,184,0.22)"/>
  <circle cx="579" cy="258" r="2" fill="rgba(148,163,184,0.09)"/>
  <circle cx="614" cy="318" r="2" fill="rgba(148,163,184,0.12)"/>
  <circle cx="579" cy="378" r="2" fill="rgba(148,163,184,0.21)"/>
  <circle cx="614" cy="438" r="2" fill="rgba(148,163,184,0.12)"/>
  <circle cx="579" cy="498" r="2" fill="rgba(148,163,184,0.10)"/>
  <circle cx="614" cy="558" r="2" fill="rgba(148,163,184,0.21)"/>
  <circle cx="579" cy="618" r="2" fill="rgba(148,163,184,0.15)"/>
  <circle cx="649" cy="18" r="2" fill="rgba(148,163,184,0.09)"/>
  <circle cx="684" cy="78" r="2" fill="rgba(148,163,184,0.12)"/>
  <circle cx="649" cy="138" r="2" fill="rgba(148,163,184,0.17)"/>
  <circle cx="684" cy="198" r="2" fill="rgba(148,163,184,0.15)"/>
  <circle cx="649" cy="258" r="2" fill="rgba(148,163,184,0.08)"/>
  <circle cx="684" cy="318" r="2" fill="rgba(148,163,184,0.20)"/>
  <circle cx="649" cy="378" r="2" fill="rgba(148,163,184,0.14)"/>
  <circle cx="684" cy="438" r="2" fill="rgba(148,163,184,0.11)"/>
  <circle cx="649" cy="498" r="2" fill="rgba(148,163,184,0.09)"/>
  <circle cx="684" cy="558" r="2" fill="rgba(148,163,184,0.14)"/>
  <circle cx="649" cy="618" r="2" fill="rgba(148,163,184,0.14)"/>
  <circle cx="719" cy="18" r="2" fill="rgba(148,163,184,0.13)"/>
  <circle cx="754" cy="78" r="2" fill="rgba(148,163,184,0.22)"/>
  <circle cx="719" cy="138" r="2" fill="rgba(148,163,184,0.09)"/>
  <circle cx="754" cy="198" r="2" fill="rgba(148,163,184,0.22)"/>
  <circle cx="719" cy="258" r="2" fill="rgba(148,163,184,0.18)"/>
  <circle cx="754" cy="318" r="2" fill="rgba(148,163,184,0.12)"/>
  <circle cx="719" cy="378" r="2" fill="rgba(148,163,184,0.15)"/>
  <circle cx="754" cy="438" r="2" fill="rgba(148,163,184,0.09)"/>
  <circle cx="719" cy="498" r="2" fill="rgba(148,163,184,0.22)"/>
  <circle cx="754" cy="558" r="2" fill="rgba(148,163,184,0.09)"/>
  <circle cx="719" cy="618" r="2" fill="rgba(148,163,184,0.12)"/>
  <circle cx="789" cy="18" r="2" fill="rgba(148,163,184,0.17)"/>
  <circle cx="824" cy="78" r="2" fill="rgba(148,163,184,0.11)"/>
  <circle cx="789" cy="138" r="2" fill="rgba(148,163,184,0.16)"/>
  <circle cx="824" cy="198" r="2" fill="rgba(148,163,184,0.15)"/>
  <circle cx="789" cy="258" r="2" fill="rgba(148,163,184,0.22)"/>
  <circle cx="824" cy="318" r="2" fill="rgba(148,163,184,0.19)"/>
  <circle cx="789" cy="378" r="2" fill="rgba(148,163,184,0.22)"/>
  <circle cx="824" cy="438" r="2" fill="rgba(148,163,184,0.13)"/>
  <circle cx="789" cy="498" r="2" fill="rgba(148,163,184,0.12)"/>
  <circle cx="824" cy="558" r="2" fill="rgba(148,163,184,0.16)"/>
  <circle cx="789" cy="618" r="2" fill="rgba(148,163,184,0.16)"/>
  <circle cx="859" cy="18" r="2" fill="rgba(148,163,184,0.21)"/>
  <circle cx="894" cy="78" r="2" fill="rgba(148,163,184,0.18)"/>
  <circle cx="859" cy="138" r="2" fill="rgba(148,163,184,0.20)"/>
  <circle cx="894" cy="198" r="2" fill="rgba(148,163,184,0.18)"/>
  <circle cx="859" cy="258" r="2" fill="rgba(148,163,184,0.11)"/>
  <circle cx="894" cy="318" r="2" fill="rgba(148,163,184,0.08)"/>
  <circle cx="859" cy="378" r="2" fill="rgba(148,163,184,0.17)"/>
  <circle cx="894" cy="438" r="2" fill="rgba(148,163,184,0.14)"/>
  <circle cx="859" cy="498" r="2" fill="rgba(148,163,184,0.12)"/>
  <circle cx="894" cy="558" r="2" fill="rgba(148,163,184,0.17)"/>
  <circle cx="859" cy="618" r="2" fill="rgba(148,163,184,0.17)"/>
  <circle cx="929" cy="18" r="2" fill="rgba(148,163,184,0.14)"/>
  <circle cx="964" cy="78" r="2" fill="rgba(148,163,184,0.17)"/>
  <circle cx="929" cy="138" r="2" fill="rgba(148,163,184,0.22)"/>
  <circle cx="964" cy="198" r="2" fill="rgba(148,163,184,0.08)"/>
  <circle cx="929" cy="258" r="2" fill="rgba(148,163,184,0.10)"/>
  <circle cx="964" cy="318" r="2" fill="rgba(148,163,184,0.19)"/>
  <circle cx="929" cy="378" r="2" fill="rgba(148,163,184,0.10)"/>
  <circle cx="964" cy="438" r="2" fill="rgba(148,163,184,0.22)"/>
  <circle cx="929" cy="498" r="2" fill="rgba(148,163,184,0.08)"/>
  <circle cx="964" cy="558" r="2" fill="rgba(148,163,184,0.10)"/>
  <circle cx="929" cy="618" r="2" fill="rgba(148,163,184,0.19)"/>
  <circle cx="999" cy="18" r="2" fill="rgba(148,163,184,0.19)"/>
  <circle cx="1034" cy="78" r="2" fill="rgba(148,163,184,0.10)"/>
  <circle cx="999" cy="138" r="2" fill="rgba(148,163,184,0.14)"/>
  <circle cx="1034" cy="198" r="2" fill="rgba(148,163,184,0.13)"/>
  <circle cx="999" cy="258" r="2" fill="rgba(148,163,184,0.20)"/>
  <circle cx="1034" cy="318" r="2" fill="rgba(148,163,184,0.17)"/>
  <circle cx="999" cy="378" r="2" fill="rgba(148,163,184,0.20)"/>
  <circle cx="1034" cy="438" r="2" fill="rgba(148,163,184,0.11)"/>
  <circle cx="999" cy="498" r="2" fill="rgba(148,163,184,0.10)"/>
  <circle cx="1034" cy="558" r="2" fill="rgba(148,163,184,0.14)"/>
  <circle cx="999" cy="618" r="2" fill="rgba(148,163,184,0.14)"/>
  <circle cx="1069" cy="18" r="2" fill="rgba(148,163,184,0.12)"/>
  <circle cx="1104" cy="78" r="2" fill="rgba(148,163,184,0.21)"/>
  <circle cx="1069" cy="138" r="2" fill="rgba(148,163,184,0.09)"/>
  <circle cx="1104" cy="198" r="2" fill="rgba(148,163,184,0.11)"/>
  <circle cx="1069" cy="258" r="2" fill="rgba(148,163,184,0.09)"/>
  <circle cx="1104" cy="318" r="2" fill="rgba(148,163,184,0.21)"/>
  <circle cx="1069" cy="378" r="2" fill="rgba(148,163,184,0.18)"/>
  <circle cx="1104" cy="438" r="2" fill="rgba(148,163,184,0.18)"/>
  <circle cx="1069" cy="498" r="2" fill="rgba(148,163,184,0.20)"/>
  <circle cx="1104" cy="558" r="2" fill="rgba(148,163,184,0.09)"/>
  <circle cx="1069" cy="618" r="2" fill="rgba(148,163,184,0.15)"/>
  <circle cx="1139" cy="18" r="2" fill="rgba(148,163,184,0.11)"/>
  <circle cx="1174" cy="78" r="2" fill="rgba(148,163,184,0.14)"/>
  <circle cx="1139" cy="138" r="2" fill="rgba(148,163,184,0.17)"/>
  <circle cx="1174" cy="198" r="2" fill="rgba(148,163,184,0.19)"/>
  <circle cx="1139" cy="258" r="2" fill="rgba(148,163,184,0.20)"/>
  <circle cx="1174" cy="318" r="2" fill="rgba(148,163,184,0.14)"/>
  <circle cx="1139" cy="378" r="2" fill="rgba(148,163,184,0.20)"/>
  <circle cx="1174" cy="438" r="2" fill="rgba(148,163,184,0.17)"/>
  <circle cx="1139" cy="498" r="2" fill="rgba(148,163,184,0.19)"/>
  <circle cx="1174" cy="558" r="2" fill="rgba(148,163,184,0.20)"/>
  <circle cx="1139" cy="618" r="2" fill="rgba(148,163,184,0.14)"/>

  <!-- Netwerklijnen -->
  <line x1="159" y1="119" x2="217" y2="274" stroke="rgba(96,165,250,0.06)" stroke-width="1"/>
  <line x1="217" y1="274" x2="919" y2="99" stroke="rgba(96,165,250,0.08)" stroke-width="1"/>
  <line x1="919" y1="99" x2="1124" y2="239" stroke="rgba(96,165,250,0.10)" stroke-width="1"/>
  <line x1="1124" y1="239" x2="154" y2="509" stroke="rgba(96,165,250,0.12)" stroke-width="1"/>
  <line x1="154" y1="509" x2="1039" y2="517" stroke="rgba(96,165,250,0.14)" stroke-width="1"/>
  <circle cx="159" cy="119" r="3" fill="rgba(96,165,250,0.25)"/>
  <circle cx="159" cy="119" r="8" fill="rgba(96,165,250,0.06)"/>
  <circle cx="217" cy="274" r="3" fill="rgba(96,165,250,0.25)"/>
  <circle cx="217" cy="274" r="8" fill="rgba(96,165,250,0.06)"/>
  <circle cx="919" cy="99" r="3" fill="rgba(96,165,250,0.25)"/>
  <circle cx="919" cy="99" r="8" fill="rgba(96,165,250,0.06)"/>
  <circle cx="1124" cy="239" r="3" fill="rgba(96,165,250,0.25)"/>
  <circle cx="1124" cy="239" r="8" fill="rgba(96,165,250,0.06)"/>
  <circle cx="154" cy="509" r="3" fill="rgba(96,165,250,0.25)"/>
  <circle cx="154" cy="509" r="8" fill="rgba(96,165,250,0.06)"/>
  <circle cx="1039" cy="517" r="3" fill="rgba(96,165,250,0.25)"/>
  <circle cx="1039" cy="517" r="8" fill="rgba(96,165,250,0.06)"/>

  <!-- Horizontale accentlijn -->
  <line x1="0" y1="1" x2="1200" y2="1" stroke="rgba(96,165,250,0.12)" stroke-width="1"/>
  <line x1="0" y1="629" x2="1200" y2="629" stroke="rgba(96,165,250,0.08)" stroke-width="1"/>

  <!-- Topic-illustratie (gecentreerd) -->
  <g transform="translate(0,0)">
        <path d="M600 190 L680 230 L680 310 C680 360 640 395 600 410 C560 395 520 360 520 310 L520 230 Z" fill="rgba(96,165,250,0.15)" stroke="rgba(96,165,250,0.5)" stroke-width="2"/>
        <path d="M580 300 L596 318 L630 276" fill="none" stroke="rgba(96,165,250,0.8)" stroke-width="3" stroke-linecap="round" stroke-linejoin="round"/>
  </g>

  <!-- Categorie badge -->
  <rect x="32" y="570" width="56" height="26" rx="13" fill="rgba(96,165,250,0.2)"/>
       <text x="44" y="588" font-family="system-ui, sans-serif" font-size="12" font-weight="600" fill="rgba(148,163,184,0.9)" letter-spacing="0.05em">GIDS</text>

  <!-- Subtiele vpnr.nl branding (rechtsonder) -->
  <text x="1168" y="614" font-family="system-ui, sans-serif" font-size="11" fill="rgba(100,116,139,0.5)" text-anchor="end" letter-spacing="0.04em">vpnr.nl</text>
</svg>