<svg xmlns="http://www.w3.org/2000/svg" viewBox="0 0 1200 630" width="1200" height="630">
  <defs>
    <linearGradient id="bg" x1="0%" y1="0%" x2="100%" y2="100%">
      <stop offset="0%" style="stop-color:hsl(239,70%,8%)"/>
      <stop offset="50%" style="stop-color:hsl(259,65%,12%)"/>
      <stop offset="100%" style="stop-color:hsl(254,60%,9%)"/>
    </linearGradient>
    <radialGradient id="glow" cx="50%" cy="45%" r="40%">
      <stop offset="0%" style="stop-color:hsl(259,80%,30%);stop-opacity:0.18"/>
      <stop offset="100%" style="stop-color:transparent;stop-opacity:0"/>
    </radialGradient>
    <radialGradient id="glow2" cx="20%" cy="20%" r="30%">
      <stop offset="0%" style="stop-color:hsl(239,70%,40%);stop-opacity:0.08"/>
      <stop offset="100%" style="stop-color:transparent;stop-opacity:0"/>
    </radialGradient>
    <filter id="blur"><feGaussianBlur stdDeviation="40"/></filter>
  </defs>

  <!-- Achtergrond -->
  <rect width="1200" height="630" fill="url(#bg)"/>
  <rect width="1200" height="630" fill="url(#glow)"/>
  <rect width="1200" height="630" fill="url(#glow2)"/>

  <!-- Stippenraster -->
  <circle cx="24" cy="21" r="2" fill="rgba(148,163,184,0.19)"/>
  <circle cx="59" cy="81" r="2" fill="rgba(148,163,184,0.22)"/>
  <circle cx="24" cy="141" r="2" fill="rgba(148,163,184,0.18)"/>
  <circle cx="59" cy="201" r="2" fill="rgba(148,163,184,0.08)"/>
  <circle cx="24" cy="261" r="2" fill="rgba(148,163,184,0.17)"/>
  <circle cx="59" cy="321" r="2" fill="rgba(148,163,184,0.18)"/>
  <circle cx="24" cy="381" r="2" fill="rgba(148,163,184,0.18)"/>
  <circle cx="59" cy="441" r="2" fill="rgba(148,163,184,0.17)"/>
  <circle cx="24" cy="501" r="2" fill="rgba(148,163,184,0.09)"/>
  <circle cx="59" cy="561" r="2" fill="rgba(148,163,184,0.15)"/>
  <circle cx="24" cy="621" r="2" fill="rgba(148,163,184,0.08)"/>
  <circle cx="94" cy="21" r="2" fill="rgba(148,163,184,0.17)"/>
  <circle cx="129" cy="81" r="2" fill="rgba(148,163,184,0.14)"/>
  <circle cx="94" cy="141" r="2" fill="rgba(148,163,184,0.14)"/>
  <circle cx="129" cy="201" r="2" fill="rgba(148,163,184,0.18)"/>
  <circle cx="94" cy="261" r="2" fill="rgba(148,163,184,0.15)"/>
  <circle cx="129" cy="321" r="2" fill="rgba(148,163,184,0.08)"/>
  <circle cx="94" cy="381" r="2" fill="rgba(148,163,184,0.08)"/>
  <circle cx="129" cy="441" r="2" fill="rgba(148,163,184,0.21)"/>
  <circle cx="94" cy="501" r="2" fill="rgba(148,163,184,0.20)"/>
  <circle cx="129" cy="561" r="2" fill="rgba(148,163,184,0.08)"/>
  <circle cx="94" cy="621" r="2" fill="rgba(148,163,184,0.21)"/>
  <circle cx="164" cy="21" r="2" fill="rgba(148,163,184,0.15)"/>
  <circle cx="199" cy="81" r="2" fill="rgba(148,163,184,0.12)"/>
  <circle cx="164" cy="141" r="2" fill="rgba(148,163,184,0.19)"/>
  <circle cx="199" cy="201" r="2" fill="rgba(148,163,184,0.08)"/>
  <circle cx="164" cy="261" r="2" fill="rgba(148,163,184,0.11)"/>
  <circle cx="199" cy="321" r="2" fill="rgba(148,163,184,0.10)"/>
  <circle cx="164" cy="381" r="2" fill="rgba(148,163,184,0.10)"/>
  <circle cx="199" cy="441" r="2" fill="rgba(148,163,184,0.20)"/>
  <circle cx="164" cy="501" r="2" fill="rgba(148,163,184,0.13)"/>
  <circle cx="199" cy="561" r="2" fill="rgba(148,163,184,0.10)"/>
  <circle cx="164" cy="621" r="2" fill="rgba(148,163,184,0.20)"/>
  <circle cx="234" cy="21" r="2" fill="rgba(148,163,184,0.11)"/>
  <circle cx="269" cy="81" r="2" fill="rgba(148,163,184,0.11)"/>
  <circle cx="234" cy="141" r="2" fill="rgba(148,163,184,0.12)"/>
  <circle cx="269" cy="201" r="2" fill="rgba(148,163,184,0.22)"/>
  <circle cx="234" cy="261" r="2" fill="rgba(148,163,184,0.19)"/>
  <circle cx="269" cy="321" r="2" fill="rgba(148,163,184,0.21)"/>
  <circle cx="234" cy="381" r="2" fill="rgba(148,163,184,0.18)"/>
  <circle cx="269" cy="441" r="2" fill="rgba(148,163,184,0.10)"/>
  <circle cx="234" cy="501" r="2" fill="rgba(148,163,184,0.18)"/>
  <circle cx="269" cy="561" r="2" fill="rgba(148,163,184,0.21)"/>
  <circle cx="234" cy="621" r="2" fill="rgba(148,163,184,0.10)"/>
  <circle cx="304" cy="21" r="2" fill="rgba(148,163,184,0.12)"/>
  <circle cx="339" cy="81" r="2" fill="rgba(148,163,184,0.09)"/>
  <circle cx="304" cy="141" r="2" fill="rgba(148,163,184,0.16)"/>
  <circle cx="339" cy="201" r="2" fill="rgba(148,163,184,0.14)"/>
  <circle cx="304" cy="261" r="2" fill="rgba(148,163,184,0.08)"/>
  <circle cx="339" cy="321" r="2" fill="rgba(148,163,184,0.16)"/>
  <circle cx="304" cy="381" r="2" fill="rgba(148,163,184,0.16)"/>
  <circle cx="339" cy="441" r="2" fill="rgba(148,163,184,0.08)"/>
  <circle cx="304" cy="501" r="2" fill="rgba(148,163,184,0.22)"/>
  <circle cx="339" cy="561" r="2" fill="rgba(148,163,184,0.13)"/>
  <circle cx="304" cy="621" r="2" fill="rgba(148,163,184,0.14)"/>
  <circle cx="374" cy="21" r="2" fill="rgba(148,163,184,0.16)"/>
  <circle cx="409" cy="81" r="2" fill="rgba(148,163,184,0.16)"/>
  <circle cx="374" cy="141" r="2" fill="rgba(148,163,184,0.20)"/>
  <circle cx="409" cy="201" r="2" fill="rgba(148,163,184,0.22)"/>
  <circle cx="374" cy="261" r="2" fill="rgba(148,163,184,0.13)"/>
  <circle cx="409" cy="321" r="2" fill="rgba(148,163,184,0.20)"/>
  <circle cx="374" cy="381" r="2" fill="rgba(148,163,184,0.17)"/>
  <circle cx="409" cy="441" r="2" fill="rgba(148,163,184,0.13)"/>
  <circle cx="374" cy="501" r="2" fill="rgba(148,163,184,0.14)"/>
  <circle cx="409" cy="561" r="2" fill="rgba(148,163,184,0.08)"/>
  <circle cx="374" cy="621" r="2" fill="rgba(148,163,184,0.22)"/>
  <circle cx="444" cy="21" r="2" fill="rgba(148,163,184,0.14)"/>
  <circle cx="479" cy="81" r="2" fill="rgba(148,163,184,0.14)"/>
  <circle cx="444" cy="141" r="2" fill="rgba(148,163,184,0.22)"/>
  <circle cx="479" cy="201" r="2" fill="rgba(148,163,184,0.12)"/>
  <circle cx="444" cy="261" r="2" fill="rgba(148,163,184,0.09)"/>
  <circle cx="479" cy="321" r="2" fill="rgba(148,163,184,0.16)"/>
  <circle cx="444" cy="381" r="2" fill="rgba(148,163,184,0.13)"/>
  <circle cx="479" cy="441" r="2" fill="rgba(148,163,184,0.15)"/>
  <circle cx="444" cy="501" r="2" fill="rgba(148,163,184,0.13)"/>
  <circle cx="479" cy="561" r="2" fill="rgba(148,163,184,0.16)"/>
  <circle cx="444" cy="621" r="2" fill="rgba(148,163,184,0.15)"/>
  <circle cx="514" cy="21" r="2" fill="rgba(148,163,184,0.19)"/>
  <circle cx="549" cy="81" r="2" fill="rgba(148,163,184,0.19)"/>
  <circle cx="514" cy="141" r="2" fill="rgba(148,163,184,0.14)"/>
  <circle cx="549" cy="201" r="2" fill="rgba(148,163,184,0.16)"/>
  <circle cx="514" cy="261" r="2" fill="rgba(148,163,184,0.22)"/>
  <circle cx="549" cy="321" r="2" fill="rgba(148,163,184,0.14)"/>
  <circle cx="514" cy="381" r="2" fill="rgba(148,163,184,0.11)"/>
  <circle cx="549" cy="441" r="2" fill="rgba(148,163,184,0.22)"/>
  <circle cx="514" cy="501" r="2" fill="rgba(148,163,184,0.08)"/>
  <circle cx="549" cy="561" r="2" fill="rgba(148,163,184,0.17)"/>
  <circle cx="514" cy="621" r="2" fill="rgba(148,163,184,0.16)"/>
  <circle cx="584" cy="21" r="2" fill="rgba(148,163,184,0.18)"/>
  <circle cx="619" cy="81" r="2" fill="rgba(148,163,184,0.21)"/>
  <circle cx="584" cy="141" r="2" fill="rgba(148,163,184,0.22)"/>
  <circle cx="619" cy="201" r="2" fill="rgba(148,163,184,0.17)"/>
  <circle cx="584" cy="261" r="2" fill="rgba(148,163,184,0.08)"/>
  <circle cx="619" cy="321" r="2" fill="rgba(148,163,184,0.22)"/>
  <circle cx="584" cy="381" r="2" fill="rgba(148,163,184,0.22)"/>
  <circle cx="619" cy="441" r="2" fill="rgba(148,163,184,0.08)"/>
  <circle cx="584" cy="501" r="2" fill="rgba(148,163,184,0.16)"/>
  <circle cx="619" cy="561" r="2" fill="rgba(148,163,184,0.10)"/>
  <circle cx="584" cy="621" r="2" fill="rgba(148,163,184,0.17)"/>
  <circle cx="654" cy="21" r="2" fill="rgba(148,163,184,0.14)"/>
  <circle cx="689" cy="81" r="2" fill="rgba(148,163,184,0.11)"/>
  <circle cx="654" cy="141" r="2" fill="rgba(148,163,184,0.12)"/>
  <circle cx="689" cy="201" r="2" fill="rgba(148,163,184,0.16)"/>
  <circle cx="654" cy="261" r="2" fill="rgba(148,163,184,0.10)"/>
  <circle cx="689" cy="321" r="2" fill="rgba(148,163,184,0.12)"/>
  <circle cx="654" cy="381" r="2" fill="rgba(148,163,184,0.12)"/>
  <circle cx="689" cy="441" r="2" fill="rgba(148,163,184,0.10)"/>
  <circle cx="654" cy="501" r="2" fill="rgba(148,163,184,0.18)"/>
  <circle cx="689" cy="561" r="2" fill="rgba(148,163,184,0.09)"/>
  <circle cx="654" cy="621" r="2" fill="rgba(148,163,184,0.16)"/>
  <circle cx="724" cy="21" r="2" fill="rgba(148,163,184,0.12)"/>
  <circle cx="759" cy="81" r="2" fill="rgba(148,163,184,0.12)"/>
  <circle cx="724" cy="141" r="2" fill="rgba(148,163,184,0.19)"/>
  <circle cx="759" cy="201" r="2" fill="rgba(148,163,184,0.14)"/>
  <circle cx="724" cy="261" r="2" fill="rgba(148,163,184,0.20)"/>
  <circle cx="759" cy="321" r="2" fill="rgba(148,163,184,0.19)"/>
  <circle cx="724" cy="381" r="2" fill="rgba(148,163,184,0.16)"/>
  <circle cx="759" cy="441" r="2" fill="rgba(148,163,184,0.20)"/>
  <circle cx="724" cy="501" r="2" fill="rgba(148,163,184,0.13)"/>
  <circle cx="759" cy="561" r="2" fill="rgba(148,163,184,0.22)"/>
  <circle cx="724" cy="621" r="2" fill="rgba(148,163,184,0.14)"/>
  <circle cx="794" cy="21" r="2" fill="rgba(148,163,184,0.13)"/>
  <circle cx="829" cy="81" r="2" fill="rgba(148,163,184,0.13)"/>
  <circle cx="794" cy="141" r="2" fill="rgba(148,163,184,0.17)"/>
  <circle cx="829" cy="201" r="2" fill="rgba(148,163,184,0.13)"/>
  <circle cx="794" cy="261" r="2" fill="rgba(148,163,184,0.16)"/>
  <circle cx="829" cy="321" r="2" fill="rgba(148,163,184,0.08)"/>
  <circle cx="794" cy="381" r="2" fill="rgba(148,163,184,0.11)"/>
  <circle cx="829" cy="441" r="2" fill="rgba(148,163,184,0.10)"/>
  <circle cx="794" cy="501" r="2" fill="rgba(148,163,184,0.11)"/>
  <circle cx="829" cy="561" r="2" fill="rgba(148,163,184,0.08)"/>
  <circle cx="794" cy="621" r="2" fill="rgba(148,163,184,0.10)"/>
  <circle cx="864" cy="21" r="2" fill="rgba(148,163,184,0.08)"/>
  <circle cx="899" cy="81" r="2" fill="rgba(148,163,184,0.08)"/>
  <circle cx="864" cy="141" r="2" fill="rgba(148,163,184,0.19)"/>
  <circle cx="899" cy="201" r="2" fill="rgba(148,163,184,0.09)"/>
  <circle cx="864" cy="261" r="2" fill="rgba(148,163,184,0.12)"/>
  <circle cx="899" cy="321" r="2" fill="rgba(148,163,184,0.10)"/>
  <circle cx="864" cy="381" r="2" fill="rgba(148,163,184,0.13)"/>
  <circle cx="899" cy="441" r="2" fill="rgba(148,163,184,0.21)"/>
  <circle cx="864" cy="501" r="2" fill="rgba(148,163,184,0.13)"/>
  <circle cx="899" cy="561" r="2" fill="rgba(148,163,184,0.10)"/>
  <circle cx="864" cy="621" r="2" fill="rgba(148,163,184,0.21)"/>
  <circle cx="934" cy="21" r="2" fill="rgba(148,163,184,0.16)"/>
  <circle cx="969" cy="81" r="2" fill="rgba(148,163,184,0.16)"/>
  <circle cx="934" cy="141" r="2" fill="rgba(148,163,184,0.17)"/>
  <circle cx="969" cy="201" r="2" fill="rgba(148,163,184,0.22)"/>
  <circle cx="934" cy="261" r="2" fill="rgba(148,163,184,0.16)"/>
  <circle cx="969" cy="321" r="2" fill="rgba(148,163,184,0.17)"/>
  <circle cx="934" cy="381" r="2" fill="rgba(148,163,184,0.20)"/>
  <circle cx="969" cy="441" r="2" fill="rgba(148,163,184,0.16)"/>
  <circle cx="934" cy="501" r="2" fill="rgba(148,163,184,0.08)"/>
  <circle cx="969" cy="561" r="2" fill="rgba(148,163,184,0.14)"/>
  <circle cx="934" cy="621" r="2" fill="rgba(148,163,184,0.22)"/>
  <circle cx="1004" cy="21" r="2" fill="rgba(148,163,184,0.20)"/>
  <circle cx="1039" cy="81" r="2" fill="rgba(148,163,184,0.20)"/>
  <circle cx="1004" cy="141" r="2" fill="rgba(148,163,184,0.14)"/>
  <circle cx="1039" cy="201" r="2" fill="rgba(148,163,184,0.10)"/>
  <circle cx="1004" cy="261" r="2" fill="rgba(148,163,184,0.13)"/>
  <circle cx="1039" cy="321" r="2" fill="rgba(148,163,184,0.20)"/>
  <circle cx="1004" cy="381" r="2" fill="rgba(148,163,184,0.08)"/>
  <circle cx="1039" cy="441" r="2" fill="rgba(148,163,184,0.22)"/>
  <circle cx="1004" cy="501" r="2" fill="rgba(148,163,184,0.08)"/>
  <circle cx="1039" cy="561" r="2" fill="rgba(148,163,184,0.20)"/>
  <circle cx="1004" cy="621" r="2" fill="rgba(148,163,184,0.22)"/>
  <circle cx="1074" cy="21" r="2" fill="rgba(148,163,184,0.18)"/>
  <circle cx="1109" cy="81" r="2" fill="rgba(148,163,184,0.15)"/>
  <circle cx="1074" cy="141" r="2" fill="rgba(148,163,184,0.16)"/>
  <circle cx="1109" cy="201" r="2" fill="rgba(148,163,184,0.20)"/>
  <circle cx="1074" cy="261" r="2" fill="rgba(148,163,184,0.17)"/>
  <circle cx="1109" cy="321" r="2" fill="rgba(148,163,184,0.10)"/>
  <circle cx="1074" cy="381" r="2" fill="rgba(148,163,184,0.10)"/>
  <circle cx="1109" cy="441" r="2" fill="rgba(148,163,184,0.08)"/>
  <circle cx="1074" cy="501" r="2" fill="rgba(148,163,184,0.22)"/>
  <circle cx="1109" cy="561" r="2" fill="rgba(148,163,184,0.10)"/>
  <circle cx="1074" cy="621" r="2" fill="rgba(148,163,184,0.08)"/>
  <circle cx="1144" cy="21" r="2" fill="rgba(148,163,184,0.22)"/>
  <circle cx="1179" cy="81" r="2" fill="rgba(148,163,184,0.22)"/>
  <circle cx="1144" cy="141" r="2" fill="rgba(148,163,184,0.08)"/>
  <circle cx="1179" cy="201" r="2" fill="rgba(148,163,184,0.12)"/>
  <circle cx="1144" cy="261" r="2" fill="rgba(148,163,184,0.21)"/>
  <circle cx="1179" cy="321" r="2" fill="rgba(148,163,184,0.08)"/>
  <circle cx="1144" cy="381" r="2" fill="rgba(148,163,184,0.11)"/>
  <circle cx="1179" cy="441" r="2" fill="rgba(148,163,184,0.21)"/>
  <circle cx="1144" cy="501" r="2" fill="rgba(148,163,184,0.14)"/>
  <circle cx="1179" cy="561" r="2" fill="rgba(148,163,184,0.20)"/>
  <circle cx="1144" cy="621" r="2" fill="rgba(148,163,184,0.12)"/>

  <!-- Netwerklijnen -->
  <line x1="124" y1="124" x2="203" y2="206" stroke="rgba(96,165,250,0.06)" stroke-width="1"/>
  <line x1="203" y1="206" x2="924" y2="120" stroke="rgba(96,165,250,0.08)" stroke-width="1"/>
  <line x1="924" y1="120" x2="1056" y2="224" stroke="rgba(96,165,250,0.10)" stroke-width="1"/>
  <line x1="1056" y1="224" x2="155" y2="474" stroke="rgba(96,165,250,0.12)" stroke-width="1"/>
  <line x1="155" y1="474" x2="1024" y2="523" stroke="rgba(96,165,250,0.14)" stroke-width="1"/>
  <circle cx="124" cy="124" r="3" fill="rgba(96,165,250,0.25)"/>
  <circle cx="124" cy="124" r="8" fill="rgba(96,165,250,0.06)"/>
  <circle cx="203" cy="206" r="3" fill="rgba(96,165,250,0.25)"/>
  <circle cx="203" cy="206" r="8" fill="rgba(96,165,250,0.06)"/>
  <circle cx="924" cy="120" r="3" fill="rgba(96,165,250,0.25)"/>
  <circle cx="924" cy="120" r="8" fill="rgba(96,165,250,0.06)"/>
  <circle cx="1056" cy="224" r="3" fill="rgba(96,165,250,0.25)"/>
  <circle cx="1056" cy="224" r="8" fill="rgba(96,165,250,0.06)"/>
  <circle cx="155" cy="474" r="3" fill="rgba(96,165,250,0.25)"/>
  <circle cx="155" cy="474" r="8" fill="rgba(96,165,250,0.06)"/>
  <circle cx="1024" cy="523" r="3" fill="rgba(96,165,250,0.25)"/>
  <circle cx="1024" cy="523" r="8" fill="rgba(96,165,250,0.06)"/>

  <!-- Horizontale accentlijn -->
  <line x1="0" y1="1" x2="1200" y2="1" stroke="rgba(96,165,250,0.12)" stroke-width="1"/>
  <line x1="0" y1="629" x2="1200" y2="629" stroke="rgba(96,165,250,0.08)" stroke-width="1"/>

  <!-- Topic-illustratie (gecentreerd) -->
  <g transform="translate(0,0)">
        <rect x="545" y="200" width="110" height="190" rx="18" fill="none" stroke="rgba(96,165,250,0.4)" stroke-width="2"/>
        <rect x="560" y="218" width="80" height="120" rx="4" fill="rgba(96,165,250,0.1)"/>
        <circle cx="600" cy="368" r="10" fill="none" stroke="rgba(96,165,250,0.4)" stroke-width="1.5"/>
        <rect x="575" y="212" width="50" height="6" rx="3" fill="rgba(96,165,250,0.3)"/>
        <path d="M575 260 L600 240 L625 260 L615 290 L585 290 Z" fill="rgba(96,165,250,0.3)"/>
  </g>

  <!-- Categorie badge -->
  <rect x="32" y="570" width="56" height="26" rx="13" fill="rgba(96,165,250,0.2)"/>
       <text x="44" y="588" font-family="system-ui, sans-serif" font-size="12" font-weight="600" fill="rgba(148,163,184,0.9)" letter-spacing="0.05em">GIDS</text>

  <!-- Subtiele vpnr.nl branding (rechtsonder) -->
  <text x="1168" y="614" font-family="system-ui, sans-serif" font-size="11" fill="rgba(100,116,139,0.5)" text-anchor="end" letter-spacing="0.04em">vpnr.nl</text>
</svg>