<svg xmlns="http://www.w3.org/2000/svg" viewBox="0 0 1200 630">
  <defs>
    <linearGradient id="bg" x1="0" y1="0" x2="1" y2="1" gradientUnits="objectBoundingBox">
      <stop offset="0%" stop-color="#0f172a"/>
      <stop offset="100%" stop-color="#1e3a8a"/>
    </linearGradient>
  </defs>
  <rect width="1200" height="630" fill="url(#bg)"/>
  <!-- Connections (dashed) -->
  <line x1="178" y1="315" x2="478" y2="163" stroke="rgba(59,130,246,0.35)" stroke-width="2" stroke-dasharray="10,7"/>
  <line x1="178" y1="315" x2="478" y2="467" stroke="rgba(59,130,246,0.35)" stroke-width="2" stroke-dasharray="10,7"/>
  <line x1="478" y1="163" x2="598" y2="278" stroke="rgba(59,130,246,0.3)" stroke-width="2" stroke-dasharray="8,6"/>
  <line x1="478" y1="467" x2="598" y2="352" stroke="rgba(59,130,246,0.3)" stroke-width="2" stroke-dasharray="8,6"/>
  <line x1="602" y1="352" x2="722" y2="278" stroke="rgba(59,130,246,0.3)" stroke-width="2" stroke-dasharray="8,6"/>
  <line x1="722" y1="163" x2="1022" y2="315" stroke="rgba(59,130,246,0.35)" stroke-width="2" stroke-dasharray="10,7"/>
  <line x1="722" y1="467" x2="1022" y2="315" stroke="rgba(59,130,246,0.35)" stroke-width="2" stroke-dasharray="10,7"/>
  <line x1="478" y1="163" x2="722" y2="163" stroke="rgba(59,130,246,0.2)" stroke-width="1.5" stroke-dasharray="8,6"/>
  <line x1="478" y1="467" x2="722" y2="467" stroke="rgba(59,130,246,0.2)" stroke-width="1.5" stroke-dasharray="8,6"/>
  <!-- Padlock (center) -->
  <rect x="550" y="278" width="100" height="86" rx="8" fill="rgba(59,130,246,0.18)" stroke="rgba(99,102,241,0.6)" stroke-width="2"/>
  <path d="M572 278 L572 250 Q572 226 600 226 Q628 226 628 250 L628 278" fill="none" stroke="rgba(99,102,241,0.6)" stroke-width="2.5" stroke-linecap="round"/>
  <circle cx="600" cy="322" r="11" fill="rgba(99,102,241,0.8)"/>
  <!-- Endpoint nodes -->
  <circle cx="178" cy="315" r="38" fill="rgba(59,130,246,0.12)" stroke="rgba(59,130,246,0.5)" stroke-width="2"/>
  <circle cx="178" cy="315" r="20" fill="rgba(59,130,246,0.4)"/>
  <circle cx="1022" cy="315" r="38" fill="rgba(59,130,246,0.12)" stroke="rgba(59,130,246,0.5)" stroke-width="2"/>
  <circle cx="1022" cy="315" r="20" fill="rgba(59,130,246,0.4)"/>
  <!-- Mid nodes -->
  <circle cx="478" cy="163" r="23" fill="rgba(59,130,246,0.15)" stroke="rgba(59,130,246,0.4)" stroke-width="1.5"/>
  <circle cx="478" cy="467" r="23" fill="rgba(59,130,246,0.15)" stroke="rgba(59,130,246,0.4)" stroke-width="1.5"/>
  <circle cx="722" cy="163" r="23" fill="rgba(59,130,246,0.15)" stroke="rgba(59,130,246,0.4)" stroke-width="1.5"/>
  <circle cx="722" cy="467" r="23" fill="rgba(59,130,246,0.15)" stroke="rgba(59,130,246,0.4)" stroke-width="1.5"/>
</svg>
