<svg xmlns="http://www.w3.org/2000/svg" viewBox="0 0 1200 630">
  <defs>
    <linearGradient id="bg" x1="0" y1="0" x2="1" y2="1" gradientUnits="objectBoundingBox">
      <stop offset="0%" stop-color="#0f172a"/>
      <stop offset="100%" stop-color="#1e40af"/>
    </linearGradient>
  </defs>
  <rect width="1200" height="630" fill="url(#bg)"/>
  <!-- Globe (right) -->
  <circle cx="900" cy="315" r="260" fill="none" stroke="rgba(255,255,255,0.06)" stroke-width="2"/>
  <ellipse cx="900" cy="315" rx="260" ry="85" fill="none" stroke="rgba(255,255,255,0.05)" stroke-width="1.5"/>
  <ellipse cx="900" cy="200" rx="230" ry="62" fill="none" stroke="rgba(255,255,255,0.04)" stroke-width="1"/>
  <ellipse cx="900" cy="430" rx="230" ry="62" fill="none" stroke="rgba(255,255,255,0.04)" stroke-width="1"/>
  <ellipse cx="900" cy="315" rx="85" ry="260" fill="none" stroke="rgba(255,255,255,0.04)" stroke-width="1"/>
  <ellipse cx="900" cy="315" rx="200" ry="260" fill="none" stroke="rgba(255,255,255,0.04)" stroke-width="1"/>
  <!-- Location pin -->
  <circle cx="975" cy="245" r="20" fill="#3b82f6"/>
  <circle cx="975" cy="245" r="9" fill="#fff"/>
  <line x1="975" y1="265" x2="975" y2="290" stroke="#3b82f6" stroke-width="3.5" stroke-linecap="round"/>
  <!-- Shield (left) -->
  <path d="M190 168 L310 132 L430 168 L430 300 Q430 385 310 432 Q190 385 190 300 Z" fill="rgba(59,130,246,0.12)" stroke="rgba(59,130,246,0.45)" stroke-width="2"/>
  <polyline points="235,288 290,338 385,243" fill="none" stroke="rgba(255,255,255,0.75)" stroke-width="5" stroke-linecap="round" stroke-linejoin="round"/>
  <!-- Dashed arc: shield to pin -->
  <path d="M430 285 Q660 95 975 245" fill="none" stroke="rgba(59,130,246,0.5)" stroke-width="2" stroke-dasharray="8,6"/>
  <!-- Accent dots -->
  <circle cx="600" cy="168" r="5" fill="rgba(96,165,250,0.7)"/>
  <circle cx="720" cy="128" r="3.5" fill="rgba(96,165,250,0.5)"/>
  <circle cx="480" cy="455" r="3" fill="rgba(96,165,250,0.4)"/>
  <circle cx="310" cy="500" r="4" fill="rgba(96,165,250,0.5)"/>
</svg>
