<svg xmlns="http://www.w3.org/2000/svg" viewBox="0 0 1200 630" width="1200" height="630">
  <defs>
    <linearGradient id="bg" x1="0%" y1="0%" x2="100%" y2="100%">
      <stop offset="0%" style="stop-color:hsl(234,70%,8%)"/>
      <stop offset="50%" style="stop-color:hsl(254,65%,12%)"/>
      <stop offset="100%" style="stop-color:hsl(259,60%,9%)"/>
    </linearGradient>
    <radialGradient id="glow" cx="50%" cy="45%" r="40%">
      <stop offset="0%" style="stop-color:hsl(254,80%,30%);stop-opacity:0.18"/>
      <stop offset="100%" style="stop-color:transparent;stop-opacity:0"/>
    </radialGradient>
    <radialGradient id="glow2" cx="20%" cy="20%" r="30%">
      <stop offset="0%" style="stop-color:hsl(234,70%,40%);stop-opacity:0.08"/>
      <stop offset="100%" style="stop-color:transparent;stop-opacity:0"/>
    </radialGradient>
    <filter id="blur"><feGaussianBlur stdDeviation="40"/></filter>
  </defs>

  <!-- Achtergrond -->
  <rect width="1200" height="630" fill="url(#bg)"/>
  <rect width="1200" height="630" fill="url(#glow)"/>
  <rect width="1200" height="630" fill="url(#glow2)"/>

  <!-- Stippenraster -->
  <circle cx="49" cy="26" r="2" fill="rgba(148,163,184,0.18)"/>
  <circle cx="84" cy="86" r="2" fill="rgba(148,163,184,0.11)"/>
  <circle cx="49" cy="146" r="2" fill="rgba(148,163,184,0.12)"/>
  <circle cx="84" cy="206" r="2" fill="rgba(148,163,184,0.13)"/>
  <circle cx="49" cy="266" r="2" fill="rgba(148,163,184,0.15)"/>
  <circle cx="84" cy="326" r="2" fill="rgba(148,163,184,0.20)"/>
  <circle cx="49" cy="386" r="2" fill="rgba(148,163,184,0.16)"/>
  <circle cx="84" cy="446" r="2" fill="rgba(148,163,184,0.08)"/>
  <circle cx="49" cy="506" r="2" fill="rgba(148,163,184,0.21)"/>
  <circle cx="84" cy="566" r="2" fill="rgba(148,163,184,0.19)"/>
  <circle cx="49" cy="626" r="2" fill="rgba(148,163,184,0.09)"/>
  <circle cx="119" cy="26" r="2" fill="rgba(148,163,184,0.14)"/>
  <circle cx="154" cy="86" r="2" fill="rgba(148,163,184,0.21)"/>
  <circle cx="119" cy="146" r="2" fill="rgba(148,163,184,0.17)"/>
  <circle cx="154" cy="206" r="2" fill="rgba(148,163,184,0.17)"/>
  <circle cx="119" cy="266" r="2" fill="rgba(148,163,184,0.11)"/>
  <circle cx="154" cy="326" r="2" fill="rgba(148,163,184,0.18)"/>
  <circle cx="119" cy="386" r="2" fill="rgba(148,163,184,0.14)"/>
  <circle cx="154" cy="446" r="2" fill="rgba(148,163,184,0.09)"/>
  <circle cx="119" cy="506" r="2" fill="rgba(148,163,184,0.08)"/>
  <circle cx="154" cy="566" r="2" fill="rgba(148,163,184,0.14)"/>
  <circle cx="119" cy="626" r="2" fill="rgba(148,163,184,0.17)"/>
  <circle cx="189" cy="26" r="2" fill="rgba(148,163,184,0.21)"/>
  <circle cx="224" cy="86" r="2" fill="rgba(148,163,184,0.10)"/>
  <circle cx="189" cy="146" r="2" fill="rgba(148,163,184,0.17)"/>
  <circle cx="224" cy="206" r="2" fill="rgba(148,163,184,0.08)"/>
  <circle cx="189" cy="266" r="2" fill="rgba(148,163,184,0.17)"/>
  <circle cx="224" cy="326" r="2" fill="rgba(148,163,184,0.18)"/>
  <circle cx="189" cy="386" r="2" fill="rgba(148,163,184,0.11)"/>
  <circle cx="224" cy="446" r="2" fill="rgba(148,163,184,0.15)"/>
  <circle cx="189" cy="506" r="2" fill="rgba(148,163,184,0.08)"/>
  <circle cx="224" cy="566" r="2" fill="rgba(148,163,184,0.14)"/>
  <circle cx="189" cy="626" r="2" fill="rgba(148,163,184,0.08)"/>
  <circle cx="259" cy="26" r="2" fill="rgba(148,163,184,0.14)"/>
  <circle cx="294" cy="86" r="2" fill="rgba(148,163,184,0.10)"/>
  <circle cx="259" cy="146" r="2" fill="rgba(148,163,184,0.13)"/>
  <circle cx="294" cy="206" r="2" fill="rgba(148,163,184,0.19)"/>
  <circle cx="259" cy="266" r="2" fill="rgba(148,163,184,0.10)"/>
  <circle cx="294" cy="326" r="2" fill="rgba(148,163,184,0.12)"/>
  <circle cx="259" cy="386" r="2" fill="rgba(148,163,184,0.19)"/>
  <circle cx="294" cy="446" r="2" fill="rgba(148,163,184,0.12)"/>
  <circle cx="259" cy="506" r="2" fill="rgba(148,163,184,0.22)"/>
  <circle cx="294" cy="566" r="2" fill="rgba(148,163,184,0.16)"/>
  <circle cx="259" cy="626" r="2" fill="rgba(148,163,184,0.19)"/>
  <circle cx="329" cy="26" r="2" fill="rgba(148,163,184,0.21)"/>
  <circle cx="364" cy="86" r="2" fill="rgba(148,163,184,0.13)"/>
  <circle cx="329" cy="146" r="2" fill="rgba(148,163,184,0.17)"/>
  <circle cx="364" cy="206" r="2" fill="rgba(148,163,184,0.08)"/>
  <circle cx="329" cy="266" r="2" fill="rgba(148,163,184,0.17)"/>
  <circle cx="364" cy="326" r="2" fill="rgba(148,163,184,0.18)"/>
  <circle cx="329" cy="386" r="2" fill="rgba(148,163,184,0.14)"/>
  <circle cx="364" cy="446" r="2" fill="rgba(148,163,184,0.15)"/>
  <circle cx="329" cy="506" r="2" fill="rgba(148,163,184,0.08)"/>
  <circle cx="364" cy="566" r="2" fill="rgba(148,163,184,0.14)"/>
  <circle cx="329" cy="626" r="2" fill="rgba(148,163,184,0.08)"/>
  <circle cx="399" cy="26" r="2" fill="rgba(148,163,184,0.21)"/>
  <circle cx="434" cy="86" r="2" fill="rgba(148,163,184,0.14)"/>
  <circle cx="399" cy="146" r="2" fill="rgba(148,163,184,0.13)"/>
  <circle cx="434" cy="206" r="2" fill="rgba(148,163,184,0.15)"/>
  <circle cx="399" cy="266" r="2" fill="rgba(148,163,184,0.13)"/>
  <circle cx="434" cy="326" r="2" fill="rgba(148,163,184,0.20)"/>
  <circle cx="399" cy="386" r="2" fill="rgba(148,163,184,0.09)"/>
  <circle cx="434" cy="446" r="2" fill="rgba(148,163,184,0.20)"/>
  <circle cx="399" cy="506" r="2" fill="rgba(148,163,184,0.19)"/>
  <circle cx="434" cy="566" r="2" fill="rgba(148,163,184,0.21)"/>
  <circle cx="399" cy="626" r="2" fill="rgba(148,163,184,0.19)"/>
  <circle cx="469" cy="26" r="2" fill="rgba(148,163,184,0.16)"/>
  <circle cx="504" cy="86" r="2" fill="rgba(148,163,184,0.12)"/>
  <circle cx="469" cy="146" r="2" fill="rgba(148,163,184,0.15)"/>
  <circle cx="504" cy="206" r="2" fill="rgba(148,163,184,0.11)"/>
  <circle cx="469" cy="266" r="2" fill="rgba(148,163,184,0.09)"/>
  <circle cx="504" cy="326" r="2" fill="rgba(148,163,184,0.22)"/>
  <circle cx="469" cy="386" r="2" fill="rgba(148,163,184,0.14)"/>
  <circle cx="504" cy="446" r="2" fill="rgba(148,163,184,0.16)"/>
  <circle cx="469" cy="506" r="2" fill="rgba(148,163,184,0.21)"/>
  <circle cx="504" cy="566" r="2" fill="rgba(148,163,184,0.08)"/>
  <circle cx="469" cy="626" r="2" fill="rgba(148,163,184,0.15)"/>
  <circle cx="539" cy="26" r="2" fill="rgba(148,163,184,0.14)"/>
  <circle cx="574" cy="86" r="2" fill="rgba(148,163,184,0.10)"/>
  <circle cx="539" cy="146" r="2" fill="rgba(148,163,184,0.14)"/>
  <circle cx="574" cy="206" r="2" fill="rgba(148,163,184,0.08)"/>
  <circle cx="539" cy="266" r="2" fill="rgba(148,163,184,0.14)"/>
  <circle cx="574" cy="326" r="2" fill="rgba(148,163,184,0.13)"/>
  <circle cx="539" cy="386" r="2" fill="rgba(148,163,184,0.20)"/>
  <circle cx="574" cy="446" r="2" fill="rgba(148,163,184,0.16)"/>
  <circle cx="539" cy="506" r="2" fill="rgba(148,163,184,0.08)"/>
  <circle cx="574" cy="566" r="2" fill="rgba(148,163,184,0.17)"/>
  <circle cx="539" cy="626" r="2" fill="rgba(148,163,184,0.08)"/>
  <circle cx="609" cy="26" r="2" fill="rgba(148,163,184,0.09)"/>
  <circle cx="644" cy="86" r="2" fill="rgba(148,163,184,0.20)"/>
  <circle cx="609" cy="146" r="2" fill="rgba(148,163,184,0.16)"/>
  <circle cx="644" cy="206" r="2" fill="rgba(148,163,184,0.19)"/>
  <circle cx="609" cy="266" r="2" fill="rgba(148,163,184,0.10)"/>
  <circle cx="644" cy="326" r="2" fill="rgba(148,163,184,0.15)"/>
  <circle cx="609" cy="386" r="2" fill="rgba(148,163,184,0.22)"/>
  <circle cx="644" cy="446" r="2" fill="rgba(148,163,184,0.12)"/>
  <circle cx="609" cy="506" r="2" fill="rgba(148,163,184,0.10)"/>
  <circle cx="644" cy="566" r="2" fill="rgba(148,163,184,0.19)"/>
  <circle cx="609" cy="626" r="2" fill="rgba(148,163,184,0.19)"/>
  <circle cx="679" cy="26" r="2" fill="rgba(148,163,184,0.17)"/>
  <circle cx="714" cy="86" r="2" fill="rgba(148,163,184,0.09)"/>
  <circle cx="679" cy="146" r="2" fill="rgba(148,163,184,0.10)"/>
  <circle cx="714" cy="206" r="2" fill="rgba(148,163,184,0.22)"/>
  <circle cx="679" cy="266" r="2" fill="rgba(148,163,184,0.16)"/>
  <circle cx="714" cy="326" r="2" fill="rgba(148,163,184,0.11)"/>
  <circle cx="679" cy="386" r="2" fill="rgba(148,163,184,0.22)"/>
  <circle cx="714" cy="446" r="2" fill="rgba(148,163,184,0.14)"/>
  <circle cx="679" cy="506" r="2" fill="rgba(148,163,184,0.16)"/>
  <circle cx="714" cy="566" r="2" fill="rgba(148,163,184,0.22)"/>
  <circle cx="679" cy="626" r="2" fill="rgba(148,163,184,0.22)"/>
  <circle cx="749" cy="26" r="2" fill="rgba(148,163,184,0.16)"/>
  <circle cx="784" cy="86" r="2" fill="rgba(148,163,184,0.12)"/>
  <circle cx="749" cy="146" r="2" fill="rgba(148,163,184,0.22)"/>
  <circle cx="784" cy="206" r="2" fill="rgba(148,163,184,0.15)"/>
  <circle cx="749" cy="266" r="2" fill="rgba(148,163,184,0.13)"/>
  <circle cx="784" cy="326" r="2" fill="rgba(148,163,184,0.14)"/>
  <circle cx="749" cy="386" r="2" fill="rgba(148,163,184,0.21)"/>
  <circle cx="784" cy="446" r="2" fill="rgba(148,163,184,0.20)"/>
  <circle cx="749" cy="506" r="2" fill="rgba(148,163,184,0.13)"/>
  <circle cx="784" cy="566" r="2" fill="rgba(148,163,184,0.15)"/>
  <circle cx="749" cy="626" r="2" fill="rgba(148,163,184,0.19)"/>
  <circle cx="819" cy="26" r="2" fill="rgba(148,163,184,0.11)"/>
  <circle cx="854" cy="86" r="2" fill="rgba(148,163,184,0.15)"/>
  <circle cx="819" cy="146" r="2" fill="rgba(148,163,184,0.22)"/>
  <circle cx="854" cy="206" r="2" fill="rgba(148,163,184,0.19)"/>
  <circle cx="819" cy="266" r="2" fill="rgba(148,163,184,0.13)"/>
  <circle cx="854" cy="326" r="2" fill="rgba(148,163,184,0.08)"/>
  <circle cx="819" cy="386" r="2" fill="rgba(148,163,184,0.16)"/>
  <circle cx="854" cy="446" r="2" fill="rgba(148,163,184,0.11)"/>
  <circle cx="819" cy="506" r="2" fill="rgba(148,163,184,0.13)"/>
  <circle cx="854" cy="566" r="2" fill="rgba(148,163,184,0.19)"/>
  <circle cx="819" cy="626" r="2" fill="rgba(148,163,184,0.19)"/>
  <circle cx="889" cy="26" r="2" fill="rgba(148,163,184,0.09)"/>
  <circle cx="924" cy="86" r="2" fill="rgba(148,163,184,0.16)"/>
  <circle cx="889" cy="146" r="2" fill="rgba(148,163,184,0.19)"/>
  <circle cx="924" cy="206" r="2" fill="rgba(148,163,184,0.13)"/>
  <circle cx="889" cy="266" r="2" fill="rgba(148,163,184,0.22)"/>
  <circle cx="924" cy="326" r="2" fill="rgba(148,163,184,0.20)"/>
  <circle cx="889" cy="386" r="2" fill="rgba(148,163,184,0.16)"/>
  <circle cx="924" cy="446" r="2" fill="rgba(148,163,184,0.20)"/>
  <circle cx="889" cy="506" r="2" fill="rgba(148,163,184,0.10)"/>
  <circle cx="924" cy="566" r="2" fill="rgba(148,163,184,0.16)"/>
  <circle cx="889" cy="626" r="2" fill="rgba(148,163,184,0.13)"/>
  <circle cx="959" cy="26" r="2" fill="rgba(148,163,184,0.10)"/>
  <circle cx="994" cy="86" r="2" fill="rgba(148,163,184,0.14)"/>
  <circle cx="959" cy="146" r="2" fill="rgba(148,163,184,0.12)"/>
  <circle cx="994" cy="206" r="2" fill="rgba(148,163,184,0.19)"/>
  <circle cx="959" cy="266" r="2" fill="rgba(148,163,184,0.21)"/>
  <circle cx="994" cy="326" r="2" fill="rgba(148,163,184,0.20)"/>
  <circle cx="959" cy="386" r="2" fill="rgba(148,163,184,0.13)"/>
  <circle cx="994" cy="446" r="2" fill="rgba(148,163,184,0.14)"/>
  <circle cx="959" cy="506" r="2" fill="rgba(148,163,184,0.21)"/>
  <circle cx="994" cy="566" r="2" fill="rgba(148,163,184,0.19)"/>
  <circle cx="959" cy="626" r="2" fill="rgba(148,163,184,0.15)"/>
  <circle cx="1029" cy="26" r="2" fill="rgba(148,163,184,0.08)"/>
  <circle cx="1064" cy="86" r="2" fill="rgba(148,163,184,0.19)"/>
  <circle cx="1029" cy="146" r="2" fill="rgba(148,163,184,0.15)"/>
  <circle cx="1064" cy="206" r="2" fill="rgba(148,163,184,0.14)"/>
  <circle cx="1029" cy="266" r="2" fill="rgba(148,163,184,0.12)"/>
  <circle cx="1064" cy="326" r="2" fill="rgba(148,163,184,0.22)"/>
  <circle cx="1029" cy="386" r="2" fill="rgba(148,163,184,0.14)"/>
  <circle cx="1064" cy="446" r="2" fill="rgba(148,163,184,0.19)"/>
  <circle cx="1029" cy="506" r="2" fill="rgba(148,163,184,0.21)"/>
  <circle cx="1064" cy="566" r="2" fill="rgba(148,163,184,0.08)"/>
  <circle cx="1029" cy="626" r="2" fill="rgba(148,163,184,0.18)"/>
  <circle cx="1099" cy="26" r="2" fill="rgba(148,163,184,0.11)"/>
  <circle cx="1134" cy="86" r="2" fill="rgba(148,163,184,0.15)"/>
  <circle cx="1099" cy="146" r="2" fill="rgba(148,163,184,0.22)"/>
  <circle cx="1134" cy="206" r="2" fill="rgba(148,163,184,0.16)"/>
  <circle cx="1099" cy="266" r="2" fill="rgba(148,163,184,0.10)"/>
  <circle cx="1134" cy="326" r="2" fill="rgba(148,163,184,0.08)"/>
  <circle cx="1099" cy="386" r="2" fill="rgba(148,163,184,0.16)"/>
  <circle cx="1134" cy="446" r="2" fill="rgba(148,163,184,0.08)"/>
  <circle cx="1099" cy="506" r="2" fill="rgba(148,163,184,0.13)"/>
  <circle cx="1134" cy="566" r="2" fill="rgba(148,163,184,0.19)"/>
  <circle cx="1099" cy="626" r="2" fill="rgba(148,163,184,0.16)"/>
  <circle cx="1169" cy="26" r="2" fill="rgba(148,163,184,0.19)"/>
  <circle cx="1204" cy="86" r="2" fill="rgba(148,163,184,0.15)"/>
  <circle cx="1169" cy="146" r="2" fill="rgba(148,163,184,0.11)"/>
  <circle cx="1204" cy="206" r="2" fill="rgba(148,163,184,0.20)"/>
  <circle cx="1169" cy="266" r="2" fill="rgba(148,163,184,0.11)"/>
  <circle cx="1204" cy="326" r="2" fill="rgba(148,163,184,0.10)"/>
  <circle cx="1169" cy="386" r="2" fill="rgba(148,163,184,0.17)"/>
  <circle cx="1204" cy="446" r="2" fill="rgba(148,163,184,0.13)"/>
  <circle cx="1169" cy="506" r="2" fill="rgba(148,163,184,0.20)"/>
  <circle cx="1204" cy="566" r="2" fill="rgba(148,163,184,0.14)"/>
  <circle cx="1169" cy="626" r="2" fill="rgba(148,163,184,0.20)"/>

  <!-- Netwerklijnen -->
  <line x1="129" y1="149" x2="233" y2="227" stroke="rgba(96,165,250,0.06)" stroke-width="1"/>
  <line x1="233" y1="227" x2="949" y2="133" stroke="rgba(96,165,250,0.08)" stroke-width="1"/>
  <line x1="949" y1="133" x2="1077" y2="269" stroke="rgba(96,165,250,0.10)" stroke-width="1"/>
  <line x1="1077" y1="269" x2="176" y2="479" stroke="rgba(96,165,250,0.12)" stroke-width="1"/>
  <line x1="176" y1="479" x2="1069" y2="533" stroke="rgba(96,165,250,0.14)" stroke-width="1"/>
  <circle cx="129" cy="149" r="3" fill="rgba(96,165,250,0.25)"/>
  <circle cx="129" cy="149" r="8" fill="rgba(96,165,250,0.06)"/>
  <circle cx="233" cy="227" r="3" fill="rgba(96,165,250,0.25)"/>
  <circle cx="233" cy="227" r="8" fill="rgba(96,165,250,0.06)"/>
  <circle cx="949" cy="133" r="3" fill="rgba(96,165,250,0.25)"/>
  <circle cx="949" cy="133" r="8" fill="rgba(96,165,250,0.06)"/>
  <circle cx="1077" cy="269" r="3" fill="rgba(96,165,250,0.25)"/>
  <circle cx="1077" cy="269" r="8" fill="rgba(96,165,250,0.06)"/>
  <circle cx="176" cy="479" r="3" fill="rgba(96,165,250,0.25)"/>
  <circle cx="176" cy="479" r="8" fill="rgba(96,165,250,0.06)"/>
  <circle cx="1069" cy="533" r="3" fill="rgba(96,165,250,0.25)"/>
  <circle cx="1069" cy="533" r="8" fill="rgba(96,165,250,0.06)"/>

  <!-- Horizontale accentlijn -->
  <line x1="0" y1="1" x2="1200" y2="1" stroke="rgba(96,165,250,0.12)" stroke-width="1"/>
  <line x1="0" y1="629" x2="1200" y2="629" stroke="rgba(96,165,250,0.08)" stroke-width="1"/>

  <!-- Topic-illustratie (gecentreerd) -->
  <g transform="translate(0,0)">
        <path d="M600 190 L700 270 L700 390 L500 390 L500 270 Z" fill="none" stroke="rgba(96,165,250,0.4)" stroke-width="2" stroke-linejoin="round"/>
        <rect x="560" y="310" width="80" height="80" rx="4" fill="none" stroke="rgba(96,165,250,0.35)" stroke-width="1.5"/>
        <path d="M580 310 L580 290 L620 290 L620 310" fill="none" stroke="rgba(96,165,250,0.35)" stroke-width="1.5"/>
  </g>

  <!-- Categorie badge -->
  <rect x="32" y="570" width="56" height="26" rx="13" fill="rgba(96,165,250,0.2)"/>
       <text x="44" y="588" font-family="system-ui, sans-serif" font-size="12" font-weight="600" fill="rgba(148,163,184,0.9)" letter-spacing="0.05em">GIDS</text>

  <!-- Subtiele vpnr.nl branding (rechtsonder) -->
  <text x="1168" y="614" font-family="system-ui, sans-serif" font-size="11" fill="rgba(100,116,139,0.5)" text-anchor="end" letter-spacing="0.04em">vpnr.nl</text>
</svg>