<svg xmlns="http://www.w3.org/2000/svg" viewBox="0 0 1200 630" width="1200" height="630">
  <defs>
    <linearGradient id="bg" x1="0%" y1="0%" x2="100%" y2="100%">
      <stop offset="0%" style="stop-color:hsl(218,70%,8%)"/>
      <stop offset="50%" style="stop-color:hsl(238,65%,12%)"/>
      <stop offset="100%" style="stop-color:hsl(263,60%,9%)"/>
    </linearGradient>
    <radialGradient id="glow" cx="50%" cy="45%" r="40%">
      <stop offset="0%" style="stop-color:hsl(238,80%,30%);stop-opacity:0.18"/>
      <stop offset="100%" style="stop-color:transparent;stop-opacity:0"/>
    </radialGradient>
    <radialGradient id="glow2" cx="20%" cy="20%" r="30%">
      <stop offset="0%" style="stop-color:hsl(218,70%,40%);stop-opacity:0.08"/>
      <stop offset="100%" style="stop-color:transparent;stop-opacity:0"/>
    </radialGradient>
    <filter id="blur"><feGaussianBlur stdDeviation="40"/></filter>
  </defs>

  <!-- Achtergrond -->
  <rect width="1200" height="630" fill="url(#bg)"/>
  <rect width="1200" height="630" fill="url(#glow)"/>
  <rect width="1200" height="630" fill="url(#glow2)"/>

  <!-- Stippenraster -->
  <circle cx="33" cy="28" r="2" fill="rgba(148,163,184,0.14)"/>
  <circle cx="68" cy="88" r="2" fill="rgba(148,163,184,0.12)"/>
  <circle cx="33" cy="148" r="2" fill="rgba(148,163,184,0.21)"/>
  <circle cx="68" cy="208" r="2" fill="rgba(148,163,184,0.15)"/>
  <circle cx="33" cy="268" r="2" fill="rgba(148,163,184,0.18)"/>
  <circle cx="68" cy="328" r="2" fill="rgba(148,163,184,0.12)"/>
  <circle cx="33" cy="388" r="2" fill="rgba(148,163,184,0.13)"/>
  <circle cx="68" cy="448" r="2" fill="rgba(148,163,184,0.12)"/>
  <circle cx="33" cy="508" r="2" fill="rgba(148,163,184,0.15)"/>
  <circle cx="68" cy="568" r="2" fill="rgba(148,163,184,0.12)"/>
  <circle cx="33" cy="628" r="2" fill="rgba(148,163,184,0.12)"/>
  <circle cx="103" cy="28" r="2" fill="rgba(148,163,184,0.19)"/>
  <circle cx="138" cy="88" r="2" fill="rgba(148,163,184,0.20)"/>
  <circle cx="103" cy="148" r="2" fill="rgba(148,163,184,0.08)"/>
  <circle cx="138" cy="208" r="2" fill="rgba(148,163,184,0.17)"/>
  <circle cx="103" cy="268" r="2" fill="rgba(148,163,184,0.08)"/>
  <circle cx="138" cy="328" r="2" fill="rgba(148,163,184,0.08)"/>
  <circle cx="103" cy="388" r="2" fill="rgba(148,163,184,0.21)"/>
  <circle cx="138" cy="448" r="2" fill="rgba(148,163,184,0.08)"/>
  <circle cx="103" cy="508" r="2" fill="rgba(148,163,184,0.17)"/>
  <circle cx="138" cy="568" r="2" fill="rgba(148,163,184,0.11)"/>
  <circle cx="103" cy="628" r="2" fill="rgba(148,163,184,0.17)"/>
  <circle cx="173" cy="28" r="2" fill="rgba(148,163,184,0.18)"/>
  <circle cx="208" cy="88" r="2" fill="rgba(148,163,184,0.16)"/>
  <circle cx="173" cy="148" r="2" fill="rgba(148,163,184,0.08)"/>
  <circle cx="208" cy="208" r="2" fill="rgba(148,163,184,0.14)"/>
  <circle cx="173" cy="268" r="2" fill="rgba(148,163,184,0.08)"/>
  <circle cx="208" cy="328" r="2" fill="rgba(148,163,184,0.08)"/>
  <circle cx="173" cy="388" r="2" fill="rgba(148,163,184,0.09)"/>
  <circle cx="208" cy="448" r="2" fill="rgba(148,163,184,0.08)"/>
  <circle cx="173" cy="508" r="2" fill="rgba(148,163,184,0.14)"/>
  <circle cx="208" cy="568" r="2" fill="rgba(148,163,184,0.20)"/>
  <circle cx="173" cy="628" r="2" fill="rgba(148,163,184,0.14)"/>
  <circle cx="243" cy="28" r="2" fill="rgba(148,163,184,0.22)"/>
  <circle cx="278" cy="88" r="2" fill="rgba(148,163,184,0.20)"/>
  <circle cx="243" cy="148" r="2" fill="rgba(148,163,184,0.22)"/>
  <circle cx="278" cy="208" r="2" fill="rgba(148,163,184,0.22)"/>
  <circle cx="243" cy="268" r="2" fill="rgba(148,163,184,0.16)"/>
  <circle cx="278" cy="328" r="2" fill="rgba(148,163,184,0.22)"/>
  <circle cx="243" cy="388" r="2" fill="rgba(148,163,184,0.08)"/>
  <circle cx="278" cy="448" r="2" fill="rgba(148,163,184,0.16)"/>
  <circle cx="243" cy="508" r="2" fill="rgba(148,163,184,0.13)"/>
  <circle cx="278" cy="568" r="2" fill="rgba(148,163,184,0.19)"/>
  <circle cx="243" cy="628" r="2" fill="rgba(148,163,184,0.22)"/>
  <circle cx="313" cy="28" r="2" fill="rgba(148,163,184,0.12)"/>
  <circle cx="348" cy="88" r="2" fill="rgba(148,163,184,0.10)"/>
  <circle cx="313" cy="148" r="2" fill="rgba(148,163,184,0.14)"/>
  <circle cx="348" cy="208" r="2" fill="rgba(148,163,184,0.11)"/>
  <circle cx="313" cy="268" r="2" fill="rgba(148,163,184,0.14)"/>
  <circle cx="348" cy="328" r="2" fill="rgba(148,163,184,0.20)"/>
  <circle cx="313" cy="388" r="2" fill="rgba(148,163,184,0.21)"/>
  <circle cx="348" cy="448" r="2" fill="rgba(148,163,184,0.08)"/>
  <circle cx="313" cy="508" r="2" fill="rgba(148,163,184,0.08)"/>
  <circle cx="348" cy="568" r="2" fill="rgba(148,163,184,0.20)"/>
  <circle cx="313" cy="628" r="2" fill="rgba(148,163,184,0.08)"/>
  <circle cx="383" cy="28" r="2" fill="rgba(148,163,184,0.11)"/>
  <circle cx="418" cy="88" r="2" fill="rgba(148,163,184,0.10)"/>
  <circle cx="383" cy="148" r="2" fill="rgba(148,163,184,0.18)"/>
  <circle cx="418" cy="208" r="2" fill="rgba(148,163,184,0.21)"/>
  <circle cx="383" cy="268" r="2" fill="rgba(148,163,184,0.09)"/>
  <circle cx="418" cy="328" r="2" fill="rgba(148,163,184,0.09)"/>
  <circle cx="383" cy="388" r="2" fill="rgba(148,163,184,0.11)"/>
  <circle cx="418" cy="448" r="2" fill="rgba(148,163,184,0.18)"/>
  <circle cx="383" cy="508" r="2" fill="rgba(148,163,184,0.12)"/>
  <circle cx="418" cy="568" r="2" fill="rgba(148,163,184,0.09)"/>
  <circle cx="383" cy="628" r="2" fill="rgba(148,163,184,0.18)"/>
  <circle cx="453" cy="28" r="2" fill="rgba(148,163,184,0.12)"/>
  <circle cx="488" cy="88" r="2" fill="rgba(148,163,184,0.13)"/>
  <circle cx="453" cy="148" r="2" fill="rgba(148,163,184,0.22)"/>
  <circle cx="488" cy="208" r="2" fill="rgba(148,163,184,0.22)"/>
  <circle cx="453" cy="268" r="2" fill="rgba(148,163,184,0.13)"/>
  <circle cx="488" cy="328" r="2" fill="rgba(148,163,184,0.22)"/>
  <circle cx="453" cy="388" r="2" fill="rgba(148,163,184,0.20)"/>
  <circle cx="488" cy="448" r="2" fill="rgba(148,163,184,0.13)"/>
  <circle cx="453" cy="508" r="2" fill="rgba(148,163,184,0.16)"/>
  <circle cx="488" cy="568" r="2" fill="rgba(148,163,184,0.10)"/>
  <circle cx="453" cy="628" r="2" fill="rgba(148,163,184,0.22)"/>
  <circle cx="523" cy="28" r="2" fill="rgba(148,163,184,0.13)"/>
  <circle cx="558" cy="88" r="2" fill="rgba(148,163,184,0.11)"/>
  <circle cx="523" cy="148" r="2" fill="rgba(148,163,184,0.17)"/>
  <circle cx="558" cy="208" r="2" fill="rgba(148,163,184,0.14)"/>
  <circle cx="523" cy="268" r="2" fill="rgba(148,163,184,0.08)"/>
  <circle cx="558" cy="328" r="2" fill="rgba(148,163,184,0.17)"/>
  <circle cx="523" cy="388" r="2" fill="rgba(148,163,184,0.18)"/>
  <circle cx="558" cy="448" r="2" fill="rgba(148,163,184,0.08)"/>
  <circle cx="523" cy="508" r="2" fill="rgba(148,163,184,0.08)"/>
  <circle cx="558" cy="568" r="2" fill="rgba(148,163,184,0.14)"/>
  <circle cx="523" cy="628" r="2" fill="rgba(148,163,184,0.14)"/>
  <circle cx="593" cy="28" r="2" fill="rgba(148,163,184,0.19)"/>
  <circle cx="628" cy="88" r="2" fill="rgba(148,163,184,0.21)"/>
  <circle cx="593" cy="148" r="2" fill="rgba(148,163,184,0.18)"/>
  <circle cx="628" cy="208" r="2" fill="rgba(148,163,184,0.15)"/>
  <circle cx="593" cy="268" r="2" fill="rgba(148,163,184,0.12)"/>
  <circle cx="628" cy="328" r="2" fill="rgba(148,163,184,0.12)"/>
  <circle cx="593" cy="388" r="2" fill="rgba(148,163,184,0.11)"/>
  <circle cx="628" cy="448" r="2" fill="rgba(148,163,184,0.18)"/>
  <circle cx="593" cy="508" r="2" fill="rgba(148,163,184,0.09)"/>
  <circle cx="628" cy="568" r="2" fill="rgba(148,163,184,0.12)"/>
  <circle cx="593" cy="628" r="2" fill="rgba(148,163,184,0.18)"/>
  <circle cx="663" cy="28" r="2" fill="rgba(148,163,184,0.10)"/>
  <circle cx="698" cy="88" r="2" fill="rgba(148,163,184,0.11)"/>
  <circle cx="663" cy="148" r="2" fill="rgba(148,163,184,0.19)"/>
  <circle cx="698" cy="208" r="2" fill="rgba(148,163,184,0.16)"/>
  <circle cx="663" cy="268" r="2" fill="rgba(148,163,184,0.22)"/>
  <circle cx="698" cy="328" r="2" fill="rgba(148,163,184,0.19)"/>
  <circle cx="663" cy="388" r="2" fill="rgba(148,163,184,0.17)"/>
  <circle cx="698" cy="448" r="2" fill="rgba(148,163,184,0.22)"/>
  <circle cx="663" cy="508" r="2" fill="rgba(148,163,184,0.13)"/>
  <circle cx="698" cy="568" r="2" fill="rgba(148,163,184,0.22)"/>
  <circle cx="663" cy="628" r="2" fill="rgba(148,163,184,0.16)"/>
  <circle cx="733" cy="28" r="2" fill="rgba(148,163,184,0.21)"/>
  <circle cx="768" cy="88" r="2" fill="rgba(148,163,184,0.22)"/>
  <circle cx="733" cy="148" r="2" fill="rgba(148,163,184,0.11)"/>
  <circle cx="768" cy="208" r="2" fill="rgba(148,163,184,0.08)"/>
  <circle cx="733" cy="268" r="2" fill="rgba(148,163,184,0.20)"/>
  <circle cx="768" cy="328" r="2" fill="rgba(148,163,184,0.20)"/>
  <circle cx="733" cy="388" r="2" fill="rgba(148,163,184,0.18)"/>
  <circle cx="768" cy="448" r="2" fill="rgba(148,163,184,0.11)"/>
  <circle cx="733" cy="508" r="2" fill="rgba(148,163,184,0.17)"/>
  <circle cx="768" cy="568" r="2" fill="rgba(148,163,184,0.20)"/>
  <circle cx="733" cy="628" r="2" fill="rgba(148,163,184,0.11)"/>
  <circle cx="803" cy="28" r="2" fill="rgba(148,163,184,0.20)"/>
  <circle cx="838" cy="88" r="2" fill="rgba(148,163,184,0.22)"/>
  <circle cx="803" cy="148" r="2" fill="rgba(148,163,184,0.17)"/>
  <circle cx="838" cy="208" r="2" fill="rgba(148,163,184,0.14)"/>
  <circle cx="803" cy="268" r="2" fill="rgba(148,163,184,0.20)"/>
  <circle cx="838" cy="328" r="2" fill="rgba(148,163,184,0.17)"/>
  <circle cx="803" cy="388" r="2" fill="rgba(148,163,184,0.16)"/>
  <circle cx="838" cy="448" r="2" fill="rgba(148,163,184,0.20)"/>
  <circle cx="803" cy="508" r="2" fill="rgba(148,163,184,0.11)"/>
  <circle cx="838" cy="568" r="2" fill="rgba(148,163,184,0.20)"/>
  <circle cx="803" cy="628" r="2" fill="rgba(148,163,184,0.14)"/>
  <circle cx="873" cy="28" r="2" fill="rgba(148,163,184,0.22)"/>
  <circle cx="908" cy="88" r="2" fill="rgba(148,163,184,0.21)"/>
  <circle cx="873" cy="148" r="2" fill="rgba(148,163,184,0.17)"/>
  <circle cx="908" cy="208" r="2" fill="rgba(148,163,184,0.20)"/>
  <circle cx="873" cy="268" r="2" fill="rgba(148,163,184,0.14)"/>
  <circle cx="908" cy="328" r="2" fill="rgba(148,163,184,0.17)"/>
  <circle cx="873" cy="388" r="2" fill="rgba(148,163,184,0.19)"/>
  <circle cx="908" cy="448" r="2" fill="rgba(148,163,184,0.14)"/>
  <circle cx="873" cy="508" r="2" fill="rgba(148,163,184,0.08)"/>
  <circle cx="908" cy="568" r="2" fill="rgba(148,163,184,0.14)"/>
  <circle cx="873" cy="628" r="2" fill="rgba(148,163,184,0.20)"/>
  <circle cx="943" cy="28" r="2" fill="rgba(148,163,184,0.20)"/>
  <circle cx="978" cy="88" r="2" fill="rgba(148,163,184,0.22)"/>
  <circle cx="943" cy="148" r="2" fill="rgba(148,163,184,0.15)"/>
  <circle cx="978" cy="208" r="2" fill="rgba(148,163,184,0.18)"/>
  <circle cx="943" cy="268" r="2" fill="rgba(148,163,184,0.15)"/>
  <circle cx="978" cy="328" r="2" fill="rgba(148,163,184,0.09)"/>
  <circle cx="943" cy="388" r="2" fill="rgba(148,163,184,0.08)"/>
  <circle cx="978" cy="448" r="2" fill="rgba(148,163,184,0.21)"/>
  <circle cx="943" cy="508" r="2" fill="rgba(148,163,184,0.21)"/>
  <circle cx="978" cy="568" r="2" fill="rgba(148,163,184,0.09)"/>
  <circle cx="943" cy="628" r="2" fill="rgba(148,163,184,0.21)"/>
  <circle cx="1013" cy="28" r="2" fill="rgba(148,163,184,0.08)"/>
  <circle cx="1048" cy="88" r="2" fill="rgba(148,163,184,0.09)"/>
  <circle cx="1013" cy="148" r="2" fill="rgba(148,163,184,0.11)"/>
  <circle cx="1048" cy="208" r="2" fill="rgba(148,163,184,0.08)"/>
  <circle cx="1013" cy="268" r="2" fill="rgba(148,163,184,0.14)"/>
  <circle cx="1048" cy="328" r="2" fill="rgba(148,163,184,0.11)"/>
  <circle cx="1013" cy="388" r="2" fill="rgba(148,163,184,0.09)"/>
  <circle cx="1048" cy="448" r="2" fill="rgba(148,163,184,0.14)"/>
  <circle cx="1013" cy="508" r="2" fill="rgba(148,163,184,0.20)"/>
  <circle cx="1048" cy="568" r="2" fill="rgba(148,163,184,0.14)"/>
  <circle cx="1013" cy="628" r="2" fill="rgba(148,163,184,0.08)"/>
  <circle cx="1083" cy="28" r="2" fill="rgba(148,163,184,0.17)"/>
  <circle cx="1118" cy="88" r="2" fill="rgba(148,163,184,0.19)"/>
  <circle cx="1083" cy="148" r="2" fill="rgba(148,163,184,0.18)"/>
  <circle cx="1118" cy="208" r="2" fill="rgba(148,163,184,0.18)"/>
  <circle cx="1083" cy="268" r="2" fill="rgba(148,163,184,0.09)"/>
  <circle cx="1118" cy="328" r="2" fill="rgba(148,163,184,0.18)"/>
  <circle cx="1083" cy="388" r="2" fill="rgba(148,163,184,0.17)"/>
  <circle cx="1118" cy="448" r="2" fill="rgba(148,163,184,0.09)"/>
  <circle cx="1083" cy="508" r="2" fill="rgba(148,163,184,0.12)"/>
  <circle cx="1118" cy="568" r="2" fill="rgba(148,163,184,0.21)"/>
  <circle cx="1083" cy="628" r="2" fill="rgba(148,163,184,0.18)"/>
  <circle cx="1153" cy="28" r="2" fill="rgba(148,163,184,0.20)"/>
  <circle cx="1188" cy="88" r="2" fill="rgba(148,163,184,0.21)"/>
  <circle cx="1153" cy="148" r="2" fill="rgba(148,163,184,0.15)"/>
  <circle cx="1188" cy="208" r="2" fill="rgba(148,163,184,0.18)"/>
  <circle cx="1153" cy="268" r="2" fill="rgba(148,163,184,0.15)"/>
  <circle cx="1188" cy="328" r="2" fill="rgba(148,163,184,0.09)"/>
  <circle cx="1153" cy="388" r="2" fill="rgba(148,163,184,0.22)"/>
  <circle cx="1188" cy="448" r="2" fill="rgba(148,163,184,0.21)"/>
  <circle cx="1153" cy="508" r="2" fill="rgba(148,163,184,0.21)"/>
  <circle cx="1188" cy="568" r="2" fill="rgba(148,163,184,0.09)"/>
  <circle cx="1153" cy="628" r="2" fill="rgba(148,163,184,0.21)"/>

  <!-- Netwerklijnen -->
  <line x1="153" y1="133" x2="256" y2="233" stroke="rgba(96,165,250,0.06)" stroke-width="1"/>
  <line x1="256" y1="233" x2="933" y2="84" stroke="rgba(96,165,250,0.08)" stroke-width="1"/>
  <line x1="933" y1="84" x2="1083" y2="253" stroke="rgba(96,165,250,0.10)" stroke-width="1"/>
  <line x1="1083" y1="253" x2="157" y2="503" stroke="rgba(96,165,250,0.12)" stroke-width="1"/>
  <line x1="157" y1="503" x2="1053" y2="536" stroke="rgba(96,165,250,0.14)" stroke-width="1"/>
  <circle cx="153" cy="133" r="3" fill="rgba(96,165,250,0.25)"/>
  <circle cx="153" cy="133" r="8" fill="rgba(96,165,250,0.06)"/>
  <circle cx="256" cy="233" r="3" fill="rgba(96,165,250,0.25)"/>
  <circle cx="256" cy="233" r="8" fill="rgba(96,165,250,0.06)"/>
  <circle cx="933" cy="84" r="3" fill="rgba(96,165,250,0.25)"/>
  <circle cx="933" cy="84" r="8" fill="rgba(96,165,250,0.06)"/>
  <circle cx="1083" cy="253" r="3" fill="rgba(96,165,250,0.25)"/>
  <circle cx="1083" cy="253" r="8" fill="rgba(96,165,250,0.06)"/>
  <circle cx="157" cy="503" r="3" fill="rgba(96,165,250,0.25)"/>
  <circle cx="157" cy="503" r="8" fill="rgba(96,165,250,0.06)"/>
  <circle cx="1053" cy="536" r="3" fill="rgba(96,165,250,0.25)"/>
  <circle cx="1053" cy="536" r="8" fill="rgba(96,165,250,0.06)"/>

  <!-- Horizontale accentlijn -->
  <line x1="0" y1="1" x2="1200" y2="1" stroke="rgba(96,165,250,0.12)" stroke-width="1"/>
  <line x1="0" y1="629" x2="1200" y2="629" stroke="rgba(96,165,250,0.08)" stroke-width="1"/>

  <!-- Topic-illustratie (gecentreerd) -->
  <g transform="translate(0,0)">
        <circle cx="600" cy="300" r="110" fill="none" stroke="rgba(96,165,250,0.3)" stroke-width="1.5"/>
        <ellipse cx="600" cy="300" rx="55" ry="110" fill="none" stroke="rgba(96,165,250,0.25)" stroke-width="1"/>
        <line x1="490" y1="300" x2="710" y2="300" stroke="rgba(96,165,250,0.2)" stroke-width="1"/>
        <ellipse cx="600" cy="300" rx="110" ry="40" fill="none" stroke="rgba(96,165,250,0.2)" stroke-width="1"/>
        <circle cx="600" cy="300" r="6" fill="rgba(96,165,250,0.7)"/>
  </g>

  <!-- Categorie badge -->
  <rect x="32" y="570" width="56" height="26" rx="13" fill="rgba(96,165,250,0.2)"/>
       <text x="44" y="588" font-family="system-ui, sans-serif" font-size="12" font-weight="600" fill="rgba(148,163,184,0.9)" letter-spacing="0.05em">GIDS</text>

  <!-- Subtiele vpnr.nl branding (rechtsonder) -->
  <text x="1168" y="614" font-family="system-ui, sans-serif" font-size="11" fill="rgba(100,116,139,0.5)" text-anchor="end" letter-spacing="0.04em">vpnr.nl</text>
</svg>