<svg xmlns="http://www.w3.org/2000/svg" viewBox="0 0 1200 630" width="1200" height="630">
  <defs>
    <linearGradient id="bg" x1="0%" y1="0%" x2="100%" y2="100%">
      <stop offset="0%" style="stop-color:hsl(225,70%,8%)"/>
      <stop offset="50%" style="stop-color:hsl(255,65%,12%)"/>
      <stop offset="100%" style="stop-color:hsl(260,60%,9%)"/>
    </linearGradient>
    <radialGradient id="glow" cx="50%" cy="45%" r="40%">
      <stop offset="0%" style="stop-color:hsl(255,80%,30%);stop-opacity:0.18"/>
      <stop offset="100%" style="stop-color:transparent;stop-opacity:0"/>
    </radialGradient>
    <radialGradient id="glow2" cx="20%" cy="20%" r="30%">
      <stop offset="0%" style="stop-color:hsl(225,70%,40%);stop-opacity:0.08"/>
      <stop offset="100%" style="stop-color:transparent;stop-opacity:0"/>
    </radialGradient>
    <filter id="blur"><feGaussianBlur stdDeviation="40"/></filter>
  </defs>

  <!-- Achtergrond -->
  <rect width="1200" height="630" fill="url(#bg)"/>
  <rect width="1200" height="630" fill="url(#glow)"/>
  <rect width="1200" height="630" fill="url(#glow2)"/>

  <!-- Stippenraster -->
  <circle cx="50" cy="19" r="2" fill="rgba(148,163,184,0.16)"/>
  <circle cx="85" cy="79" r="2" fill="rgba(148,163,184,0.22)"/>
  <circle cx="50" cy="139" r="2" fill="rgba(148,163,184,0.16)"/>
  <circle cx="85" cy="199" r="2" fill="rgba(148,163,184,0.17)"/>
  <circle cx="50" cy="259" r="2" fill="rgba(148,163,184,0.08)"/>
  <circle cx="85" cy="319" r="2" fill="rgba(148,163,184,0.13)"/>
  <circle cx="50" cy="379" r="2" fill="rgba(148,163,184,0.10)"/>
  <circle cx="85" cy="439" r="2" fill="rgba(148,163,184,0.17)"/>
  <circle cx="50" cy="499" r="2" fill="rgba(148,163,184,0.18)"/>
  <circle cx="85" cy="559" r="2" fill="rgba(148,163,184,0.16)"/>
  <circle cx="50" cy="619" r="2" fill="rgba(148,163,184,0.14)"/>
  <circle cx="120" cy="19" r="2" fill="rgba(148,163,184,0.17)"/>
  <circle cx="155" cy="79" r="2" fill="rgba(148,163,184,0.08)"/>
  <circle cx="120" cy="139" r="2" fill="rgba(148,163,184,0.17)"/>
  <circle cx="155" cy="199" r="2" fill="rgba(148,163,184,0.19)"/>
  <circle cx="120" cy="259" r="2" fill="rgba(148,163,184,0.10)"/>
  <circle cx="155" cy="319" r="2" fill="rgba(148,163,184,0.14)"/>
  <circle cx="120" cy="379" r="2" fill="rgba(148,163,184,0.11)"/>
  <circle cx="155" cy="439" r="2" fill="rgba(148,163,184,0.19)"/>
  <circle cx="120" cy="499" r="2" fill="rgba(148,163,184,0.21)"/>
  <circle cx="155" cy="559" r="2" fill="rgba(148,163,184,0.17)"/>
  <circle cx="120" cy="619" r="2" fill="rgba(148,163,184,0.16)"/>
  <circle cx="190" cy="19" r="2" fill="rgba(148,163,184,0.09)"/>
  <circle cx="225" cy="79" r="2" fill="rgba(148,163,184,0.12)"/>
  <circle cx="190" cy="139" r="2" fill="rgba(148,163,184,0.18)"/>
  <circle cx="225" cy="199" r="2" fill="rgba(148,163,184,0.16)"/>
  <circle cx="190" cy="259" r="2" fill="rgba(148,163,184,0.16)"/>
  <circle cx="225" cy="319" r="2" fill="rgba(148,163,184,0.21)"/>
  <circle cx="190" cy="379" r="2" fill="rgba(148,163,184,0.15)"/>
  <circle cx="225" cy="439" r="2" fill="rgba(148,163,184,0.19)"/>
  <circle cx="190" cy="499" r="2" fill="rgba(148,163,184,0.17)"/>
  <circle cx="225" cy="559" r="2" fill="rgba(148,163,184,0.15)"/>
  <circle cx="190" cy="619" r="2" fill="rgba(148,163,184,0.22)"/>
  <circle cx="260" cy="19" r="2" fill="rgba(148,163,184,0.16)"/>
  <circle cx="295" cy="79" r="2" fill="rgba(148,163,184,0.10)"/>
  <circle cx="260" cy="139" r="2" fill="rgba(148,163,184,0.21)"/>
  <circle cx="295" cy="199" r="2" fill="rgba(148,163,184,0.20)"/>
  <circle cx="260" cy="259" r="2" fill="rgba(148,163,184,0.19)"/>
  <circle cx="295" cy="319" r="2" fill="rgba(148,163,184,0.09)"/>
  <circle cx="260" cy="379" r="2" fill="rgba(148,163,184,0.12)"/>
  <circle cx="295" cy="439" r="2" fill="rgba(148,163,184,0.10)"/>
  <circle cx="260" cy="499" r="2" fill="rgba(148,163,184,0.09)"/>
  <circle cx="295" cy="559" r="2" fill="rgba(148,163,184,0.21)"/>
  <circle cx="260" cy="619" r="2" fill="rgba(148,163,184,0.13)"/>
  <circle cx="330" cy="19" r="2" fill="rgba(148,163,184,0.17)"/>
  <circle cx="365" cy="79" r="2" fill="rgba(148,163,184,0.20)"/>
  <circle cx="330" cy="139" r="2" fill="rgba(148,163,184,0.22)"/>
  <circle cx="365" cy="199" r="2" fill="rgba(148,163,184,0.21)"/>
  <circle cx="330" cy="259" r="2" fill="rgba(148,163,184,0.20)"/>
  <circle cx="365" cy="319" r="2" fill="rgba(148,163,184,0.10)"/>
  <circle cx="330" cy="379" r="2" fill="rgba(148,163,184,0.19)"/>
  <circle cx="365" cy="439" r="2" fill="rgba(148,163,184,0.08)"/>
  <circle cx="330" cy="499" r="2" fill="rgba(148,163,184,0.22)"/>
  <circle cx="365" cy="559" r="2" fill="rgba(148,163,184,0.19)"/>
  <circle cx="330" cy="619" r="2" fill="rgba(148,163,184,0.11)"/>
  <circle cx="400" cy="19" r="2" fill="rgba(148,163,184,0.19)"/>
  <circle cx="435" cy="79" r="2" fill="rgba(148,163,184,0.13)"/>
  <circle cx="400" cy="139" r="2" fill="rgba(148,163,184,0.12)"/>
  <circle cx="435" cy="199" r="2" fill="rgba(148,163,184,0.11)"/>
  <circle cx="400" cy="259" r="2" fill="rgba(148,163,184,0.10)"/>
  <circle cx="435" cy="319" r="2" fill="rgba(148,163,184,0.15)"/>
  <circle cx="400" cy="379" r="2" fill="rgba(148,163,184,0.18)"/>
  <circle cx="435" cy="439" r="2" fill="rgba(148,163,184,0.16)"/>
  <circle cx="400" cy="499" r="2" fill="rgba(148,163,184,0.15)"/>
  <circle cx="435" cy="559" r="2" fill="rgba(148,163,184,0.12)"/>
  <circle cx="400" cy="619" r="2" fill="rgba(148,163,184,0.19)"/>
  <circle cx="470" cy="19" r="2" fill="rgba(148,163,184,0.15)"/>
  <circle cx="505" cy="79" r="2" fill="rgba(148,163,184,0.21)"/>
  <circle cx="470" cy="139" r="2" fill="rgba(148,163,184,0.19)"/>
  <circle cx="505" cy="199" r="2" fill="rgba(148,163,184,0.21)"/>
  <circle cx="470" cy="259" r="2" fill="rgba(148,163,184,0.21)"/>
  <circle cx="505" cy="319" r="2" fill="rgba(148,163,184,0.16)"/>
  <circle cx="470" cy="379" r="2" fill="rgba(148,163,184,0.13)"/>
  <circle cx="505" cy="439" r="2" fill="rgba(148,163,184,0.15)"/>
  <circle cx="470" cy="499" r="2" fill="rgba(148,163,184,0.17)"/>
  <circle cx="505" cy="559" r="2" fill="rgba(148,163,184,0.19)"/>
  <circle cx="470" cy="619" r="2" fill="rgba(148,163,184,0.12)"/>
  <circle cx="540" cy="19" r="2" fill="rgba(148,163,184,0.14)"/>
  <circle cx="575" cy="79" r="2" fill="rgba(148,163,184,0.17)"/>
  <circle cx="540" cy="139" r="2" fill="rgba(148,163,184,0.14)"/>
  <circle cx="575" cy="199" r="2" fill="rgba(148,163,184,0.13)"/>
  <circle cx="540" cy="259" r="2" fill="rgba(148,163,184,0.13)"/>
  <circle cx="575" cy="319" r="2" fill="rgba(148,163,184,0.17)"/>
  <circle cx="540" cy="379" r="2" fill="rgba(148,163,184,0.11)"/>
  <circle cx="575" cy="439" r="2" fill="rgba(148,163,184,0.16)"/>
  <circle cx="540" cy="499" r="2" fill="rgba(148,163,184,0.15)"/>
  <circle cx="575" cy="559" r="2" fill="rgba(148,163,184,0.11)"/>
  <circle cx="540" cy="619" r="2" fill="rgba(148,163,184,0.19)"/>
  <circle cx="610" cy="19" r="2" fill="rgba(148,163,184,0.21)"/>
  <circle cx="645" cy="79" r="2" fill="rgba(148,163,184,0.18)"/>
  <circle cx="610" cy="139" r="2" fill="rgba(148,163,184,0.16)"/>
  <circle cx="645" cy="199" r="2" fill="rgba(148,163,184,0.18)"/>
  <circle cx="610" cy="259" r="2" fill="rgba(148,163,184,0.12)"/>
  <circle cx="645" cy="319" r="2" fill="rgba(148,163,184,0.13)"/>
  <circle cx="610" cy="379" r="2" fill="rgba(148,163,184,0.19)"/>
  <circle cx="645" cy="439" r="2" fill="rgba(148,163,184,0.09)"/>
  <circle cx="610" cy="499" r="2" fill="rgba(148,163,184,0.11)"/>
  <circle cx="645" cy="559" r="2" fill="rgba(148,163,184,0.19)"/>
  <circle cx="610" cy="619" r="2" fill="rgba(148,163,184,0.21)"/>
  <circle cx="680" cy="19" r="2" fill="rgba(148,163,184,0.11)"/>
  <circle cx="715" cy="79" r="2" fill="rgba(148,163,184,0.08)"/>
  <circle cx="680" cy="139" r="2" fill="rgba(148,163,184,0.20)"/>
  <circle cx="715" cy="199" r="2" fill="rgba(148,163,184,0.21)"/>
  <circle cx="680" cy="259" r="2" fill="rgba(148,163,184,0.12)"/>
  <circle cx="715" cy="319" r="2" fill="rgba(148,163,184,0.17)"/>
  <circle cx="680" cy="379" r="2" fill="rgba(148,163,184,0.08)"/>
  <circle cx="715" cy="439" r="2" fill="rgba(148,163,184,0.09)"/>
  <circle cx="680" cy="499" r="2" fill="rgba(148,163,184,0.10)"/>
  <circle cx="715" cy="559" r="2" fill="rgba(148,163,184,0.08)"/>
  <circle cx="680" cy="619" r="2" fill="rgba(148,163,184,0.21)"/>
  <circle cx="750" cy="19" r="2" fill="rgba(148,163,184,0.17)"/>
  <circle cx="785" cy="79" r="2" fill="rgba(148,163,184,0.08)"/>
  <circle cx="750" cy="139" r="2" fill="rgba(148,163,184,0.19)"/>
  <circle cx="785" cy="199" r="2" fill="rgba(148,163,184,0.21)"/>
  <circle cx="750" cy="259" r="2" fill="rgba(148,163,184,0.11)"/>
  <circle cx="785" cy="319" r="2" fill="rgba(148,163,184,0.16)"/>
  <circle cx="750" cy="379" r="2" fill="rgba(148,163,184,0.13)"/>
  <circle cx="785" cy="439" r="2" fill="rgba(148,163,184,0.20)"/>
  <circle cx="750" cy="499" r="2" fill="rgba(148,163,184,0.22)"/>
  <circle cx="785" cy="559" r="2" fill="rgba(148,163,184,0.19)"/>
  <circle cx="750" cy="619" r="2" fill="rgba(148,163,184,0.17)"/>
  <circle cx="820" cy="19" r="2" fill="rgba(148,163,184,0.17)"/>
  <circle cx="855" cy="79" r="2" fill="rgba(148,163,184,0.08)"/>
  <circle cx="820" cy="139" r="2" fill="rgba(148,163,184,0.17)"/>
  <circle cx="855" cy="199" r="2" fill="rgba(148,163,184,0.18)"/>
  <circle cx="820" cy="259" r="2" fill="rgba(148,163,184,0.15)"/>
  <circle cx="855" cy="319" r="2" fill="rgba(148,163,184,0.14)"/>
  <circle cx="820" cy="379" r="2" fill="rgba(148,163,184,0.11)"/>
  <circle cx="855" cy="439" r="2" fill="rgba(148,163,184,0.09)"/>
  <circle cx="820" cy="499" r="2" fill="rgba(148,163,184,0.10)"/>
  <circle cx="855" cy="559" r="2" fill="rgba(148,163,184,0.17)"/>
  <circle cx="820" cy="619" r="2" fill="rgba(148,163,184,0.21)"/>
  <circle cx="890" cy="19" r="2" fill="rgba(148,163,184,0.18)"/>
  <circle cx="925" cy="79" r="2" fill="rgba(148,163,184,0.21)"/>
  <circle cx="890" cy="139" r="2" fill="rgba(148,163,184,0.13)"/>
  <circle cx="925" cy="199" r="2" fill="rgba(148,163,184,0.12)"/>
  <circle cx="890" cy="259" r="2" fill="rgba(148,163,184,0.21)"/>
  <circle cx="925" cy="319" r="2" fill="rgba(148,163,184,0.16)"/>
  <circle cx="890" cy="379" r="2" fill="rgba(148,163,184,0.10)"/>
  <circle cx="925" cy="439" r="2" fill="rgba(148,163,184,0.09)"/>
  <circle cx="890" cy="499" r="2" fill="rgba(148,163,184,0.08)"/>
  <circle cx="925" cy="559" r="2" fill="rgba(148,163,184,0.10)"/>
  <circle cx="890" cy="619" r="2" fill="rgba(148,163,184,0.12)"/>
  <circle cx="960" cy="19" r="2" fill="rgba(148,163,184,0.18)"/>
  <circle cx="995" cy="79" r="2" fill="rgba(148,163,184,0.15)"/>
  <circle cx="960" cy="139" r="2" fill="rgba(148,163,184,0.16)"/>
  <circle cx="995" cy="199" r="2" fill="rgba(148,163,184,0.17)"/>
  <circle cx="960" cy="259" r="2" fill="rgba(148,163,184,0.18)"/>
  <circle cx="995" cy="319" r="2" fill="rgba(148,163,184,0.13)"/>
  <circle cx="960" cy="379" r="2" fill="rgba(148,163,184,0.19)"/>
  <circle cx="995" cy="439" r="2" fill="rgba(148,163,184,0.15)"/>
  <circle cx="960" cy="499" r="2" fill="rgba(148,163,184,0.16)"/>
  <circle cx="995" cy="559" r="2" fill="rgba(148,163,184,0.19)"/>
  <circle cx="960" cy="619" r="2" fill="rgba(148,163,184,0.12)"/>
  <circle cx="1030" cy="19" r="2" fill="rgba(148,163,184,0.16)"/>
  <circle cx="1065" cy="79" r="2" fill="rgba(148,163,184,0.10)"/>
  <circle cx="1030" cy="139" r="2" fill="rgba(148,163,184,0.11)"/>
  <circle cx="1065" cy="199" r="2" fill="rgba(148,163,184,0.09)"/>
  <circle cx="1030" cy="259" r="2" fill="rgba(148,163,184,0.19)"/>
  <circle cx="1065" cy="319" r="2" fill="rgba(148,163,184,0.14)"/>
  <circle cx="1030" cy="379" r="2" fill="rgba(148,163,184,0.17)"/>
  <circle cx="1065" cy="439" r="2" fill="rgba(148,163,184,0.10)"/>
  <circle cx="1030" cy="499" r="2" fill="rgba(148,163,184,0.08)"/>
  <circle cx="1065" cy="559" r="2" fill="rgba(148,163,184,0.11)"/>
  <circle cx="1030" cy="619" r="2" fill="rgba(148,163,184,0.13)"/>
  <circle cx="1100" cy="19" r="2" fill="rgba(148,163,184,0.14)"/>
  <circle cx="1135" cy="79" r="2" fill="rgba(148,163,184,0.11)"/>
  <circle cx="1100" cy="139" r="2" fill="rgba(148,163,184,0.18)"/>
  <circle cx="1135" cy="199" r="2" fill="rgba(148,163,184,0.19)"/>
  <circle cx="1100" cy="259" r="2" fill="rgba(148,163,184,0.14)"/>
  <circle cx="1135" cy="319" r="2" fill="rgba(148,163,184,0.15)"/>
  <circle cx="1100" cy="379" r="2" fill="rgba(148,163,184,0.21)"/>
  <circle cx="1135" cy="439" r="2" fill="rgba(148,163,184,0.11)"/>
  <circle cx="1100" cy="499" r="2" fill="rgba(148,163,184,0.12)"/>
  <circle cx="1135" cy="559" r="2" fill="rgba(148,163,184,0.21)"/>
  <circle cx="1100" cy="619" r="2" fill="rgba(148,163,184,0.08)"/>
  <circle cx="1170" cy="19" r="2" fill="rgba(148,163,184,0.12)"/>
  <circle cx="1205" cy="79" r="2" fill="rgba(148,163,184,0.15)"/>
  <circle cx="1170" cy="139" r="2" fill="rgba(148,163,184,0.14)"/>
  <circle cx="1205" cy="199" r="2" fill="rgba(148,163,184,0.12)"/>
  <circle cx="1170" cy="259" r="2" fill="rgba(148,163,184,0.18)"/>
  <circle cx="1205" cy="319" r="2" fill="rgba(148,163,184,0.17)"/>
  <circle cx="1170" cy="379" r="2" fill="rgba(148,163,184,0.11)"/>
  <circle cx="1205" cy="439" r="2" fill="rgba(148,163,184,0.21)"/>
  <circle cx="1170" cy="499" r="2" fill="rgba(148,163,184,0.19)"/>
  <circle cx="1205" cy="559" r="2" fill="rgba(148,163,184,0.11)"/>
  <circle cx="1170" cy="619" r="2" fill="rgba(148,163,184,0.09)"/>

  <!-- Netwerklijnen -->
  <line x1="170" y1="150" x2="238" y2="277" stroke="rgba(96,165,250,0.06)" stroke-width="1"/>
  <line x1="238" y1="277" x2="950" y2="109" stroke="rgba(96,165,250,0.08)" stroke-width="1"/>
  <line x1="950" y1="109" x2="1127" y2="210" stroke="rgba(96,165,250,0.10)" stroke-width="1"/>
  <line x1="1127" y1="210" x2="204" y2="520" stroke="rgba(96,165,250,0.12)" stroke-width="1"/>
  <line x1="204" y1="520" x2="1010" y2="518" stroke="rgba(96,165,250,0.14)" stroke-width="1"/>
  <circle cx="170" cy="150" r="3" fill="rgba(96,165,250,0.25)"/>
  <circle cx="170" cy="150" r="8" fill="rgba(96,165,250,0.06)"/>
  <circle cx="238" cy="277" r="3" fill="rgba(96,165,250,0.25)"/>
  <circle cx="238" cy="277" r="8" fill="rgba(96,165,250,0.06)"/>
  <circle cx="950" cy="109" r="3" fill="rgba(96,165,250,0.25)"/>
  <circle cx="950" cy="109" r="8" fill="rgba(96,165,250,0.06)"/>
  <circle cx="1127" cy="210" r="3" fill="rgba(96,165,250,0.25)"/>
  <circle cx="1127" cy="210" r="8" fill="rgba(96,165,250,0.06)"/>
  <circle cx="204" cy="520" r="3" fill="rgba(96,165,250,0.25)"/>
  <circle cx="204" cy="520" r="8" fill="rgba(96,165,250,0.06)"/>
  <circle cx="1010" cy="518" r="3" fill="rgba(96,165,250,0.25)"/>
  <circle cx="1010" cy="518" r="8" fill="rgba(96,165,250,0.06)"/>

  <!-- Horizontale accentlijn -->
  <line x1="0" y1="1" x2="1200" y2="1" stroke="rgba(96,165,250,0.12)" stroke-width="1"/>
  <line x1="0" y1="629" x2="1200" y2="629" stroke="rgba(96,165,250,0.08)" stroke-width="1"/>

  <!-- Topic-illustratie (gecentreerd) -->
  <g transform="translate(0,0)">
        <rect x="545" y="200" width="110" height="190" rx="18" fill="none" stroke="rgba(96,165,250,0.4)" stroke-width="2"/>
        <rect x="560" y="218" width="80" height="120" rx="4" fill="rgba(96,165,250,0.1)"/>
        <circle cx="600" cy="368" r="10" fill="none" stroke="rgba(96,165,250,0.4)" stroke-width="1.5"/>
        <rect x="575" y="212" width="50" height="6" rx="3" fill="rgba(96,165,250,0.3)"/>
        <path d="M575 260 L600 240 L625 260 L615 290 L585 290 Z" fill="rgba(96,165,250,0.3)"/>
  </g>

  <!-- Categorie badge -->
  <rect x="32" y="570" width="56" height="26" rx="13" fill="rgba(96,165,250,0.2)"/>
       <text x="44" y="588" font-family="system-ui, sans-serif" font-size="12" font-weight="600" fill="rgba(148,163,184,0.9)" letter-spacing="0.05em">GIDS</text>

  <!-- Subtiele vpnr.nl branding (rechtsonder) -->
  <text x="1168" y="614" font-family="system-ui, sans-serif" font-size="11" fill="rgba(100,116,139,0.5)" text-anchor="end" letter-spacing="0.04em">vpnr.nl</text>
</svg>