<svg xmlns="http://www.w3.org/2000/svg" viewBox="0 0 1200 630" width="1200" height="630">
  <defs>
    <linearGradient id="bg" x1="0%" y1="0%" x2="100%" y2="100%">
      <stop offset="0%" style="stop-color:hsl(218,70%,8%)"/>
      <stop offset="50%" style="stop-color:hsl(243,65%,12%)"/>
      <stop offset="100%" style="stop-color:hsl(258,60%,9%)"/>
    </linearGradient>
    <radialGradient id="glow" cx="50%" cy="45%" r="40%">
      <stop offset="0%" style="stop-color:hsl(243,80%,30%);stop-opacity:0.18"/>
      <stop offset="100%" style="stop-color:transparent;stop-opacity:0"/>
    </radialGradient>
    <radialGradient id="glow2" cx="20%" cy="20%" r="30%">
      <stop offset="0%" style="stop-color:hsl(218,70%,40%);stop-opacity:0.08"/>
      <stop offset="100%" style="stop-color:transparent;stop-opacity:0"/>
    </radialGradient>
    <filter id="blur"><feGaussianBlur stdDeviation="40"/></filter>
  </defs>

  <!-- Achtergrond -->
  <rect width="1200" height="630" fill="url(#bg)"/>
  <rect width="1200" height="630" fill="url(#glow)"/>
  <rect width="1200" height="630" fill="url(#glow2)"/>

  <!-- Stippenraster -->
  <circle cx="8" cy="24" r="2" fill="rgba(148,163,184,0.13)"/>
  <circle cx="43" cy="84" r="2" fill="rgba(148,163,184,0.10)"/>
  <circle cx="8" cy="144" r="2" fill="rgba(148,163,184,0.12)"/>
  <circle cx="43" cy="204" r="2" fill="rgba(148,163,184,0.13)"/>
  <circle cx="8" cy="264" r="2" fill="rgba(148,163,184,0.18)"/>
  <circle cx="43" cy="324" r="2" fill="rgba(148,163,184,0.13)"/>
  <circle cx="8" cy="384" r="2" fill="rgba(148,163,184,0.13)"/>
  <circle cx="43" cy="444" r="2" fill="rgba(148,163,184,0.16)"/>
  <circle cx="8" cy="504" r="2" fill="rgba(148,163,184,0.18)"/>
  <circle cx="43" cy="564" r="2" fill="rgba(148,163,184,0.13)"/>
  <circle cx="8" cy="624" r="2" fill="rgba(148,163,184,0.09)"/>
  <circle cx="78" cy="24" r="2" fill="rgba(148,163,184,0.14)"/>
  <circle cx="113" cy="84" r="2" fill="rgba(148,163,184,0.14)"/>
  <circle cx="78" cy="144" r="2" fill="rgba(148,163,184,0.21)"/>
  <circle cx="113" cy="204" r="2" fill="rgba(148,163,184,0.11)"/>
  <circle cx="78" cy="264" r="2" fill="rgba(148,163,184,0.21)"/>
  <circle cx="113" cy="324" r="2" fill="rgba(148,163,184,0.20)"/>
  <circle cx="78" cy="384" r="2" fill="rgba(148,163,184,0.08)"/>
  <circle cx="113" cy="444" r="2" fill="rgba(148,163,184,0.08)"/>
  <circle cx="78" cy="504" r="2" fill="rgba(148,163,184,0.15)"/>
  <circle cx="113" cy="564" r="2" fill="rgba(148,163,184,0.20)"/>
  <circle cx="78" cy="624" r="2" fill="rgba(148,163,184,0.15)"/>
  <circle cx="148" cy="24" r="2" fill="rgba(148,163,184,0.08)"/>
  <circle cx="183" cy="84" r="2" fill="rgba(148,163,184,0.11)"/>
  <circle cx="148" cy="144" r="2" fill="rgba(148,163,184,0.17)"/>
  <circle cx="183" cy="204" r="2" fill="rgba(148,163,184,0.13)"/>
  <circle cx="148" cy="264" r="2" fill="rgba(148,163,184,0.11)"/>
  <circle cx="183" cy="324" r="2" fill="rgba(148,163,184,0.10)"/>
  <circle cx="148" cy="384" r="2" fill="rgba(148,163,184,0.10)"/>
  <circle cx="183" cy="444" r="2" fill="rgba(148,163,184,0.19)"/>
  <circle cx="148" cy="504" r="2" fill="rgba(148,163,184,0.11)"/>
  <circle cx="183" cy="564" r="2" fill="rgba(148,163,184,0.13)"/>
  <circle cx="148" cy="624" r="2" fill="rgba(148,163,184,0.20)"/>
  <circle cx="218" cy="24" r="2" fill="rgba(148,163,184,0.19)"/>
  <circle cx="253" cy="84" r="2" fill="rgba(148,163,184,0.19)"/>
  <circle cx="218" cy="144" r="2" fill="rgba(148,163,184,0.14)"/>
  <circle cx="253" cy="204" r="2" fill="rgba(148,163,184,0.21)"/>
  <circle cx="218" cy="264" r="2" fill="rgba(148,163,184,0.08)"/>
  <circle cx="253" cy="324" r="2" fill="rgba(148,163,184,0.21)"/>
  <circle cx="218" cy="384" r="2" fill="rgba(148,163,184,0.09)"/>
  <circle cx="253" cy="444" r="2" fill="rgba(148,163,184,0.15)"/>
  <circle cx="218" cy="504" r="2" fill="rgba(148,163,184,0.20)"/>
  <circle cx="253" cy="564" r="2" fill="rgba(148,163,184,0.18)"/>
  <circle cx="218" cy="624" r="2" fill="rgba(148,163,184,0.14)"/>
  <circle cx="288" cy="24" r="2" fill="rgba(148,163,184,0.15)"/>
  <circle cx="323" cy="84" r="2" fill="rgba(148,163,184,0.12)"/>
  <circle cx="288" cy="144" r="2" fill="rgba(148,163,184,0.14)"/>
  <circle cx="323" cy="204" r="2" fill="rgba(148,163,184,0.09)"/>
  <circle cx="288" cy="264" r="2" fill="rgba(148,163,184,0.11)"/>
  <circle cx="323" cy="324" r="2" fill="rgba(148,163,184,0.21)"/>
  <circle cx="288" cy="384" r="2" fill="rgba(148,163,184,0.21)"/>
  <circle cx="323" cy="444" r="2" fill="rgba(148,163,184,0.18)"/>
  <circle cx="288" cy="504" r="2" fill="rgba(148,163,184,0.20)"/>
  <circle cx="323" cy="564" r="2" fill="rgba(148,163,184,0.18)"/>
  <circle cx="288" cy="624" r="2" fill="rgba(148,163,184,0.17)"/>
  <circle cx="358" cy="24" r="2" fill="rgba(148,163,184,0.21)"/>
  <circle cx="393" cy="84" r="2" fill="rgba(148,163,184,0.21)"/>
  <circle cx="358" cy="144" r="2" fill="rgba(148,163,184,0.11)"/>
  <circle cx="393" cy="204" r="2" fill="rgba(148,163,184,0.22)"/>
  <circle cx="358" cy="264" r="2" fill="rgba(148,163,184,0.17)"/>
  <circle cx="393" cy="324" r="2" fill="rgba(148,163,184,0.10)"/>
  <circle cx="358" cy="384" r="2" fill="rgba(148,163,184,0.13)"/>
  <circle cx="393" cy="444" r="2" fill="rgba(148,163,184,0.19)"/>
  <circle cx="358" cy="504" r="2" fill="rgba(148,163,184,0.20)"/>
  <circle cx="393" cy="564" r="2" fill="rgba(148,163,184,0.10)"/>
  <circle cx="358" cy="624" r="2" fill="rgba(148,163,184,0.11)"/>
  <circle cx="428" cy="24" r="2" fill="rgba(148,163,184,0.08)"/>
  <circle cx="463" cy="84" r="2" fill="rgba(148,163,184,0.08)"/>
  <circle cx="428" cy="144" r="2" fill="rgba(148,163,184,0.15)"/>
  <circle cx="463" cy="204" r="2" fill="rgba(148,163,184,0.17)"/>
  <circle cx="428" cy="264" r="2" fill="rgba(148,163,184,0.12)"/>
  <circle cx="463" cy="324" r="2" fill="rgba(148,163,184,0.14)"/>
  <circle cx="428" cy="384" r="2" fill="rgba(148,163,184,0.17)"/>
  <circle cx="463" cy="444" r="2" fill="rgba(148,163,184,0.14)"/>
  <circle cx="428" cy="504" r="2" fill="rgba(148,163,184,0.09)"/>
  <circle cx="463" cy="564" r="2" fill="rgba(148,163,184,0.14)"/>
  <circle cx="428" cy="624" r="2" fill="rgba(148,163,184,0.21)"/>
  <circle cx="498" cy="24" r="2" fill="rgba(148,163,184,0.21)"/>
  <circle cx="533" cy="84" r="2" fill="rgba(148,163,184,0.21)"/>
  <circle cx="498" cy="144" r="2" fill="rgba(148,163,184,0.21)"/>
  <circle cx="533" cy="204" r="2" fill="rgba(148,163,184,0.11)"/>
  <circle cx="498" cy="264" r="2" fill="rgba(148,163,184,0.09)"/>
  <circle cx="533" cy="324" r="2" fill="rgba(148,163,184,0.14)"/>
  <circle cx="498" cy="384" r="2" fill="rgba(148,163,184,0.11)"/>
  <circle cx="533" cy="444" r="2" fill="rgba(148,163,184,0.17)"/>
  <circle cx="498" cy="504" r="2" fill="rgba(148,163,184,0.15)"/>
  <circle cx="533" cy="564" r="2" fill="rgba(148,163,184,0.17)"/>
  <circle cx="498" cy="624" r="2" fill="rgba(148,163,184,0.18)"/>
  <circle cx="568" cy="24" r="2" fill="rgba(148,163,184,0.09)"/>
  <circle cx="603" cy="84" r="2" fill="rgba(148,163,184,0.09)"/>
  <circle cx="568" cy="144" r="2" fill="rgba(148,163,184,0.19)"/>
  <circle cx="603" cy="204" r="2" fill="rgba(148,163,184,0.17)"/>
  <circle cx="568" cy="264" r="2" fill="rgba(148,163,184,0.19)"/>
  <circle cx="603" cy="324" r="2" fill="rgba(148,163,184,0.11)"/>
  <circle cx="568" cy="384" r="2" fill="rgba(148,163,184,0.14)"/>
  <circle cx="603" cy="444" r="2" fill="rgba(148,163,184,0.11)"/>
  <circle cx="568" cy="504" r="2" fill="rgba(148,163,184,0.10)"/>
  <circle cx="603" cy="564" r="2" fill="rgba(148,163,184,0.08)"/>
  <circle cx="568" cy="624" r="2" fill="rgba(148,163,184,0.10)"/>
  <circle cx="638" cy="24" r="2" fill="rgba(148,163,184,0.21)"/>
  <circle cx="673" cy="84" r="2" fill="rgba(148,163,184,0.09)"/>
  <circle cx="638" cy="144" r="2" fill="rgba(148,163,184,0.21)"/>
  <circle cx="673" cy="204" r="2" fill="rgba(148,163,184,0.11)"/>
  <circle cx="638" cy="264" r="2" fill="rgba(148,163,184,0.09)"/>
  <circle cx="673" cy="324" r="2" fill="rgba(148,163,184,0.14)"/>
  <circle cx="638" cy="384" r="2" fill="rgba(148,163,184,0.14)"/>
  <circle cx="673" cy="444" r="2" fill="rgba(148,163,184,0.17)"/>
  <circle cx="638" cy="504" r="2" fill="rgba(148,163,184,0.15)"/>
  <circle cx="673" cy="564" r="2" fill="rgba(148,163,184,0.17)"/>
  <circle cx="638" cy="624" r="2" fill="rgba(148,163,184,0.18)"/>
  <circle cx="708" cy="24" r="2" fill="rgba(148,163,184,0.17)"/>
  <circle cx="743" cy="84" r="2" fill="rgba(148,163,184,0.17)"/>
  <circle cx="708" cy="144" r="2" fill="rgba(148,163,184,0.20)"/>
  <circle cx="743" cy="204" r="2" fill="rgba(148,163,184,0.10)"/>
  <circle cx="708" cy="264" r="2" fill="rgba(148,163,184,0.20)"/>
  <circle cx="743" cy="324" r="2" fill="rgba(148,163,184,0.19)"/>
  <circle cx="708" cy="384" r="2" fill="rgba(148,163,184,0.22)"/>
  <circle cx="743" cy="444" r="2" fill="rgba(148,163,184,0.22)"/>
  <circle cx="708" cy="504" r="2" fill="rgba(148,163,184,0.14)"/>
  <circle cx="743" cy="564" r="2" fill="rgba(148,163,184,0.19)"/>
  <circle cx="708" cy="624" r="2" fill="rgba(148,163,184,0.14)"/>
  <circle cx="778" cy="24" r="2" fill="rgba(148,163,184,0.13)"/>
  <circle cx="813" cy="84" r="2" fill="rgba(148,163,184,0.16)"/>
  <circle cx="778" cy="144" r="2" fill="rgba(148,163,184,0.19)"/>
  <circle cx="813" cy="204" r="2" fill="rgba(148,163,184,0.14)"/>
  <circle cx="778" cy="264" r="2" fill="rgba(148,163,184,0.19)"/>
  <circle cx="813" cy="324" r="2" fill="rgba(148,163,184,0.20)"/>
  <circle cx="778" cy="384" r="2" fill="rgba(148,163,184,0.20)"/>
  <circle cx="813" cy="444" r="2" fill="rgba(148,163,184,0.17)"/>
  <circle cx="778" cy="504" r="2" fill="rgba(148,163,184,0.10)"/>
  <circle cx="813" cy="564" r="2" fill="rgba(148,163,184,0.20)"/>
  <circle cx="778" cy="624" r="2" fill="rgba(148,163,184,0.10)"/>
  <circle cx="848" cy="24" r="2" fill="rgba(148,163,184,0.08)"/>
  <circle cx="883" cy="84" r="2" fill="rgba(148,163,184,0.08)"/>
  <circle cx="848" cy="144" r="2" fill="rgba(148,163,184,0.09)"/>
  <circle cx="883" cy="204" r="2" fill="rgba(148,163,184,0.17)"/>
  <circle cx="848" cy="264" r="2" fill="rgba(148,163,184,0.15)"/>
  <circle cx="883" cy="324" r="2" fill="rgba(148,163,184,0.17)"/>
  <circle cx="848" cy="384" r="2" fill="rgba(148,163,184,0.14)"/>
  <circle cx="883" cy="444" r="2" fill="rgba(148,163,184,0.08)"/>
  <circle cx="848" cy="504" r="2" fill="rgba(148,163,184,0.18)"/>
  <circle cx="883" cy="564" r="2" fill="rgba(148,163,184,0.20)"/>
  <circle cx="848" cy="624" r="2" fill="rgba(148,163,184,0.09)"/>
  <circle cx="918" cy="24" r="2" fill="rgba(148,163,184,0.22)"/>
  <circle cx="953" cy="84" r="2" fill="rgba(148,163,184,0.22)"/>
  <circle cx="918" cy="144" r="2" fill="rgba(148,163,184,0.16)"/>
  <circle cx="953" cy="204" r="2" fill="rgba(148,163,184,0.11)"/>
  <circle cx="918" cy="264" r="2" fill="rgba(148,163,184,0.16)"/>
  <circle cx="953" cy="324" r="2" fill="rgba(148,163,184,0.17)"/>
  <circle cx="918" cy="384" r="2" fill="rgba(148,163,184,0.14)"/>
  <circle cx="953" cy="444" r="2" fill="rgba(148,163,184,0.14)"/>
  <circle cx="918" cy="504" r="2" fill="rgba(148,163,184,0.22)"/>
  <circle cx="953" cy="564" r="2" fill="rgba(148,163,184,0.17)"/>
  <circle cx="918" cy="624" r="2" fill="rgba(148,163,184,0.22)"/>
  <circle cx="988" cy="24" r="2" fill="rgba(148,163,184,0.21)"/>
  <circle cx="1023" cy="84" r="2" fill="rgba(148,163,184,0.09)"/>
  <circle cx="988" cy="144" r="2" fill="rgba(148,163,184,0.19)"/>
  <circle cx="1023" cy="204" r="2" fill="rgba(148,163,184,0.08)"/>
  <circle cx="988" cy="264" r="2" fill="rgba(148,163,184,0.13)"/>
  <circle cx="1023" cy="324" r="2" fill="rgba(148,163,184,0.20)"/>
  <circle cx="988" cy="384" r="2" fill="rgba(148,163,184,0.20)"/>
  <circle cx="1023" cy="444" r="2" fill="rgba(148,163,184,0.11)"/>
  <circle cx="988" cy="504" r="2" fill="rgba(148,163,184,0.10)"/>
  <circle cx="1023" cy="564" r="2" fill="rgba(148,163,184,0.20)"/>
  <circle cx="988" cy="624" r="2" fill="rgba(148,163,184,0.19)"/>
  <circle cx="1058" cy="24" r="2" fill="rgba(148,163,184,0.14)"/>
  <circle cx="1093" cy="84" r="2" fill="rgba(148,163,184,0.17)"/>
  <circle cx="1058" cy="144" r="2" fill="rgba(148,163,184,0.10)"/>
  <circle cx="1093" cy="204" r="2" fill="rgba(148,163,184,0.12)"/>
  <circle cx="1058" cy="264" r="2" fill="rgba(148,163,184,0.10)"/>
  <circle cx="1093" cy="324" r="2" fill="rgba(148,163,184,0.18)"/>
  <circle cx="1058" cy="384" r="2" fill="rgba(148,163,184,0.18)"/>
  <circle cx="1093" cy="444" r="2" fill="rgba(148,163,184,0.18)"/>
  <circle cx="1058" cy="504" r="2" fill="rgba(148,163,184,0.19)"/>
  <circle cx="1093" cy="564" r="2" fill="rgba(148,163,184,0.21)"/>
  <circle cx="1058" cy="624" r="2" fill="rgba(148,163,184,0.19)"/>
  <circle cx="1128" cy="24" r="2" fill="rgba(148,163,184,0.17)"/>
  <circle cx="1163" cy="84" r="2" fill="rgba(148,163,184,0.17)"/>
  <circle cx="1128" cy="144" r="2" fill="rgba(148,163,184,0.16)"/>
  <circle cx="1163" cy="204" r="2" fill="rgba(148,163,184,0.11)"/>
  <circle cx="1128" cy="264" r="2" fill="rgba(148,163,184,0.13)"/>
  <circle cx="1163" cy="324" r="2" fill="rgba(148,163,184,0.08)"/>
  <circle cx="1128" cy="384" r="2" fill="rgba(148,163,184,0.11)"/>
  <circle cx="1163" cy="444" r="2" fill="rgba(148,163,184,0.20)"/>
  <circle cx="1128" cy="504" r="2" fill="rgba(148,163,184,0.22)"/>
  <circle cx="1163" cy="564" r="2" fill="rgba(148,163,184,0.20)"/>
  <circle cx="1128" cy="624" r="2" fill="rgba(148,163,184,0.19)"/>
  <circle cx="1198" cy="24" r="2" fill="rgba(148,163,184,0.15)"/>
  <circle cx="1233" cy="84" r="2" fill="rgba(148,163,184,0.15)"/>
  <circle cx="1198" cy="144" r="2" fill="rgba(148,163,184,0.22)"/>
  <circle cx="1233" cy="204" r="2" fill="rgba(148,163,184,0.20)"/>
  <circle cx="1198" cy="264" r="2" fill="rgba(148,163,184,0.10)"/>
  <circle cx="1233" cy="324" r="2" fill="rgba(148,163,184,0.08)"/>
  <circle cx="1198" cy="384" r="2" fill="rgba(148,163,184,0.20)"/>
  <circle cx="1233" cy="444" r="2" fill="rgba(148,163,184,0.08)"/>
  <circle cx="1198" cy="504" r="2" fill="rgba(148,163,184,0.13)"/>
  <circle cx="1233" cy="564" r="2" fill="rgba(148,163,184,0.08)"/>
  <circle cx="1198" cy="624" r="2" fill="rgba(148,163,184,0.16)"/>

  <!-- Netwerklijnen -->
  <line x1="168" y1="108" x2="228" y2="217" stroke="rgba(96,165,250,0.06)" stroke-width="1"/>
  <line x1="228" y1="217" x2="908" y2="102" stroke="rgba(96,165,250,0.08)" stroke-width="1"/>
  <line x1="908" y1="102" x2="1067" y2="228" stroke="rgba(96,165,250,0.10)" stroke-width="1"/>
  <line x1="1067" y1="228" x2="206" y2="518" stroke="rgba(96,165,250,0.12)" stroke-width="1"/>
  <line x1="206" y1="518" x2="1028" y2="528" stroke="rgba(96,165,250,0.14)" stroke-width="1"/>
  <circle cx="168" cy="108" r="3" fill="rgba(96,165,250,0.25)"/>
  <circle cx="168" cy="108" r="8" fill="rgba(96,165,250,0.06)"/>
  <circle cx="228" cy="217" r="3" fill="rgba(96,165,250,0.25)"/>
  <circle cx="228" cy="217" r="8" fill="rgba(96,165,250,0.06)"/>
  <circle cx="908" cy="102" r="3" fill="rgba(96,165,250,0.25)"/>
  <circle cx="908" cy="102" r="8" fill="rgba(96,165,250,0.06)"/>
  <circle cx="1067" cy="228" r="3" fill="rgba(96,165,250,0.25)"/>
  <circle cx="1067" cy="228" r="8" fill="rgba(96,165,250,0.06)"/>
  <circle cx="206" cy="518" r="3" fill="rgba(96,165,250,0.25)"/>
  <circle cx="206" cy="518" r="8" fill="rgba(96,165,250,0.06)"/>
  <circle cx="1028" cy="528" r="3" fill="rgba(96,165,250,0.25)"/>
  <circle cx="1028" cy="528" r="8" fill="rgba(96,165,250,0.06)"/>

  <!-- Horizontale accentlijn -->
  <line x1="0" y1="1" x2="1200" y2="1" stroke="rgba(96,165,250,0.12)" stroke-width="1"/>
  <line x1="0" y1="629" x2="1200" y2="629" stroke="rgba(96,165,250,0.08)" stroke-width="1"/>

  <!-- Topic-illustratie (gecentreerd) -->
  <g transform="translate(0,0)">
        <rect x="460" y="220" width="280" height="170" rx="12" fill="none" stroke="rgba(96,165,250,0.4)" stroke-width="2"/>
        <rect x="476" y="234" width="248" height="138" rx="4" fill="rgba(96,165,250,0.08)"/>
        <rect x="510" y="395" width="180" height="10" rx="5" fill="rgba(96,165,250,0.25)"/>
        <rect x="475" y="250" width="130" height="4" rx="2" fill="rgba(96,165,250,0.2)"/>
        <rect x="475" y="262" width="100" height="4" rx="2" fill="rgba(96,165,250,0.15)"/>
        <rect x="475" y="274" width="115" height="4" rx="2" fill="rgba(96,165,250,0.15)"/>
  </g>

  <!-- Categorie badge -->
  <rect x="32" y="570" width="56" height="26" rx="13" fill="rgba(96,165,250,0.2)"/>
       <text x="44" y="588" font-family="system-ui, sans-serif" font-size="12" font-weight="600" fill="rgba(148,163,184,0.9)" letter-spacing="0.05em">GIDS</text>

  <!-- Subtiele vpnr.nl branding (rechtsonder) -->
  <text x="1168" y="614" font-family="system-ui, sans-serif" font-size="11" fill="rgba(100,116,139,0.5)" text-anchor="end" letter-spacing="0.04em">vpnr.nl</text>
</svg>