<svg xmlns="http://www.w3.org/2000/svg" viewBox="0 0 1200 630" width="1200" height="630">
  <defs>
    <linearGradient id="bg" x1="0%" y1="0%" x2="100%" y2="100%">
      <stop offset="0%" style="stop-color:hsl(239,70%,8%)"/>
      <stop offset="50%" style="stop-color:hsl(244,65%,12%)"/>
      <stop offset="100%" style="stop-color:hsl(259,60%,9%)"/>
    </linearGradient>
    <radialGradient id="glow" cx="50%" cy="45%" r="40%">
      <stop offset="0%" style="stop-color:hsl(244,80%,30%);stop-opacity:0.18"/>
      <stop offset="100%" style="stop-color:transparent;stop-opacity:0"/>
    </radialGradient>
    <radialGradient id="glow2" cx="20%" cy="20%" r="30%">
      <stop offset="0%" style="stop-color:hsl(239,70%,40%);stop-opacity:0.08"/>
      <stop offset="100%" style="stop-color:transparent;stop-opacity:0"/>
    </radialGradient>
    <filter id="blur"><feGaussianBlur stdDeviation="40"/></filter>
  </defs>

  <!-- Achtergrond -->
  <rect width="1200" height="630" fill="url(#bg)"/>
  <rect width="1200" height="630" fill="url(#glow)"/>
  <rect width="1200" height="630" fill="url(#glow2)"/>

  <!-- Stippenraster -->
  <circle cx="9" cy="14" r="2" fill="rgba(148,163,184,0.14)"/>
  <circle cx="44" cy="74" r="2" fill="rgba(148,163,184,0.12)"/>
  <circle cx="9" cy="134" r="2" fill="rgba(148,163,184,0.13)"/>
  <circle cx="44" cy="194" r="2" fill="rgba(148,163,184,0.13)"/>
  <circle cx="9" cy="254" r="2" fill="rgba(148,163,184,0.11)"/>
  <circle cx="44" cy="314" r="2" fill="rgba(148,163,184,0.16)"/>
  <circle cx="9" cy="374" r="2" fill="rgba(148,163,184,0.11)"/>
  <circle cx="44" cy="434" r="2" fill="rgba(148,163,184,0.17)"/>
  <circle cx="9" cy="494" r="2" fill="rgba(148,163,184,0.17)"/>
  <circle cx="44" cy="554" r="2" fill="rgba(148,163,184,0.13)"/>
  <circle cx="9" cy="614" r="2" fill="rgba(148,163,184,0.20)"/>
  <circle cx="79" cy="14" r="2" fill="rgba(148,163,184,0.14)"/>
  <circle cx="114" cy="74" r="2" fill="rgba(148,163,184,0.16)"/>
  <circle cx="79" cy="134" r="2" fill="rgba(148,163,184,0.14)"/>
  <circle cx="114" cy="194" r="2" fill="rgba(148,163,184,0.17)"/>
  <circle cx="79" cy="254" r="2" fill="rgba(148,163,184,0.16)"/>
  <circle cx="114" cy="314" r="2" fill="rgba(148,163,184,0.11)"/>
  <circle cx="79" cy="374" r="2" fill="rgba(148,163,184,0.16)"/>
  <circle cx="114" cy="434" r="2" fill="rgba(148,163,184,0.10)"/>
  <circle cx="79" cy="494" r="2" fill="rgba(148,163,184,0.13)"/>
  <circle cx="114" cy="554" r="2" fill="rgba(148,163,184,0.14)"/>
  <circle cx="79" cy="614" r="2" fill="rgba(148,163,184,0.22)"/>
  <circle cx="149" cy="14" r="2" fill="rgba(148,163,184,0.21)"/>
  <circle cx="184" cy="74" r="2" fill="rgba(148,163,184,0.11)"/>
  <circle cx="149" cy="134" r="2" fill="rgba(148,163,184,0.14)"/>
  <circle cx="184" cy="194" r="2" fill="rgba(148,163,184,0.14)"/>
  <circle cx="149" cy="254" r="2" fill="rgba(148,163,184,0.13)"/>
  <circle cx="184" cy="314" r="2" fill="rgba(148,163,184,0.17)"/>
  <circle cx="149" cy="374" r="2" fill="rgba(148,163,184,0.19)"/>
  <circle cx="184" cy="434" r="2" fill="rgba(148,163,184,0.16)"/>
  <circle cx="149" cy="494" r="2" fill="rgba(148,163,184,0.16)"/>
  <circle cx="184" cy="554" r="2" fill="rgba(148,163,184,0.11)"/>
  <circle cx="149" cy="614" r="2" fill="rgba(148,163,184,0.19)"/>
  <circle cx="219" cy="14" r="2" fill="rgba(148,163,184,0.16)"/>
  <circle cx="254" cy="74" r="2" fill="rgba(148,163,184,0.11)"/>
  <circle cx="219" cy="134" r="2" fill="rgba(148,163,184,0.21)"/>
  <circle cx="254" cy="194" r="2" fill="rgba(148,163,184,0.09)"/>
  <circle cx="219" cy="254" r="2" fill="rgba(148,163,184,0.16)"/>
  <circle cx="254" cy="314" r="2" fill="rgba(148,163,184,0.18)"/>
  <circle cx="219" cy="374" r="2" fill="rgba(148,163,184,0.16)"/>
  <circle cx="254" cy="434" r="2" fill="rgba(148,163,184,0.13)"/>
  <circle cx="219" cy="494" r="2" fill="rgba(148,163,184,0.16)"/>
  <circle cx="254" cy="554" r="2" fill="rgba(148,163,184,0.09)"/>
  <circle cx="219" cy="614" r="2" fill="rgba(148,163,184,0.10)"/>
  <circle cx="289" cy="14" r="2" fill="rgba(148,163,184,0.17)"/>
  <circle cx="324" cy="74" r="2" fill="rgba(148,163,184,0.12)"/>
  <circle cx="289" cy="134" r="2" fill="rgba(148,163,184,0.15)"/>
  <circle cx="324" cy="194" r="2" fill="rgba(148,163,184,0.15)"/>
  <circle cx="289" cy="254" r="2" fill="rgba(148,163,184,0.22)"/>
  <circle cx="324" cy="314" r="2" fill="rgba(148,163,184,0.12)"/>
  <circle cx="289" cy="374" r="2" fill="rgba(148,163,184,0.10)"/>
  <circle cx="324" cy="434" r="2" fill="rgba(148,163,184,0.19)"/>
  <circle cx="289" cy="494" r="2" fill="rgba(148,163,184,0.19)"/>
  <circle cx="324" cy="554" r="2" fill="rgba(148,163,184,0.18)"/>
  <circle cx="289" cy="614" r="2" fill="rgba(148,163,184,0.16)"/>
  <circle cx="359" cy="14" r="2" fill="rgba(148,163,184,0.11)"/>
  <circle cx="394" cy="74" r="2" fill="rgba(148,163,184,0.13)"/>
  <circle cx="359" cy="134" r="2" fill="rgba(148,163,184,0.17)"/>
  <circle cx="394" cy="194" r="2" fill="rgba(148,163,184,0.20)"/>
  <circle cx="359" cy="254" r="2" fill="rgba(148,163,184,0.10)"/>
  <circle cx="394" cy="314" r="2" fill="rgba(148,163,184,0.14)"/>
  <circle cx="359" cy="374" r="2" fill="rgba(148,163,184,0.19)"/>
  <circle cx="394" cy="434" r="2" fill="rgba(148,163,184,0.19)"/>
  <circle cx="359" cy="494" r="2" fill="rgba(148,163,184,0.22)"/>
  <circle cx="394" cy="554" r="2" fill="rgba(148,163,184,0.17)"/>
  <circle cx="359" cy="614" r="2" fill="rgba(148,163,184,0.16)"/>
  <circle cx="429" cy="14" r="2" fill="rgba(148,163,184,0.18)"/>
  <circle cx="464" cy="74" r="2" fill="rgba(148,163,184,0.20)"/>
  <circle cx="429" cy="134" r="2" fill="rgba(148,163,184,0.19)"/>
  <circle cx="464" cy="194" r="2" fill="rgba(148,163,184,0.22)"/>
  <circle cx="429" cy="254" r="2" fill="rgba(148,163,184,0.18)"/>
  <circle cx="464" cy="314" r="2" fill="rgba(148,163,184,0.16)"/>
  <circle cx="429" cy="374" r="2" fill="rgba(148,163,184,0.21)"/>
  <circle cx="464" cy="434" r="2" fill="rgba(148,163,184,0.12)"/>
  <circle cx="429" cy="494" r="2" fill="rgba(148,163,184,0.15)"/>
  <circle cx="464" cy="554" r="2" fill="rgba(148,163,184,0.19)"/>
  <circle cx="429" cy="614" r="2" fill="rgba(148,163,184,0.09)"/>
  <circle cx="499" cy="14" r="2" fill="rgba(148,163,184,0.17)"/>
  <circle cx="534" cy="74" r="2" fill="rgba(148,163,184,0.22)"/>
  <circle cx="499" cy="134" r="2" fill="rgba(148,163,184,0.13)"/>
  <circle cx="534" cy="194" r="2" fill="rgba(148,163,184,0.10)"/>
  <circle cx="499" cy="254" r="2" fill="rgba(148,163,184,0.21)"/>
  <circle cx="534" cy="314" r="2" fill="rgba(148,163,184,0.16)"/>
  <circle cx="499" cy="374" r="2" fill="rgba(148,163,184,0.18)"/>
  <circle cx="534" cy="434" r="2" fill="rgba(148,163,184,0.09)"/>
  <circle cx="499" cy="494" r="2" fill="rgba(148,163,184,0.21)"/>
  <circle cx="534" cy="554" r="2" fill="rgba(148,163,184,0.10)"/>
  <circle cx="499" cy="614" r="2" fill="rgba(148,163,184,0.12)"/>
  <circle cx="569" cy="14" r="2" fill="rgba(148,163,184,0.08)"/>
  <circle cx="604" cy="74" r="2" fill="rgba(148,163,184,0.18)"/>
  <circle cx="569" cy="134" r="2" fill="rgba(148,163,184,0.16)"/>
  <circle cx="604" cy="194" r="2" fill="rgba(148,163,184,0.19)"/>
  <circle cx="569" cy="254" r="2" fill="rgba(148,163,184,0.17)"/>
  <circle cx="604" cy="314" r="2" fill="rgba(148,163,184,0.13)"/>
  <circle cx="569" cy="374" r="2" fill="rgba(148,163,184,0.11)"/>
  <circle cx="604" cy="434" r="2" fill="rgba(148,163,184,0.14)"/>
  <circle cx="569" cy="494" r="2" fill="rgba(148,163,184,0.17)"/>
  <circle cx="604" cy="554" r="2" fill="rgba(148,163,184,0.19)"/>
  <circle cx="569" cy="614" r="2" fill="rgba(148,163,184,0.11)"/>
  <circle cx="639" cy="14" r="2" fill="rgba(148,163,184,0.11)"/>
  <circle cx="674" cy="74" r="2" fill="rgba(148,163,184,0.16)"/>
  <circle cx="639" cy="134" r="2" fill="rgba(148,163,184,0.10)"/>
  <circle cx="674" cy="194" r="2" fill="rgba(148,163,184,0.10)"/>
  <circle cx="639" cy="254" r="2" fill="rgba(148,163,184,0.18)"/>
  <circle cx="674" cy="314" r="2" fill="rgba(148,163,184,0.13)"/>
  <circle cx="639" cy="374" r="2" fill="rgba(148,163,184,0.15)"/>
  <circle cx="674" cy="434" r="2" fill="rgba(148,163,184,0.21)"/>
  <circle cx="639" cy="494" r="2" fill="rgba(148,163,184,0.21)"/>
  <circle cx="674" cy="554" r="2" fill="rgba(148,163,184,0.22)"/>
  <circle cx="639" cy="614" r="2" fill="rgba(148,163,184,0.09)"/>
  <circle cx="709" cy="14" r="2" fill="rgba(148,163,184,0.15)"/>
  <circle cx="744" cy="74" r="2" fill="rgba(148,163,184,0.17)"/>
  <circle cx="709" cy="134" r="2" fill="rgba(148,163,184,0.08)"/>
  <circle cx="744" cy="194" r="2" fill="rgba(148,163,184,0.11)"/>
  <circle cx="709" cy="254" r="2" fill="rgba(148,163,184,0.16)"/>
  <circle cx="744" cy="314" r="2" fill="rgba(148,163,184,0.20)"/>
  <circle cx="709" cy="374" r="2" fill="rgba(148,163,184,0.10)"/>
  <circle cx="744" cy="434" r="2" fill="rgba(148,163,184,0.10)"/>
  <circle cx="709" cy="494" r="2" fill="rgba(148,163,184,0.13)"/>
  <circle cx="744" cy="554" r="2" fill="rgba(148,163,184,0.08)"/>
  <circle cx="709" cy="614" r="2" fill="rgba(148,163,184,0.22)"/>
  <circle cx="779" cy="14" r="2" fill="rgba(148,163,184,0.16)"/>
  <circle cx="814" cy="74" r="2" fill="rgba(148,163,184,0.14)"/>
  <circle cx="779" cy="134" r="2" fill="rgba(148,163,184,0.19)"/>
  <circle cx="814" cy="194" r="2" fill="rgba(148,163,184,0.19)"/>
  <circle cx="779" cy="254" r="2" fill="rgba(148,163,184,0.11)"/>
  <circle cx="814" cy="314" r="2" fill="rgba(148,163,184,0.22)"/>
  <circle cx="779" cy="374" r="2" fill="rgba(148,163,184,0.17)"/>
  <circle cx="814" cy="434" r="2" fill="rgba(148,163,184,0.17)"/>
  <circle cx="779" cy="494" r="2" fill="rgba(148,163,184,0.17)"/>
  <circle cx="814" cy="554" r="2" fill="rgba(148,163,184,0.19)"/>
  <circle cx="779" cy="614" r="2" fill="rgba(148,163,184,0.20)"/>
  <circle cx="849" cy="14" r="2" fill="rgba(148,163,184,0.12)"/>
  <circle cx="884" cy="74" r="2" fill="rgba(148,163,184,0.17)"/>
  <circle cx="849" cy="134" r="2" fill="rgba(148,163,184,0.12)"/>
  <circle cx="884" cy="194" r="2" fill="rgba(148,163,184,0.15)"/>
  <circle cx="849" cy="254" r="2" fill="rgba(148,163,184,0.22)"/>
  <circle cx="884" cy="314" r="2" fill="rgba(148,163,184,0.09)"/>
  <circle cx="849" cy="374" r="2" fill="rgba(148,163,184,0.22)"/>
  <circle cx="884" cy="434" r="2" fill="rgba(148,163,184,0.19)"/>
  <circle cx="849" cy="494" r="2" fill="rgba(148,163,184,0.22)"/>
  <circle cx="884" cy="554" r="2" fill="rgba(148,163,184,0.15)"/>
  <circle cx="849" cy="614" r="2" fill="rgba(148,163,184,0.16)"/>
  <circle cx="919" cy="14" r="2" fill="rgba(148,163,184,0.19)"/>
  <circle cx="954" cy="74" r="2" fill="rgba(148,163,184,0.17)"/>
  <circle cx="919" cy="134" r="2" fill="rgba(148,163,184,0.13)"/>
  <circle cx="954" cy="194" r="2" fill="rgba(148,163,184,0.10)"/>
  <circle cx="919" cy="254" r="2" fill="rgba(148,163,184,0.20)"/>
  <circle cx="954" cy="314" r="2" fill="rgba(148,163,184,0.16)"/>
  <circle cx="919" cy="374" r="2" fill="rgba(148,163,184,0.11)"/>
  <circle cx="954" cy="434" r="2" fill="rgba(148,163,184,0.11)"/>
  <circle cx="919" cy="494" r="2" fill="rgba(148,163,184,0.08)"/>
  <circle cx="954" cy="554" r="2" fill="rgba(148,163,184,0.13)"/>
  <circle cx="919" cy="614" r="2" fill="rgba(148,163,184,0.14)"/>
  <circle cx="989" cy="14" r="2" fill="rgba(148,163,184,0.14)"/>
  <circle cx="1024" cy="74" r="2" fill="rgba(148,163,184,0.12)"/>
  <circle cx="989" cy="134" r="2" fill="rgba(148,163,184,0.22)"/>
  <circle cx="1024" cy="194" r="2" fill="rgba(148,163,184,0.22)"/>
  <circle cx="989" cy="254" r="2" fill="rgba(148,163,184,0.14)"/>
  <circle cx="1024" cy="314" r="2" fill="rgba(148,163,184,0.10)"/>
  <circle cx="989" cy="374" r="2" fill="rgba(148,163,184,0.20)"/>
  <circle cx="1024" cy="434" r="2" fill="rgba(148,163,184,0.20)"/>
  <circle cx="989" cy="494" r="2" fill="rgba(148,163,184,0.20)"/>
  <circle cx="1024" cy="554" r="2" fill="rgba(148,163,184,0.22)"/>
  <circle cx="989" cy="614" r="2" fill="rgba(148,163,184,0.08)"/>
  <circle cx="1059" cy="14" r="2" fill="rgba(148,163,184,0.08)"/>
  <circle cx="1094" cy="74" r="2" fill="rgba(148,163,184,0.13)"/>
  <circle cx="1059" cy="134" r="2" fill="rgba(148,163,184,0.09)"/>
  <circle cx="1094" cy="194" r="2" fill="rgba(148,163,184,0.09)"/>
  <circle cx="1059" cy="254" r="2" fill="rgba(148,163,184,0.19)"/>
  <circle cx="1094" cy="314" r="2" fill="rgba(148,163,184,0.21)"/>
  <circle cx="1059" cy="374" r="2" fill="rgba(148,163,184,0.19)"/>
  <circle cx="1094" cy="434" r="2" fill="rgba(148,163,184,0.16)"/>
  <circle cx="1059" cy="494" r="2" fill="rgba(148,163,184,0.16)"/>
  <circle cx="1094" cy="554" r="2" fill="rgba(148,163,184,0.12)"/>
  <circle cx="1059" cy="614" r="2" fill="rgba(148,163,184,0.13)"/>
  <circle cx="1129" cy="14" r="2" fill="rgba(148,163,184,0.18)"/>
  <circle cx="1164" cy="74" r="2" fill="rgba(148,163,184,0.13)"/>
  <circle cx="1129" cy="134" r="2" fill="rgba(148,163,184,0.09)"/>
  <circle cx="1164" cy="194" r="2" fill="rgba(148,163,184,0.21)"/>
  <circle cx="1129" cy="254" r="2" fill="rgba(148,163,184,0.08)"/>
  <circle cx="1164" cy="314" r="2" fill="rgba(148,163,184,0.12)"/>
  <circle cx="1129" cy="374" r="2" fill="rgba(148,163,184,0.14)"/>
  <circle cx="1164" cy="434" r="2" fill="rgba(148,163,184,0.11)"/>
  <circle cx="1129" cy="494" r="2" fill="rgba(148,163,184,0.08)"/>
  <circle cx="1164" cy="554" r="2" fill="rgba(148,163,184,0.21)"/>
  <circle cx="1129" cy="614" r="2" fill="rgba(148,163,184,0.14)"/>
  <circle cx="1199" cy="14" r="2" fill="rgba(148,163,184,0.13)"/>
  <circle cx="1234" cy="74" r="2" fill="rgba(148,163,184,0.11)"/>
  <circle cx="1199" cy="134" r="2" fill="rgba(148,163,184,0.12)"/>
  <circle cx="1234" cy="194" r="2" fill="rgba(148,163,184,0.15)"/>
  <circle cx="1199" cy="254" r="2" fill="rgba(148,163,184,0.20)"/>
  <circle cx="1234" cy="314" r="2" fill="rgba(148,163,184,0.09)"/>
  <circle cx="1199" cy="374" r="2" fill="rgba(148,163,184,0.14)"/>
  <circle cx="1234" cy="434" r="2" fill="rgba(148,163,184,0.14)"/>
  <circle cx="1199" cy="494" r="2" fill="rgba(148,163,184,0.17)"/>
  <circle cx="1234" cy="554" r="2" fill="rgba(148,163,184,0.12)"/>
  <circle cx="1199" cy="614" r="2" fill="rgba(148,163,184,0.11)"/>

  <!-- Netwerklijnen -->
  <line x1="169" y1="109" x2="268" y2="257" stroke="rgba(96,165,250,0.06)" stroke-width="1"/>
  <line x1="268" y1="257" x2="909" y2="127" stroke="rgba(96,165,250,0.08)" stroke-width="1"/>
  <line x1="909" y1="127" x2="1107" y2="249" stroke="rgba(96,165,250,0.10)" stroke-width="1"/>
  <line x1="1107" y1="249" x2="223" y2="519" stroke="rgba(96,165,250,0.12)" stroke-width="1"/>
  <line x1="223" y1="519" x2="1049" y2="508" stroke="rgba(96,165,250,0.14)" stroke-width="1"/>
  <circle cx="169" cy="109" r="3" fill="rgba(96,165,250,0.25)"/>
  <circle cx="169" cy="109" r="8" fill="rgba(96,165,250,0.06)"/>
  <circle cx="268" cy="257" r="3" fill="rgba(96,165,250,0.25)"/>
  <circle cx="268" cy="257" r="8" fill="rgba(96,165,250,0.06)"/>
  <circle cx="909" cy="127" r="3" fill="rgba(96,165,250,0.25)"/>
  <circle cx="909" cy="127" r="8" fill="rgba(96,165,250,0.06)"/>
  <circle cx="1107" cy="249" r="3" fill="rgba(96,165,250,0.25)"/>
  <circle cx="1107" cy="249" r="8" fill="rgba(96,165,250,0.06)"/>
  <circle cx="223" cy="519" r="3" fill="rgba(96,165,250,0.25)"/>
  <circle cx="223" cy="519" r="8" fill="rgba(96,165,250,0.06)"/>
  <circle cx="1049" cy="508" r="3" fill="rgba(96,165,250,0.25)"/>
  <circle cx="1049" cy="508" r="8" fill="rgba(96,165,250,0.06)"/>

  <!-- Horizontale accentlijn -->
  <line x1="0" y1="1" x2="1200" y2="1" stroke="rgba(96,165,250,0.12)" stroke-width="1"/>
  <line x1="0" y1="629" x2="1200" y2="629" stroke="rgba(96,165,250,0.08)" stroke-width="1"/>

  <!-- Topic-illustratie (gecentreerd) -->
  <g transform="translate(0,0)">
        <circle cx="600" cy="280" r="90" fill="none" stroke="rgba(96,165,250,0.3)" stroke-width="1.5"/>
        <circle cx="600" cy="280" r="55" fill="rgba(96,165,250,0.08)"/>
        <text x="600" y="290" text-anchor="middle" font-family="monospace" font-size="22" fill="rgba(96,165,250,0.7)" font-weight="bold">185.x.x.x</text>
        <line x1="600" y1="190" x2="600" y2="175" stroke="rgba(239,68,68,0.5)" stroke-width="2"/>
        <line x1="575" y1="175" x2="625" y2="175" stroke="rgba(239,68,68,0.5)" stroke-width="2"/>
  </g>

  <!-- Categorie badge -->
  <rect x="32" y="570" width="80" height="26" rx="13" fill="rgba(96,165,250,0.2)"/>
       <text x="44" y="588" font-family="system-ui, sans-serif" font-size="12" font-weight="600" fill="rgba(148,163,184,0.9)" letter-spacing="0.05em">PRIVACY</text>

  <!-- Subtiele vpnr.nl branding (rechtsonder) -->
  <text x="1168" y="614" font-family="system-ui, sans-serif" font-size="11" fill="rgba(100,116,139,0.5)" text-anchor="end" letter-spacing="0.04em">vpnr.nl</text>
</svg>